<?xml version="1.0" encoding="utf-8" standalone="no"?>
<!DOCTYPE svg PUBLIC "-//W3C//DTD SVG 1.1//EN"
  "http://www.w3.org/Graphics/SVG/1.1/DTD/svg11.dtd">
<svg xmlns:xlink="http://www.w3.org/1999/xlink" width="323.997965pt" height="209.002254pt" viewBox="0 0 323.997965 209.002254" xmlns="http://www.w3.org/2000/svg" version="1.1">
 <metadata>
  <rdf:RDF xmlns:dc="http://purl.org/dc/elements/1.1/" xmlns:cc="http://creativecommons.org/ns#" xmlns:rdf="http://www.w3.org/1999/02/22-rdf-syntax-ns#">
   <cc:Work>
    <dc:type rdf:resource="http://purl.org/dc/dcmitype/StillImage"/>
    <dc:date>2025-11-25T18:53:35.984659</dc:date>
    <dc:format>image/svg+xml</dc:format>
    <dc:creator>
     <cc:Agent>
      <dc:title>Matplotlib v3.10.6, https://matplotlib.org/</dc:title>
     </cc:Agent>
    </dc:creator>
   </cc:Work>
  </rdf:RDF>
 </metadata>
 <defs>
  <style type="text/css">*{stroke-linejoin: round; stroke-linecap: butt}</style>
 </defs>
 <g id="figure_1">
  <g id="patch_1">
   <path d="M 0 209.002254 
L 323.997965 209.002254 
L 323.997965 0 
L 0 0 
L 0 209.002254 
z
" style="fill: none"/>
  </g>
  <g id="axes_1">
   <g id="patch_2">
    <path d="M 50.421875 171.446004 
L 316.797965 171.446004 
L 316.797965 7.878653 
L 50.421875 7.878653 
L 50.421875 171.446004 
z
" style="fill: none"/>
   </g>
   <g id="matplotlib.axis_1">
    <g id="xtick_1">
     <g id="text_1">
      <!-- 50 -->
      <g style="fill: #262626" transform="translate(79.182593 186.044442) scale(0.1 -0.1)">
       <defs>
        <path id="DejaVuSans-35" d="M 691 4666 
L 3169 4666 
L 3169 4134 
L 1269 4134 
L 1269 2991 
Q 1406 3038 1543 3061 
Q 1681 3084 1819 3084 
Q 2600 3084 3056 2656 
Q 3513 2228 3513 1497 
Q 3513 744 3044 326 
Q 2575 -91 1722 -91 
Q 1428 -91 1123 -41 
Q 819 9 494 109 
L 494 744 
Q 775 591 1075 516 
Q 1375 441 1709 441 
Q 2250 441 2565 725 
Q 2881 1009 2881 1497 
Q 2881 1984 2565 2268 
Q 2250 2553 1709 2553 
Q 1456 2553 1204 2497 
Q 953 2441 691 2322 
L 691 4666 
z
" transform="scale(0.015625)"/>
        <path id="DejaVuSans-30" d="M 2034 4250 
Q 1547 4250 1301 3770 
Q 1056 3291 1056 2328 
Q 1056 1369 1301 889 
Q 1547 409 2034 409 
Q 2525 409 2770 889 
Q 3016 1369 3016 2328 
Q 3016 3291 2770 3770 
Q 2525 4250 2034 4250 
z
M 2034 4750 
Q 2819 4750 3233 4129 
Q 3647 3509 3647 2328 
Q 3647 1150 3233 529 
Q 2819 -91 2034 -91 
Q 1250 -91 836 529 
Q 422 1150 422 2328 
Q 422 3509 836 4129 
Q 1250 4750 2034 4750 
z
" transform="scale(0.015625)"/>
       </defs>
       <use xlink:href="#DejaVuSans-35"/>
       <use xlink:href="#DejaVuSans-30" transform="translate(63.623047 0)"/>
      </g>
     </g>
    </g>
    <g id="xtick_2">
     <g id="text_2">
      <!-- 100 -->
      <g style="fill: #262626" transform="translate(126.034418 186.044442) scale(0.1 -0.1)">
       <defs>
        <path id="DejaVuSans-31" d="M 794 531 
L 1825 531 
L 1825 4091 
L 703 3866 
L 703 4441 
L 1819 4666 
L 2450 4666 
L 2450 531 
L 3481 531 
L 3481 0 
L 794 0 
L 794 531 
z
" transform="scale(0.015625)"/>
       </defs>
       <use xlink:href="#DejaVuSans-31"/>
       <use xlink:href="#DejaVuSans-30" transform="translate(63.623047 0)"/>
       <use xlink:href="#DejaVuSans-30" transform="translate(127.246094 0)"/>
      </g>
     </g>
    </g>
    <g id="xtick_3">
     <g id="text_3">
      <!-- 150 -->
      <g style="fill: #262626" transform="translate(176.067493 186.044442) scale(0.1 -0.1)">
       <use xlink:href="#DejaVuSans-31"/>
       <use xlink:href="#DejaVuSans-35" transform="translate(63.623047 0)"/>
       <use xlink:href="#DejaVuSans-30" transform="translate(127.246094 0)"/>
      </g>
     </g>
    </g>
    <g id="xtick_4">
     <g id="text_4">
      <!-- 200 -->
      <g style="fill: #262626" transform="translate(226.100568 186.044442) scale(0.1 -0.1)">
       <defs>
        <path id="DejaVuSans-32" d="M 1228 531 
L 3431 531 
L 3431 0 
L 469 0 
L 469 531 
Q 828 903 1448 1529 
Q 2069 2156 2228 2338 
Q 2531 2678 2651 2914 
Q 2772 3150 2772 3378 
Q 2772 3750 2511 3984 
Q 2250 4219 1831 4219 
Q 1534 4219 1204 4116 
Q 875 4013 500 3803 
L 500 4441 
Q 881 4594 1212 4672 
Q 1544 4750 1819 4750 
Q 2544 4750 2975 4387 
Q 3406 4025 3406 3419 
Q 3406 3131 3298 2873 
Q 3191 2616 2906 2266 
Q 2828 2175 2409 1742 
Q 1991 1309 1228 531 
z
" transform="scale(0.015625)"/>
       </defs>
       <use xlink:href="#DejaVuSans-32"/>
       <use xlink:href="#DejaVuSans-30" transform="translate(63.623047 0)"/>
       <use xlink:href="#DejaVuSans-30" transform="translate(127.246094 0)"/>
      </g>
     </g>
    </g>
    <g id="xtick_5">
     <g id="text_5">
      <!-- 250 -->
      <g style="fill: #262626" transform="translate(276.133642 186.044442) scale(0.1 -0.1)">
       <use xlink:href="#DejaVuSans-32"/>
       <use xlink:href="#DejaVuSans-35" transform="translate(63.623047 0)"/>
       <use xlink:href="#DejaVuSans-30" transform="translate(127.246094 0)"/>
      </g>
     </g>
    </g>
    <g id="text_6">
     <!-- draw -->
     <g style="fill: #262626" transform="translate(171.227107 199.722567) scale(0.1 -0.1)">
      <defs>
       <path id="DejaVuSans-64" d="M 2906 2969 
L 2906 4863 
L 3481 4863 
L 3481 0 
L 2906 0 
L 2906 525 
Q 2725 213 2448 61 
Q 2172 -91 1784 -91 
Q 1150 -91 751 415 
Q 353 922 353 1747 
Q 353 2572 751 3078 
Q 1150 3584 1784 3584 
Q 2172 3584 2448 3432 
Q 2725 3281 2906 2969 
z
M 947 1747 
Q 947 1113 1208 752 
Q 1469 391 1925 391 
Q 2381 391 2643 752 
Q 2906 1113 2906 1747 
Q 2906 2381 2643 2742 
Q 2381 3103 1925 3103 
Q 1469 3103 1208 2742 
Q 947 2381 947 1747 
z
" transform="scale(0.015625)"/>
       <path id="DejaVuSans-72" d="M 2631 2963 
Q 2534 3019 2420 3045 
Q 2306 3072 2169 3072 
Q 1681 3072 1420 2755 
Q 1159 2438 1159 1844 
L 1159 0 
L 581 0 
L 581 3500 
L 1159 3500 
L 1159 2956 
Q 1341 3275 1631 3429 
Q 1922 3584 2338 3584 
Q 2397 3584 2469 3576 
Q 2541 3569 2628 3553 
L 2631 2963 
z
" transform="scale(0.015625)"/>
       <path id="DejaVuSans-61" d="M 2194 1759 
Q 1497 1759 1228 1600 
Q 959 1441 959 1056 
Q 959 750 1161 570 
Q 1363 391 1709 391 
Q 2188 391 2477 730 
Q 2766 1069 2766 1631 
L 2766 1759 
L 2194 1759 
z
M 3341 1997 
L 3341 0 
L 2766 0 
L 2766 531 
Q 2569 213 2275 61 
Q 1981 -91 1556 -91 
Q 1019 -91 701 211 
Q 384 513 384 1019 
Q 384 1609 779 1909 
Q 1175 2209 1959 2209 
L 2766 2209 
L 2766 2266 
Q 2766 2663 2505 2880 
Q 2244 3097 1772 3097 
Q 1472 3097 1187 3025 
Q 903 2953 641 2809 
L 641 3341 
Q 956 3463 1253 3523 
Q 1550 3584 1831 3584 
Q 2591 3584 2966 3190 
Q 3341 2797 3341 1997 
z
" transform="scale(0.015625)"/>
       <path id="DejaVuSans-77" d="M 269 3500 
L 844 3500 
L 1563 769 
L 2278 3500 
L 2956 3500 
L 3675 769 
L 4391 3500 
L 4966 3500 
L 4050 0 
L 3372 0 
L 2619 2869 
L 1863 0 
L 1184 0 
L 269 3500 
z
" transform="scale(0.015625)"/>
      </defs>
      <use xlink:href="#DejaVuSans-64"/>
      <use xlink:href="#DejaVuSans-72" transform="translate(63.476562 0)"/>
      <use xlink:href="#DejaVuSans-61" transform="translate(104.589844 0)"/>
      <use xlink:href="#DejaVuSans-77" transform="translate(165.869141 0)"/>
     </g>
    </g>
   </g>
   <g id="matplotlib.axis_2">
    <g id="ytick_1">
     <g id="text_7">
      <!-- 0.20 -->
      <g style="fill: #262626" transform="translate(21.15625 159.68866) scale(0.1 -0.1)">
       <defs>
        <path id="DejaVuSans-2e" d="M 684 794 
L 1344 794 
L 1344 0 
L 684 0 
L 684 794 
z
" transform="scale(0.015625)"/>
       </defs>
       <use xlink:href="#DejaVuSans-30"/>
       <use xlink:href="#DejaVuSans-2e" transform="translate(63.623047 0)"/>
       <use xlink:href="#DejaVuSans-32" transform="translate(95.410156 0)"/>
       <use xlink:href="#DejaVuSans-30" transform="translate(159.033203 0)"/>
      </g>
     </g>
    </g>
    <g id="ytick_2">
     <g id="text_8">
      <!-- 0.25 -->
      <g style="fill: #262626" transform="translate(21.15625 138.990056) scale(0.1 -0.1)">
       <use xlink:href="#DejaVuSans-30"/>
       <use xlink:href="#DejaVuSans-2e" transform="translate(63.623047 0)"/>
       <use xlink:href="#DejaVuSans-32" transform="translate(95.410156 0)"/>
       <use xlink:href="#DejaVuSans-35" transform="translate(159.033203 0)"/>
      </g>
     </g>
    </g>
    <g id="ytick_3">
     <g id="text_9">
      <!-- 0.30 -->
      <g style="fill: #262626" transform="translate(21.15625 118.291453) scale(0.1 -0.1)">
       <defs>
        <path id="DejaVuSans-33" d="M 2597 2516 
Q 3050 2419 3304 2112 
Q 3559 1806 3559 1356 
Q 3559 666 3084 287 
Q 2609 -91 1734 -91 
Q 1441 -91 1130 -33 
Q 819 25 488 141 
L 488 750 
Q 750 597 1062 519 
Q 1375 441 1716 441 
Q 2309 441 2620 675 
Q 2931 909 2931 1356 
Q 2931 1769 2642 2001 
Q 2353 2234 1838 2234 
L 1294 2234 
L 1294 2753 
L 1863 2753 
Q 2328 2753 2575 2939 
Q 2822 3125 2822 3475 
Q 2822 3834 2567 4026 
Q 2313 4219 1838 4219 
Q 1578 4219 1281 4162 
Q 984 4106 628 3988 
L 628 4550 
Q 988 4650 1302 4700 
Q 1616 4750 1894 4750 
Q 2613 4750 3031 4423 
Q 3450 4097 3450 3541 
Q 3450 3153 3228 2886 
Q 3006 2619 2597 2516 
z
" transform="scale(0.015625)"/>
       </defs>
       <use xlink:href="#DejaVuSans-30"/>
       <use xlink:href="#DejaVuSans-2e" transform="translate(63.623047 0)"/>
       <use xlink:href="#DejaVuSans-33" transform="translate(95.410156 0)"/>
       <use xlink:href="#DejaVuSans-30" transform="translate(159.033203 0)"/>
      </g>
     </g>
    </g>
    <g id="ytick_4">
     <g id="text_10">
      <!-- 0.35 -->
      <g style="fill: #262626" transform="translate(21.15625 97.59285) scale(0.1 -0.1)">
       <use xlink:href="#DejaVuSans-30"/>
       <use xlink:href="#DejaVuSans-2e" transform="translate(63.623047 0)"/>
       <use xlink:href="#DejaVuSans-33" transform="translate(95.410156 0)"/>
       <use xlink:href="#DejaVuSans-35" transform="translate(159.033203 0)"/>
      </g>
     </g>
    </g>
    <g id="ytick_5">
     <g id="text_11">
      <!-- 0.40 -->
      <g style="fill: #262626" transform="translate(21.15625 76.894247) scale(0.1 -0.1)">
       <defs>
        <path id="DejaVuSans-34" d="M 2419 4116 
L 825 1625 
L 2419 1625 
L 2419 4116 
z
M 2253 4666 
L 3047 4666 
L 3047 1625 
L 3713 1625 
L 3713 1100 
L 3047 1100 
L 3047 0 
L 2419 0 
L 2419 1100 
L 313 1100 
L 313 1709 
L 2253 4666 
z
" transform="scale(0.015625)"/>
       </defs>
       <use xlink:href="#DejaVuSans-30"/>
       <use xlink:href="#DejaVuSans-2e" transform="translate(63.623047 0)"/>
       <use xlink:href="#DejaVuSans-34" transform="translate(95.410156 0)"/>
       <use xlink:href="#DejaVuSans-30" transform="translate(159.033203 0)"/>
      </g>
     </g>
    </g>
    <g id="ytick_6">
     <g id="text_12">
      <!-- 0.45 -->
      <g style="fill: #262626" transform="translate(21.15625 56.195644) scale(0.1 -0.1)">
       <use xlink:href="#DejaVuSans-30"/>
       <use xlink:href="#DejaVuSans-2e" transform="translate(63.623047 0)"/>
       <use xlink:href="#DejaVuSans-34" transform="translate(95.410156 0)"/>
       <use xlink:href="#DejaVuSans-35" transform="translate(159.033203 0)"/>
      </g>
     </g>
    </g>
    <g id="ytick_7">
     <g id="text_13">
      <!-- 0.50 -->
      <g style="fill: #262626" transform="translate(21.15625 35.497041) scale(0.1 -0.1)">
       <use xlink:href="#DejaVuSans-30"/>
       <use xlink:href="#DejaVuSans-2e" transform="translate(63.623047 0)"/>
       <use xlink:href="#DejaVuSans-35" transform="translate(95.410156 0)"/>
       <use xlink:href="#DejaVuSans-30" transform="translate(159.033203 0)"/>
      </g>
     </g>
    </g>
    <g id="ytick_8">
     <g id="text_14">
      <!-- 0.55 -->
      <g style="fill: #262626" transform="translate(21.15625 14.798437) scale(0.1 -0.1)">
       <use xlink:href="#DejaVuSans-30"/>
       <use xlink:href="#DejaVuSans-2e" transform="translate(63.623047 0)"/>
       <use xlink:href="#DejaVuSans-35" transform="translate(95.410156 0)"/>
       <use xlink:href="#DejaVuSans-35" transform="translate(159.033203 0)"/>
      </g>
     </g>
    </g>
    <g id="text_15">
     <!-- train_dtf -->
     <g style="fill: #262626" transform="translate(14.798437 110.69436) rotate(-90) scale(0.1 -0.1)">
      <defs>
       <path id="DejaVuSans-74" d="M 1172 4494 
L 1172 3500 
L 2356 3500 
L 2356 3053 
L 1172 3053 
L 1172 1153 
Q 1172 725 1289 603 
Q 1406 481 1766 481 
L 2356 481 
L 2356 0 
L 1766 0 
Q 1100 0 847 248 
Q 594 497 594 1153 
L 594 3053 
L 172 3053 
L 172 3500 
L 594 3500 
L 594 4494 
L 1172 4494 
z
" transform="scale(0.015625)"/>
       <path id="DejaVuSans-69" d="M 603 3500 
L 1178 3500 
L 1178 0 
L 603 0 
L 603 3500 
z
M 603 4863 
L 1178 4863 
L 1178 4134 
L 603 4134 
L 603 4863 
z
" transform="scale(0.015625)"/>
       <path id="DejaVuSans-6e" d="M 3513 2113 
L 3513 0 
L 2938 0 
L 2938 2094 
Q 2938 2591 2744 2837 
Q 2550 3084 2163 3084 
Q 1697 3084 1428 2787 
Q 1159 2491 1159 1978 
L 1159 0 
L 581 0 
L 581 3500 
L 1159 3500 
L 1159 2956 
Q 1366 3272 1645 3428 
Q 1925 3584 2291 3584 
Q 2894 3584 3203 3211 
Q 3513 2838 3513 2113 
z
" transform="scale(0.015625)"/>
       <path id="DejaVuSans-5f" d="M 3263 -1063 
L 3263 -1509 
L -63 -1509 
L -63 -1063 
L 3263 -1063 
z
" transform="scale(0.015625)"/>
       <path id="DejaVuSans-66" d="M 2375 4863 
L 2375 4384 
L 1825 4384 
Q 1516 4384 1395 4259 
Q 1275 4134 1275 3809 
L 1275 3500 
L 2222 3500 
L 2222 3053 
L 1275 3053 
L 1275 0 
L 697 0 
L 697 3053 
L 147 3053 
L 147 3500 
L 697 3500 
L 697 3744 
Q 697 4328 969 4595 
Q 1241 4863 1831 4863 
L 2375 4863 
z
" transform="scale(0.015625)"/>
      </defs>
      <use xlink:href="#DejaVuSans-74"/>
      <use xlink:href="#DejaVuSans-72" transform="translate(39.208984 0)"/>
      <use xlink:href="#DejaVuSans-61" transform="translate(80.322266 0)"/>
      <use xlink:href="#DejaVuSans-69" transform="translate(141.601562 0)"/>
      <use xlink:href="#DejaVuSans-6e" transform="translate(169.384766 0)"/>
      <use xlink:href="#DejaVuSans-5f" transform="translate(232.763672 0)"/>
      <use xlink:href="#DejaVuSans-64" transform="translate(282.763672 0)"/>
      <use xlink:href="#DejaVuSans-74" transform="translate(346.240234 0)"/>
      <use xlink:href="#DejaVuSans-66" transform="translate(385.449219 0)"/>
     </g>
    </g>
   </g>
   <g id="line2d_1">
    <path d="M 62.529879 97.373096 
L 63.530541 22.189074 
L 64.531202 163.738835 
L 65.531864 93.69448 
L 66.532525 91.163085 
L 67.533187 110.365462 
L 68.533848 89.320563 
L 69.53451 85.543192 
L 70.535171 163.693316 
L 71.535833 94.547191 
L 72.536494 89.822132 
L 74.537817 106.792872 
L 75.538478 88.193985 
L 76.53914 162.415844 
L 77.539801 85.05974 
L 78.540463 97.586103 
L 79.541124 114.222365 
L 80.541786 98.534944 
L 81.542447 104.511853 
L 82.543109 163.296164 
L 83.54377 91.417226 
L 84.544432 79.851987 
L 85.545093 81.545773 
L 86.545755 94.283594 
L 87.546416 91.313867 
L 88.547078 163.958625 
L 89.547739 86.305443 
L 90.548401 86.818824 
L 91.549062 19.072366 
L 92.549724 89.059594 
L 93.550385 99.686436 
L 94.551047 163.819229 
L 95.551708 109.108778 
L 96.55237 95.483844 
L 97.553031 92.960782 
L 98.553693 79.702575 
L 99.554354 98.959577 
L 100.555016 162.202304 
L 101.555677 86.913636 
L 102.556339 95.971917 
L 103.557 83.717122 
L 104.557662 106.431667 
L 105.558323 94.875888 
L 106.558985 163.930559 
L 107.559646 99.694719 
L 108.560308 96.414065 
L 109.560969 86.759429 
L 110.561631 98.693381 
L 111.562292 97.496511 
L 112.562954 163.611192 
L 113.563615 110.82717 
L 114.564277 97.820751 
L 115.564938 88.43098 
L 116.5656 98.416106 
L 117.566261 85.547972 
L 118.566923 102.369715 
L 119.567584 97.963681 
L 120.568246 81.45615 
L 121.568907 86.235606 
L 122.569569 83.758654 
L 123.57023 101.573778 
L 124.570892 162.93714 
L 125.571553 107.403203 
L 126.572215 106.436126 
L 127.572876 87.74799 
L 128.573538 106.783519 
L 129.574199 84.17672 
L 130.574861 162.636129 
L 131.575522 81.536336 
L 132.576184 88.974679 
L 133.576845 88.469362 
L 134.577507 91.251387 
L 135.578168 93.669507 
L 136.57883 163.601708 
L 137.579491 89.359562 
L 138.580153 97.416451 
L 139.580814 84.960985 
L 140.581476 93.028716 
L 141.582137 91.106444 
L 142.582799 163.856708 
L 143.58346 91.078387 
L 144.584122 92.874409 
L 145.584783 15.313532 
L 146.585445 85.842387 
L 147.586106 96.630557 
L 148.586768 163.434183 
L 149.587429 87.766617 
L 150.588091 95.844687 
L 151.588752 83.557824 
L 152.589414 97.826435 
L 153.590075 85.729567 
L 154.590737 162.896715 
L 155.591398 88.838048 
L 156.592059 81.165236 
L 157.592721 97.195855 
L 158.593382 76.766141 
L 159.594044 92.510994 
L 160.594705 163.079785 
L 161.595367 83.4658 
L 162.596028 87.148733 
L 163.59669 89.161951 
L 164.597351 83.983697 
L 165.598013 88.852689 
L 166.598674 163.161727 
L 167.599336 90.942258 
L 168.599997 92.16684 
L 169.600659 71.541082 
L 170.60132 105.220739 
L 171.601982 101.483869 
L 172.602643 162.891974 
L 173.603305 28.727413 
L 174.603966 86.511463 
L 175.604628 106.122403 
L 176.605289 91.36643 
L 177.605951 88.070925 
L 178.606612 163.415569 
L 179.607274 86.42123 
L 180.607935 90.362211 
L 181.608597 91.688183 
L 182.609258 96.57552 
L 183.60992 88.709946 
L 184.610581 163.940505 
L 185.611243 88.351366 
L 186.611904 112.079995 
L 187.612566 82.754136 
L 188.613227 91.967218 
L 189.613889 82.687262 
L 190.61455 163.334736 
L 191.615212 87.412116 
L 192.615873 128.938694 
L 193.616535 115.160668 
L 194.617196 89.87123 
L 195.617858 91.980631 
L 196.618519 162.735138 
L 197.619181 108.199116 
L 198.619842 115.520012 
L 199.620504 115.522488 
L 200.621165 97.618928 
L 201.621827 140.09454 
L 202.622488 163.961591 
L 203.62315 148.121606 
L 204.623811 100.220005 
L 205.624473 116.975857 
L 206.625134 103.19639 
L 207.625796 95.097347 
L 208.626457 162.194097 
L 209.627119 82.60501 
L 210.62778 90.842106 
L 211.628442 97.674239 
L 212.629103 101.063781 
L 213.629765 99.627865 
L 214.630426 162.993237 
L 215.631088 93.609952 
L 216.631749 81.593821 
L 218.633072 130.480283 
L 219.633734 122.356189 
L 220.634395 162.697704 
L 221.635057 147.584217 
L 222.635718 141.617879 
L 223.63638 109.628599 
L 224.637041 97.426266 
L 225.637703 95.717503 
L 226.638364 162.81682 
L 227.639026 92.272838 
L 228.639687 49.065517 
L 229.640349 113.115124 
L 230.64101 101.217208 
L 231.641672 108.198671 
L 232.642333 162.995319 
L 233.642995 89.888683 
L 234.643656 96.159019 
L 235.644318 109.979724 
L 236.644979 84.495718 
L 237.64564 81.616856 
L 238.646302 160.566857 
L 239.646963 90.571483 
L 240.647625 108.681861 
L 241.648286 103.202844 
L 242.648948 90.256354 
L 243.649609 98.302976 
L 244.650271 162.634464 
L 245.650932 84.084375 
L 246.651594 97.979515 
L 247.652255 99.019064 
L 248.652917 89.320171 
L 249.653578 72.410377 
L 250.65424 164.011125 
L 251.654901 99.548523 
L 252.655563 92.316137 
L 253.656224 95.188118 
L 254.656886 90.630145 
L 255.657547 54.008804 
L 256.658209 162.906928 
L 257.65887 98.660618 
L 258.659532 95.969857 
L 259.660193 96.295704 
L 260.660855 106.426419 
L 261.661516 142.412047 
L 262.662178 163.419947 
L 263.662839 146.64692 
L 264.663501 139.775941 
L 265.664162 147.801981 
L 266.664824 141.374853 
L 267.665485 140.884932 
L 268.666147 163.494817 
L 269.666808 145.255141 
L 270.66747 138.408857 
L 271.668131 137.302101 
L 272.668793 96.242246 
L 273.669454 94.215199 
L 274.670116 163.278576 
L 275.670777 92.334017 
L 276.671439 84.980861 
L 277.6721 93.177992 
L 278.672762 91.875551 
L 279.673423 91.3227 
L 280.674085 163.769459 
L 281.674746 90.491686 
L 282.675408 73.307386 
L 283.676069 79.642609 
L 284.676731 91.89341 
L 285.677392 89.271692 
L 286.678054 162.773681 
L 287.678715 89.28161 
L 288.679377 92.268352 
L 289.680038 88.465577 
L 290.6807 108.833167 
L 291.681361 110.982603 
L 292.682023 163.959786 
L 293.682684 91.683362 
L 294.683346 105.093097 
L 295.684007 155.024519 
L 296.684669 140.237676 
L 297.68533 120.032298 
L 298.685992 163.541367 
L 299.686653 98.201652 
L 300.687315 146.13283 
L 301.687976 145.235332 
L 302.688638 125.077008 
L 303.689299 78.68016 
L 304.689961 159.833382 
L 304.689961 159.833382 
" clip-path="url(#p3a1b1a1b8c)" style="fill: none; stroke: #8b2be2; stroke-width: 1.5; stroke-linecap: round"/>
   </g>
  </g>
 </g>
 <defs>
  <clipPath id="p3a1b1a1b8c">
   <rect x="50.421875" y="7.878653" width="266.37609" height="163.567352"/>
  </clipPath>
 </defs>
</svg>
