<?xml version="1.0" encoding="utf-8" standalone="no"?>
<!DOCTYPE svg PUBLIC "-//W3C//DTD SVG 1.1//EN"
  "http://www.w3.org/Graphics/SVG/1.1/DTD/svg11.dtd">
<svg xmlns:xlink="http://www.w3.org/1999/xlink" width="330.360465pt" height="208.323602pt" viewBox="0 0 330.360465 208.323602" xmlns="http://www.w3.org/2000/svg" version="1.1">
 <metadata>
  <rdf:RDF xmlns:dc="http://purl.org/dc/elements/1.1/" xmlns:cc="http://creativecommons.org/ns#" xmlns:rdf="http://www.w3.org/1999/02/22-rdf-syntax-ns#">
   <cc:Work>
    <dc:type rdf:resource="http://purl.org/dc/dcmitype/StillImage"/>
    <dc:date>2025-11-25T18:53:36.169995</dc:date>
    <dc:format>image/svg+xml</dc:format>
    <dc:creator>
     <cc:Agent>
      <dc:title>Matplotlib v3.10.6, https://matplotlib.org/</dc:title>
     </cc:Agent>
    </dc:creator>
   </cc:Work>
  </rdf:RDF>
 </metadata>
 <defs>
  <style type="text/css">*{stroke-linejoin: round; stroke-linecap: butt}</style>
 </defs>
 <g id="figure_1">
  <g id="patch_1">
   <path d="M 0 208.323602 
L 330.360465 208.323602 
L 330.360465 0 
L 0 0 
L 0 208.323602 
z
" style="fill: none"/>
  </g>
  <g id="axes_1">
   <g id="patch_2">
    <path d="M 56.784375 170.767352 
L 323.160465 170.767352 
L 323.160465 7.2 
L 56.784375 7.2 
L 56.784375 170.767352 
z
" style="fill: none"/>
   </g>
   <g id="matplotlib.axis_1">
    <g id="xtick_1">
     <g id="text_1">
      <!-- 50 -->
      <g style="fill: #262626" transform="translate(85.545093 185.365789) scale(0.1 -0.1)">
       <defs>
        <path id="DejaVuSans-35" d="M 691 4666 
L 3169 4666 
L 3169 4134 
L 1269 4134 
L 1269 2991 
Q 1406 3038 1543 3061 
Q 1681 3084 1819 3084 
Q 2600 3084 3056 2656 
Q 3513 2228 3513 1497 
Q 3513 744 3044 326 
Q 2575 -91 1722 -91 
Q 1428 -91 1123 -41 
Q 819 9 494 109 
L 494 744 
Q 775 591 1075 516 
Q 1375 441 1709 441 
Q 2250 441 2565 725 
Q 2881 1009 2881 1497 
Q 2881 1984 2565 2268 
Q 2250 2553 1709 2553 
Q 1456 2553 1204 2497 
Q 953 2441 691 2322 
L 691 4666 
z
" transform="scale(0.015625)"/>
        <path id="DejaVuSans-30" d="M 2034 4250 
Q 1547 4250 1301 3770 
Q 1056 3291 1056 2328 
Q 1056 1369 1301 889 
Q 1547 409 2034 409 
Q 2525 409 2770 889 
Q 3016 1369 3016 2328 
Q 3016 3291 2770 3770 
Q 2525 4250 2034 4250 
z
M 2034 4750 
Q 2819 4750 3233 4129 
Q 3647 3509 3647 2328 
Q 3647 1150 3233 529 
Q 2819 -91 2034 -91 
Q 1250 -91 836 529 
Q 422 1150 422 2328 
Q 422 3509 836 4129 
Q 1250 4750 2034 4750 
z
" transform="scale(0.015625)"/>
       </defs>
       <use xlink:href="#DejaVuSans-35"/>
       <use xlink:href="#DejaVuSans-30" transform="translate(63.623047 0)"/>
      </g>
     </g>
    </g>
    <g id="xtick_2">
     <g id="text_2">
      <!-- 100 -->
      <g style="fill: #262626" transform="translate(132.396918 185.365789) scale(0.1 -0.1)">
       <defs>
        <path id="DejaVuSans-31" d="M 794 531 
L 1825 531 
L 1825 4091 
L 703 3866 
L 703 4441 
L 1819 4666 
L 2450 4666 
L 2450 531 
L 3481 531 
L 3481 0 
L 794 0 
L 794 531 
z
" transform="scale(0.015625)"/>
       </defs>
       <use xlink:href="#DejaVuSans-31"/>
       <use xlink:href="#DejaVuSans-30" transform="translate(63.623047 0)"/>
       <use xlink:href="#DejaVuSans-30" transform="translate(127.246094 0)"/>
      </g>
     </g>
    </g>
    <g id="xtick_3">
     <g id="text_3">
      <!-- 150 -->
      <g style="fill: #262626" transform="translate(182.429993 185.365789) scale(0.1 -0.1)">
       <use xlink:href="#DejaVuSans-31"/>
       <use xlink:href="#DejaVuSans-35" transform="translate(63.623047 0)"/>
       <use xlink:href="#DejaVuSans-30" transform="translate(127.246094 0)"/>
      </g>
     </g>
    </g>
    <g id="xtick_4">
     <g id="text_4">
      <!-- 200 -->
      <g style="fill: #262626" transform="translate(232.463068 185.365789) scale(0.1 -0.1)">
       <defs>
        <path id="DejaVuSans-32" d="M 1228 531 
L 3431 531 
L 3431 0 
L 469 0 
L 469 531 
Q 828 903 1448 1529 
Q 2069 2156 2228 2338 
Q 2531 2678 2651 2914 
Q 2772 3150 2772 3378 
Q 2772 3750 2511 3984 
Q 2250 4219 1831 4219 
Q 1534 4219 1204 4116 
Q 875 4013 500 3803 
L 500 4441 
Q 881 4594 1212 4672 
Q 1544 4750 1819 4750 
Q 2544 4750 2975 4387 
Q 3406 4025 3406 3419 
Q 3406 3131 3298 2873 
Q 3191 2616 2906 2266 
Q 2828 2175 2409 1742 
Q 1991 1309 1228 531 
z
" transform="scale(0.015625)"/>
       </defs>
       <use xlink:href="#DejaVuSans-32"/>
       <use xlink:href="#DejaVuSans-30" transform="translate(63.623047 0)"/>
       <use xlink:href="#DejaVuSans-30" transform="translate(127.246094 0)"/>
      </g>
     </g>
    </g>
    <g id="xtick_5">
     <g id="text_5">
      <!-- 250 -->
      <g style="fill: #262626" transform="translate(282.496142 185.365789) scale(0.1 -0.1)">
       <use xlink:href="#DejaVuSans-32"/>
       <use xlink:href="#DejaVuSans-35" transform="translate(63.623047 0)"/>
       <use xlink:href="#DejaVuSans-30" transform="translate(127.246094 0)"/>
      </g>
     </g>
    </g>
    <g id="text_6">
     <!-- draw -->
     <g style="fill: #262626" transform="translate(177.589607 199.043914) scale(0.1 -0.1)">
      <defs>
       <path id="DejaVuSans-64" d="M 2906 2969 
L 2906 4863 
L 3481 4863 
L 3481 0 
L 2906 0 
L 2906 525 
Q 2725 213 2448 61 
Q 2172 -91 1784 -91 
Q 1150 -91 751 415 
Q 353 922 353 1747 
Q 353 2572 751 3078 
Q 1150 3584 1784 3584 
Q 2172 3584 2448 3432 
Q 2725 3281 2906 2969 
z
M 947 1747 
Q 947 1113 1208 752 
Q 1469 391 1925 391 
Q 2381 391 2643 752 
Q 2906 1113 2906 1747 
Q 2906 2381 2643 2742 
Q 2381 3103 1925 3103 
Q 1469 3103 1208 2742 
Q 947 2381 947 1747 
z
" transform="scale(0.015625)"/>
       <path id="DejaVuSans-72" d="M 2631 2963 
Q 2534 3019 2420 3045 
Q 2306 3072 2169 3072 
Q 1681 3072 1420 2755 
Q 1159 2438 1159 1844 
L 1159 0 
L 581 0 
L 581 3500 
L 1159 3500 
L 1159 2956 
Q 1341 3275 1631 3429 
Q 1922 3584 2338 3584 
Q 2397 3584 2469 3576 
Q 2541 3569 2628 3553 
L 2631 2963 
z
" transform="scale(0.015625)"/>
       <path id="DejaVuSans-61" d="M 2194 1759 
Q 1497 1759 1228 1600 
Q 959 1441 959 1056 
Q 959 750 1161 570 
Q 1363 391 1709 391 
Q 2188 391 2477 730 
Q 2766 1069 2766 1631 
L 2766 1759 
L 2194 1759 
z
M 3341 1997 
L 3341 0 
L 2766 0 
L 2766 531 
Q 2569 213 2275 61 
Q 1981 -91 1556 -91 
Q 1019 -91 701 211 
Q 384 513 384 1019 
Q 384 1609 779 1909 
Q 1175 2209 1959 2209 
L 2766 2209 
L 2766 2266 
Q 2766 2663 2505 2880 
Q 2244 3097 1772 3097 
Q 1472 3097 1187 3025 
Q 903 2953 641 2809 
L 641 3341 
Q 956 3463 1253 3523 
Q 1550 3584 1831 3584 
Q 2591 3584 2966 3190 
Q 3341 2797 3341 1997 
z
" transform="scale(0.015625)"/>
       <path id="DejaVuSans-77" d="M 269 3500 
L 844 3500 
L 1563 769 
L 2278 3500 
L 2956 3500 
L 3675 769 
L 4391 3500 
L 4966 3500 
L 4050 0 
L 3372 0 
L 2619 2869 
L 1863 0 
L 1184 0 
L 269 3500 
z
" transform="scale(0.015625)"/>
      </defs>
      <use xlink:href="#DejaVuSans-64"/>
      <use xlink:href="#DejaVuSans-72" transform="translate(63.476562 0)"/>
      <use xlink:href="#DejaVuSans-61" transform="translate(104.589844 0)"/>
      <use xlink:href="#DejaVuSans-77" transform="translate(165.869141 0)"/>
     </g>
    </g>
   </g>
   <g id="matplotlib.axis_2">
    <g id="ytick_1">
     <g id="text_7">
      <!-- 0.275 -->
      <g style="fill: #262626" transform="translate(21.15625 164.8954) scale(0.1 -0.1)">
       <defs>
        <path id="DejaVuSans-2e" d="M 684 794 
L 1344 794 
L 1344 0 
L 684 0 
L 684 794 
z
" transform="scale(0.015625)"/>
        <path id="DejaVuSans-37" d="M 525 4666 
L 3525 4666 
L 3525 4397 
L 1831 0 
L 1172 0 
L 2766 4134 
L 525 4134 
L 525 4666 
z
" transform="scale(0.015625)"/>
       </defs>
       <use xlink:href="#DejaVuSans-30"/>
       <use xlink:href="#DejaVuSans-2e" transform="translate(63.623047 0)"/>
       <use xlink:href="#DejaVuSans-32" transform="translate(95.410156 0)"/>
       <use xlink:href="#DejaVuSans-37" transform="translate(159.033203 0)"/>
       <use xlink:href="#DejaVuSans-35" transform="translate(222.65625 0)"/>
      </g>
     </g>
    </g>
    <g id="ytick_2">
     <g id="text_8">
      <!-- 0.300 -->
      <g style="fill: #262626" transform="translate(21.15625 141.836767) scale(0.1 -0.1)">
       <defs>
        <path id="DejaVuSans-33" d="M 2597 2516 
Q 3050 2419 3304 2112 
Q 3559 1806 3559 1356 
Q 3559 666 3084 287 
Q 2609 -91 1734 -91 
Q 1441 -91 1130 -33 
Q 819 25 488 141 
L 488 750 
Q 750 597 1062 519 
Q 1375 441 1716 441 
Q 2309 441 2620 675 
Q 2931 909 2931 1356 
Q 2931 1769 2642 2001 
Q 2353 2234 1838 2234 
L 1294 2234 
L 1294 2753 
L 1863 2753 
Q 2328 2753 2575 2939 
Q 2822 3125 2822 3475 
Q 2822 3834 2567 4026 
Q 2313 4219 1838 4219 
Q 1578 4219 1281 4162 
Q 984 4106 628 3988 
L 628 4550 
Q 988 4650 1302 4700 
Q 1616 4750 1894 4750 
Q 2613 4750 3031 4423 
Q 3450 4097 3450 3541 
Q 3450 3153 3228 2886 
Q 3006 2619 2597 2516 
z
" transform="scale(0.015625)"/>
       </defs>
       <use xlink:href="#DejaVuSans-30"/>
       <use xlink:href="#DejaVuSans-2e" transform="translate(63.623047 0)"/>
       <use xlink:href="#DejaVuSans-33" transform="translate(95.410156 0)"/>
       <use xlink:href="#DejaVuSans-30" transform="translate(159.033203 0)"/>
       <use xlink:href="#DejaVuSans-30" transform="translate(222.65625 0)"/>
      </g>
     </g>
    </g>
    <g id="ytick_3">
     <g id="text_9">
      <!-- 0.325 -->
      <g style="fill: #262626" transform="translate(21.15625 118.778133) scale(0.1 -0.1)">
       <use xlink:href="#DejaVuSans-30"/>
       <use xlink:href="#DejaVuSans-2e" transform="translate(63.623047 0)"/>
       <use xlink:href="#DejaVuSans-33" transform="translate(95.410156 0)"/>
       <use xlink:href="#DejaVuSans-32" transform="translate(159.033203 0)"/>
       <use xlink:href="#DejaVuSans-35" transform="translate(222.65625 0)"/>
      </g>
     </g>
    </g>
    <g id="ytick_4">
     <g id="text_10">
      <!-- 0.350 -->
      <g style="fill: #262626" transform="translate(21.15625 95.7195) scale(0.1 -0.1)">
       <use xlink:href="#DejaVuSans-30"/>
       <use xlink:href="#DejaVuSans-2e" transform="translate(63.623047 0)"/>
       <use xlink:href="#DejaVuSans-33" transform="translate(95.410156 0)"/>
       <use xlink:href="#DejaVuSans-35" transform="translate(159.033203 0)"/>
       <use xlink:href="#DejaVuSans-30" transform="translate(222.65625 0)"/>
      </g>
     </g>
    </g>
    <g id="ytick_5">
     <g id="text_11">
      <!-- 0.375 -->
      <g style="fill: #262626" transform="translate(21.15625 72.660867) scale(0.1 -0.1)">
       <use xlink:href="#DejaVuSans-30"/>
       <use xlink:href="#DejaVuSans-2e" transform="translate(63.623047 0)"/>
       <use xlink:href="#DejaVuSans-33" transform="translate(95.410156 0)"/>
       <use xlink:href="#DejaVuSans-37" transform="translate(159.033203 0)"/>
       <use xlink:href="#DejaVuSans-35" transform="translate(222.65625 0)"/>
      </g>
     </g>
    </g>
    <g id="ytick_6">
     <g id="text_12">
      <!-- 0.400 -->
      <g style="fill: #262626" transform="translate(21.15625 49.602233) scale(0.1 -0.1)">
       <defs>
        <path id="DejaVuSans-34" d="M 2419 4116 
L 825 1625 
L 2419 1625 
L 2419 4116 
z
M 2253 4666 
L 3047 4666 
L 3047 1625 
L 3713 1625 
L 3713 1100 
L 3047 1100 
L 3047 0 
L 2419 0 
L 2419 1100 
L 313 1100 
L 313 1709 
L 2253 4666 
z
" transform="scale(0.015625)"/>
       </defs>
       <use xlink:href="#DejaVuSans-30"/>
       <use xlink:href="#DejaVuSans-2e" transform="translate(63.623047 0)"/>
       <use xlink:href="#DejaVuSans-34" transform="translate(95.410156 0)"/>
       <use xlink:href="#DejaVuSans-30" transform="translate(159.033203 0)"/>
       <use xlink:href="#DejaVuSans-30" transform="translate(222.65625 0)"/>
      </g>
     </g>
    </g>
    <g id="ytick_7">
     <g id="text_13">
      <!-- 0.425 -->
      <g style="fill: #262626" transform="translate(21.15625 26.5436) scale(0.1 -0.1)">
       <use xlink:href="#DejaVuSans-30"/>
       <use xlink:href="#DejaVuSans-2e" transform="translate(63.623047 0)"/>
       <use xlink:href="#DejaVuSans-34" transform="translate(95.410156 0)"/>
       <use xlink:href="#DejaVuSans-32" transform="translate(159.033203 0)"/>
       <use xlink:href="#DejaVuSans-35" transform="translate(222.65625 0)"/>
      </g>
     </g>
    </g>
    <g id="text_14">
     <!-- train_dtb -->
     <g style="fill: #262626" transform="translate(14.798438 111.42977) rotate(-90) scale(0.1 -0.1)">
      <defs>
       <path id="DejaVuSans-74" d="M 1172 4494 
L 1172 3500 
L 2356 3500 
L 2356 3053 
L 1172 3053 
L 1172 1153 
Q 1172 725 1289 603 
Q 1406 481 1766 481 
L 2356 481 
L 2356 0 
L 1766 0 
Q 1100 0 847 248 
Q 594 497 594 1153 
L 594 3053 
L 172 3053 
L 172 3500 
L 594 3500 
L 594 4494 
L 1172 4494 
z
" transform="scale(0.015625)"/>
       <path id="DejaVuSans-69" d="M 603 3500 
L 1178 3500 
L 1178 0 
L 603 0 
L 603 3500 
z
M 603 4863 
L 1178 4863 
L 1178 4134 
L 603 4134 
L 603 4863 
z
" transform="scale(0.015625)"/>
       <path id="DejaVuSans-6e" d="M 3513 2113 
L 3513 0 
L 2938 0 
L 2938 2094 
Q 2938 2591 2744 2837 
Q 2550 3084 2163 3084 
Q 1697 3084 1428 2787 
Q 1159 2491 1159 1978 
L 1159 0 
L 581 0 
L 581 3500 
L 1159 3500 
L 1159 2956 
Q 1366 3272 1645 3428 
Q 1925 3584 2291 3584 
Q 2894 3584 3203 3211 
Q 3513 2838 3513 2113 
z
" transform="scale(0.015625)"/>
       <path id="DejaVuSans-5f" d="M 3263 -1063 
L 3263 -1509 
L -63 -1509 
L -63 -1063 
L 3263 -1063 
z
" transform="scale(0.015625)"/>
       <path id="DejaVuSans-62" d="M 3116 1747 
Q 3116 2381 2855 2742 
Q 2594 3103 2138 3103 
Q 1681 3103 1420 2742 
Q 1159 2381 1159 1747 
Q 1159 1113 1420 752 
Q 1681 391 2138 391 
Q 2594 391 2855 752 
Q 3116 1113 3116 1747 
z
M 1159 2969 
Q 1341 3281 1617 3432 
Q 1894 3584 2278 3584 
Q 2916 3584 3314 3078 
Q 3713 2572 3713 1747 
Q 3713 922 3314 415 
Q 2916 -91 2278 -91 
Q 1894 -91 1617 61 
Q 1341 213 1159 525 
L 1159 0 
L 581 0 
L 581 4863 
L 1159 4863 
L 1159 2969 
z
" transform="scale(0.015625)"/>
      </defs>
      <use xlink:href="#DejaVuSans-74"/>
      <use xlink:href="#DejaVuSans-72" transform="translate(39.208984 0)"/>
      <use xlink:href="#DejaVuSans-61" transform="translate(80.322266 0)"/>
      <use xlink:href="#DejaVuSans-69" transform="translate(141.601562 0)"/>
      <use xlink:href="#DejaVuSans-6e" transform="translate(169.384766 0)"/>
      <use xlink:href="#DejaVuSans-5f" transform="translate(232.763672 0)"/>
      <use xlink:href="#DejaVuSans-64" transform="translate(282.763672 0)"/>
      <use xlink:href="#DejaVuSans-74" transform="translate(346.240234 0)"/>
      <use xlink:href="#DejaVuSans-62" transform="translate(385.449219 0)"/>
     </g>
    </g>
   </g>
   <g id="line2d_1">
    <path d="M 68.892379 147.855265 
L 69.893041 155.626311 
L 70.893702 160.055888 
L 71.894364 151.556161 
L 72.895025 155.069399 
L 73.895687 115.454244 
L 74.896348 149.744456 
L 75.89701 154.694732 
L 76.897671 160.229126 
L 77.898333 140.156667 
L 78.898994 155.83239 
L 79.899656 144.449176 
L 80.900317 121.585767 
L 81.900978 149.853182 
L 82.90164 154.720716 
L 83.902301 151.126846 
L 84.902963 127.200851 
L 85.903624 107.593369 
L 86.904286 135.035671 
L 87.904947 142.852248 
L 88.905609 154.156256 
L 89.90627 150.072449 
L 90.906932 154.451061 
L 91.907593 151.542709 
L 92.908255 149.925355 
L 93.908916 150.396105 
L 94.909578 154.44353 
L 95.910239 149.270809 
L 96.910901 149.663179 
L 97.911562 152.700153 
L 98.912224 154.472028 
L 99.912885 147.710897 
L 100.913547 159.679282 
L 101.914208 116.146788 
L 102.91487 142.965419 
L 103.915531 149.294558 
L 104.916193 148.941378 
L 105.916854 124.40314 
L 106.917516 153.561413 
L 107.918177 148.87916 
L 108.918839 142.093089 
L 109.9195 156.854252 
L 110.920162 152.426618 
L 111.920823 157.856952 
L 112.921485 159.787305 
L 113.922146 147.989328 
L 114.922808 151.9208 
L 115.923469 148.298808 
L 116.924131 155.086248 
L 117.924792 148.303965 
L 118.925454 161.348669 
L 119.926115 122.651723 
L 120.926777 144.571425 
L 121.927438 157.027294 
L 122.9281 152.48526 
L 123.928761 155.797052 
L 124.929423 158.651781 
L 125.930084 145.082019 
L 126.930746 156.17613 
L 127.931407 150.059179 
L 128.932069 148.622934 
L 129.93273 141.174622 
L 130.933392 160.155383 
L 131.934053 124.783701 
L 132.934715 144.16869 
L 133.935376 154.576658 
L 134.936038 119.11682 
L 135.936699 149.002535 
L 136.937361 153.772111 
L 137.938022 149.311619 
L 138.938684 149.534831 
L 139.939345 152.328374 
L 140.940007 149.333252 
L 141.940668 149.161032 
L 142.94133 155.185013 
L 143.941991 149.803496 
L 144.942653 135.509108 
L 145.943314 149.806656 
L 146.943976 154.888164 
L 147.944637 154.980359 
L 148.945299 150.227498 
L 149.94596 152.01124 
L 150.946622 150.878047 
L 151.947283 156.990489 
L 152.947945 46.722211 
L 153.948606 158.654675 
L 154.949268 163.332472 
L 155.949929 158.815538 
L 156.950591 151.978584 
L 157.951252 152.317331 
L 158.951914 151.990467 
L 159.952575 151.189155 
L 160.953237 156.870665 
L 161.953898 148.613482 
L 162.954559 144.405077 
L 163.955221 147.032038 
L 164.955882 151.463966 
L 165.956544 152.523565 
L 166.957205 156.867939 
L 167.957867 156.807337 
L 168.958528 150.70543 
L 169.95919 156.297515 
L 170.959851 157.855062 
L 171.960513 152.11676 
L 172.961174 156.566312 
L 173.961836 152.794246 
L 174.962497 151.418964 
L 175.963159 152.35591 
L 176.96382 106.125083 
L 178.965143 156.338055 
L 179.965805 155.534434 
L 180.966466 157.449791 
L 181.967128 138.626401 
L 182.967789 151.678656 
L 183.968451 151.38274 
L 184.969112 156.414847 
L 185.969774 152.00358 
L 186.970435 156.697346 
L 187.971097 155.14549 
L 188.971758 157.860907 
L 189.97242 157.274883 
L 190.973081 160.760137 
L 191.973743 151.925021 
L 192.974404 119.733294 
L 193.975066 157.672832 
L 194.975727 152.787981 
L 195.976389 148.590223 
L 196.97705 155.79808 
L 197.977712 152.458624 
L 198.978373 73.565069 
L 200.979696 152.13739 
L 201.980358 151.172653 
L 202.981019 156.211915 
L 204.982342 112.546791 
L 205.983004 98.352518 
L 206.983665 14.63488 
L 207.984327 41.336898 
L 208.984988 161.184971 
L 209.98565 31.237251 
L 210.986311 146.131088 
L 211.986973 94.744873 
L 212.987634 135.207392 
L 213.988296 142.355643 
L 214.988957 154.933108 
L 215.989619 157.089149 
L 216.99028 143.885661 
L 217.990942 144.691999 
L 218.991603 126.830085 
L 219.992265 126.085604 
L 220.992926 155.737303 
L 221.993588 140.69486 
L 222.994249 157.097106 
L 223.994911 116.108761 
L 224.995572 82.780088 
L 225.996234 95.322789 
L 226.996895 156.202593 
L 227.997557 24.211782 
L 228.998218 59.626388 
L 229.99888 121.539372 
L 230.999541 132.787582 
L 232.000203 139.749264 
L 233.000864 153.892776 
L 234.001526 132.117352 
L 235.002187 118.609371 
L 236.002849 97.881127 
L 237.00351 121.134608 
L 238.004172 122.226614 
L 239.004833 151.638931 
L 240.005495 146.900518 
L 241.006156 143.162979 
L 242.006818 108.370248 
L 243.007479 149.453864 
L 244.00814 148.363828 
L 245.008802 145.547562 
L 246.009463 148.976562 
L 247.010125 133.226989 
L 248.010786 135.676905 
L 249.011448 147.66092 
L 250.012109 148.453887 
L 251.012771 152.331756 
L 252.013432 148.791091 
L 253.014094 146.072316 
L 254.014755 145.500426 
L 255.015417 148.588386 
L 256.016078 152.608378 
L 257.01674 158.837544 
L 258.017401 143.664133 
L 259.018063 154.255873 
L 260.018724 148.244686 
L 261.019386 126.039927 
L 262.020047 110.368689 
L 263.020709 161.76212 
L 264.02137 139.019855 
L 265.022032 151.158486 
L 266.022693 140.546056 
L 267.023355 118.951649 
L 268.024016 40.908633 
L 269.024678 161.890242 
L 270.025339 40.756761 
L 271.026001 46.303546 
L 272.026662 41.199716 
L 273.027324 45.895418 
L 274.027985 43.203858 
L 275.028647 161.818331 
L 276.029308 40.29476 
L 277.02997 29.074382 
L 278.030631 39.133884 
L 279.031293 135.942873 
L 280.031954 155.18198 
L 281.032616 161.571077 
L 282.033277 156.600065 
L 283.033939 155.233979 
L 284.0346 149.265927 
L 285.035262 156.205883 
L 286.035923 150.887992 
L 287.036585 159.960739 
L 288.037246 154.609303 
L 289.037908 151.360988 
L 290.038569 46.06664 
L 291.039231 153.619444 
L 292.039892 148.420955 
L 293.040554 153.831263 
L 294.041215 145.599968 
L 295.041877 148.430657 
L 296.042538 152.560789 
L 298.043861 105.041366 
L 299.044523 159.189887 
L 300.045184 156.43729 
L 301.045846 141.253141 
L 302.046507 24.405946 
L 303.047169 43.119255 
L 304.04783 81.191137 
L 305.048492 160.135353 
L 306.049153 136.16419 
L 307.049815 44.33774 
L 308.050476 43.986028 
L 309.051138 76.609041 
L 310.051799 154.50981 
L 311.052461 159.454578 
L 311.052461 159.454578 
" clip-path="url(#pf875e06014)" style="fill: none; stroke: #9f4800; stroke-width: 1.5; stroke-linecap: round"/>
   </g>
  </g>
 </g>
 <defs>
  <clipPath id="pf875e06014">
   <rect x="56.784375" y="7.2" width="266.37609" height="163.567352"/>
  </clipPath>
 </defs>
</svg>
