<?xml version="1.0" encoding="utf-8" standalone="no"?>
<!DOCTYPE svg PUBLIC "-//W3C//DTD SVG 1.1//EN"
  "http://www.w3.org/Graphics/SVG/1.1/DTD/svg11.dtd">
<svg xmlns:xlink="http://www.w3.org/1999/xlink" width="317.635465pt" height="208.323602pt" viewBox="0 0 317.635465 208.323602" xmlns="http://www.w3.org/2000/svg" version="1.1">
 <metadata>
  <rdf:RDF xmlns:dc="http://purl.org/dc/elements/1.1/" xmlns:cc="http://creativecommons.org/ns#" xmlns:rdf="http://www.w3.org/1999/02/22-rdf-syntax-ns#">
   <cc:Work>
    <dc:type rdf:resource="http://purl.org/dc/dcmitype/StillImage"/>
    <dc:date>2025-11-25T18:53:35.797622</dc:date>
    <dc:format>image/svg+xml</dc:format>
    <dc:creator>
     <cc:Agent>
      <dc:title>Matplotlib v3.10.6, https://matplotlib.org/</dc:title>
     </cc:Agent>
    </dc:creator>
   </cc:Work>
  </rdf:RDF>
 </metadata>
 <defs>
  <style type="text/css">*{stroke-linejoin: round; stroke-linecap: butt}</style>
 </defs>
 <g id="figure_1">
  <g id="patch_1">
   <path d="M 0 208.323602 
L 317.635465 208.323602 
L 317.635465 0 
L 0 0 
L 0 208.323602 
z
" style="fill: none"/>
  </g>
  <g id="axes_1">
   <g id="patch_2">
    <path d="M 44.059375 170.767352 
L 310.435465 170.767352 
L 310.435465 7.2 
L 44.059375 7.2 
L 44.059375 170.767352 
z
" style="fill: none"/>
   </g>
   <g id="matplotlib.axis_1">
    <g id="xtick_1">
     <g id="text_1">
      <!-- 50 -->
      <g style="fill: #262626" transform="translate(72.820093 185.365789) scale(0.1 -0.1)">
       <defs>
        <path id="DejaVuSans-35" d="M 691 4666 
L 3169 4666 
L 3169 4134 
L 1269 4134 
L 1269 2991 
Q 1406 3038 1543 3061 
Q 1681 3084 1819 3084 
Q 2600 3084 3056 2656 
Q 3513 2228 3513 1497 
Q 3513 744 3044 326 
Q 2575 -91 1722 -91 
Q 1428 -91 1123 -41 
Q 819 9 494 109 
L 494 744 
Q 775 591 1075 516 
Q 1375 441 1709 441 
Q 2250 441 2565 725 
Q 2881 1009 2881 1497 
Q 2881 1984 2565 2268 
Q 2250 2553 1709 2553 
Q 1456 2553 1204 2497 
Q 953 2441 691 2322 
L 691 4666 
z
" transform="scale(0.015625)"/>
        <path id="DejaVuSans-30" d="M 2034 4250 
Q 1547 4250 1301 3770 
Q 1056 3291 1056 2328 
Q 1056 1369 1301 889 
Q 1547 409 2034 409 
Q 2525 409 2770 889 
Q 3016 1369 3016 2328 
Q 3016 3291 2770 3770 
Q 2525 4250 2034 4250 
z
M 2034 4750 
Q 2819 4750 3233 4129 
Q 3647 3509 3647 2328 
Q 3647 1150 3233 529 
Q 2819 -91 2034 -91 
Q 1250 -91 836 529 
Q 422 1150 422 2328 
Q 422 3509 836 4129 
Q 1250 4750 2034 4750 
z
" transform="scale(0.015625)"/>
       </defs>
       <use xlink:href="#DejaVuSans-35"/>
       <use xlink:href="#DejaVuSans-30" transform="translate(63.623047 0)"/>
      </g>
     </g>
    </g>
    <g id="xtick_2">
     <g id="text_2">
      <!-- 100 -->
      <g style="fill: #262626" transform="translate(119.671918 185.365789) scale(0.1 -0.1)">
       <defs>
        <path id="DejaVuSans-31" d="M 794 531 
L 1825 531 
L 1825 4091 
L 703 3866 
L 703 4441 
L 1819 4666 
L 2450 4666 
L 2450 531 
L 3481 531 
L 3481 0 
L 794 0 
L 794 531 
z
" transform="scale(0.015625)"/>
       </defs>
       <use xlink:href="#DejaVuSans-31"/>
       <use xlink:href="#DejaVuSans-30" transform="translate(63.623047 0)"/>
       <use xlink:href="#DejaVuSans-30" transform="translate(127.246094 0)"/>
      </g>
     </g>
    </g>
    <g id="xtick_3">
     <g id="text_3">
      <!-- 150 -->
      <g style="fill: #262626" transform="translate(169.704993 185.365789) scale(0.1 -0.1)">
       <use xlink:href="#DejaVuSans-31"/>
       <use xlink:href="#DejaVuSans-35" transform="translate(63.623047 0)"/>
       <use xlink:href="#DejaVuSans-30" transform="translate(127.246094 0)"/>
      </g>
     </g>
    </g>
    <g id="xtick_4">
     <g id="text_4">
      <!-- 200 -->
      <g style="fill: #262626" transform="translate(219.738068 185.365789) scale(0.1 -0.1)">
       <defs>
        <path id="DejaVuSans-32" d="M 1228 531 
L 3431 531 
L 3431 0 
L 469 0 
L 469 531 
Q 828 903 1448 1529 
Q 2069 2156 2228 2338 
Q 2531 2678 2651 2914 
Q 2772 3150 2772 3378 
Q 2772 3750 2511 3984 
Q 2250 4219 1831 4219 
Q 1534 4219 1204 4116 
Q 875 4013 500 3803 
L 500 4441 
Q 881 4594 1212 4672 
Q 1544 4750 1819 4750 
Q 2544 4750 2975 4387 
Q 3406 4025 3406 3419 
Q 3406 3131 3298 2873 
Q 3191 2616 2906 2266 
Q 2828 2175 2409 1742 
Q 1991 1309 1228 531 
z
" transform="scale(0.015625)"/>
       </defs>
       <use xlink:href="#DejaVuSans-32"/>
       <use xlink:href="#DejaVuSans-30" transform="translate(63.623047 0)"/>
       <use xlink:href="#DejaVuSans-30" transform="translate(127.246094 0)"/>
      </g>
     </g>
    </g>
    <g id="xtick_5">
     <g id="text_5">
      <!-- 250 -->
      <g style="fill: #262626" transform="translate(269.771142 185.365789) scale(0.1 -0.1)">
       <use xlink:href="#DejaVuSans-32"/>
       <use xlink:href="#DejaVuSans-35" transform="translate(63.623047 0)"/>
       <use xlink:href="#DejaVuSans-30" transform="translate(127.246094 0)"/>
      </g>
     </g>
    </g>
    <g id="text_6">
     <!-- draw -->
     <g style="fill: #262626" transform="translate(164.864607 199.043914) scale(0.1 -0.1)">
      <defs>
       <path id="DejaVuSans-64" d="M 2906 2969 
L 2906 4863 
L 3481 4863 
L 3481 0 
L 2906 0 
L 2906 525 
Q 2725 213 2448 61 
Q 2172 -91 1784 -91 
Q 1150 -91 751 415 
Q 353 922 353 1747 
Q 353 2572 751 3078 
Q 1150 3584 1784 3584 
Q 2172 3584 2448 3432 
Q 2725 3281 2906 2969 
z
M 947 1747 
Q 947 1113 1208 752 
Q 1469 391 1925 391 
Q 2381 391 2643 752 
Q 2906 1113 2906 1747 
Q 2906 2381 2643 2742 
Q 2381 3103 1925 3103 
Q 1469 3103 1208 2742 
Q 947 2381 947 1747 
z
" transform="scale(0.015625)"/>
       <path id="DejaVuSans-72" d="M 2631 2963 
Q 2534 3019 2420 3045 
Q 2306 3072 2169 3072 
Q 1681 3072 1420 2755 
Q 1159 2438 1159 1844 
L 1159 0 
L 581 0 
L 581 3500 
L 1159 3500 
L 1159 2956 
Q 1341 3275 1631 3429 
Q 1922 3584 2338 3584 
Q 2397 3584 2469 3576 
Q 2541 3569 2628 3553 
L 2631 2963 
z
" transform="scale(0.015625)"/>
       <path id="DejaVuSans-61" d="M 2194 1759 
Q 1497 1759 1228 1600 
Q 959 1441 959 1056 
Q 959 750 1161 570 
Q 1363 391 1709 391 
Q 2188 391 2477 730 
Q 2766 1069 2766 1631 
L 2766 1759 
L 2194 1759 
z
M 3341 1997 
L 3341 0 
L 2766 0 
L 2766 531 
Q 2569 213 2275 61 
Q 1981 -91 1556 -91 
Q 1019 -91 701 211 
Q 384 513 384 1019 
Q 384 1609 779 1909 
Q 1175 2209 1959 2209 
L 2766 2209 
L 2766 2266 
Q 2766 2663 2505 2880 
Q 2244 3097 1772 3097 
Q 1472 3097 1187 3025 
Q 903 2953 641 2809 
L 641 3341 
Q 956 3463 1253 3523 
Q 1550 3584 1831 3584 
Q 2591 3584 2966 3190 
Q 3341 2797 3341 1997 
z
" transform="scale(0.015625)"/>
       <path id="DejaVuSans-77" d="M 269 3500 
L 844 3500 
L 1563 769 
L 2278 3500 
L 2956 3500 
L 3675 769 
L 4391 3500 
L 4966 3500 
L 4050 0 
L 3372 0 
L 2619 2869 
L 1863 0 
L 1184 0 
L 269 3500 
z
" transform="scale(0.015625)"/>
      </defs>
      <use xlink:href="#DejaVuSans-64"/>
      <use xlink:href="#DejaVuSans-72" transform="translate(63.476562 0)"/>
      <use xlink:href="#DejaVuSans-61" transform="translate(104.589844 0)"/>
      <use xlink:href="#DejaVuSans-77" transform="translate(165.869141 0)"/>
     </g>
    </g>
   </g>
   <g id="matplotlib.axis_2">
    <g id="ytick_1">
     <g id="text_7">
      <!-- 0.5 -->
      <g style="fill: #262626" transform="translate(21.15625 148.518034) scale(0.1 -0.1)">
       <defs>
        <path id="DejaVuSans-2e" d="M 684 794 
L 1344 794 
L 1344 0 
L 684 0 
L 684 794 
z
" transform="scale(0.015625)"/>
       </defs>
       <use xlink:href="#DejaVuSans-30"/>
       <use xlink:href="#DejaVuSans-2e" transform="translate(63.623047 0)"/>
       <use xlink:href="#DejaVuSans-35" transform="translate(95.410156 0)"/>
      </g>
     </g>
    </g>
    <g id="ytick_2">
     <g id="text_8">
      <!-- 0.6 -->
      <g style="fill: #262626" transform="translate(21.15625 107.743156) scale(0.1 -0.1)">
       <defs>
        <path id="DejaVuSans-36" d="M 2113 2584 
Q 1688 2584 1439 2293 
Q 1191 2003 1191 1497 
Q 1191 994 1439 701 
Q 1688 409 2113 409 
Q 2538 409 2786 701 
Q 3034 994 3034 1497 
Q 3034 2003 2786 2293 
Q 2538 2584 2113 2584 
z
M 3366 4563 
L 3366 3988 
Q 3128 4100 2886 4159 
Q 2644 4219 2406 4219 
Q 1781 4219 1451 3797 
Q 1122 3375 1075 2522 
Q 1259 2794 1537 2939 
Q 1816 3084 2150 3084 
Q 2853 3084 3261 2657 
Q 3669 2231 3669 1497 
Q 3669 778 3244 343 
Q 2819 -91 2113 -91 
Q 1303 -91 875 529 
Q 447 1150 447 2328 
Q 447 3434 972 4092 
Q 1497 4750 2381 4750 
Q 2619 4750 2861 4703 
Q 3103 4656 3366 4563 
z
" transform="scale(0.015625)"/>
       </defs>
       <use xlink:href="#DejaVuSans-30"/>
       <use xlink:href="#DejaVuSans-2e" transform="translate(63.623047 0)"/>
       <use xlink:href="#DejaVuSans-36" transform="translate(95.410156 0)"/>
      </g>
     </g>
    </g>
    <g id="ytick_3">
     <g id="text_9">
      <!-- 0.7 -->
      <g style="fill: #262626" transform="translate(21.15625 66.968277) scale(0.1 -0.1)">
       <defs>
        <path id="DejaVuSans-37" d="M 525 4666 
L 3525 4666 
L 3525 4397 
L 1831 0 
L 1172 0 
L 2766 4134 
L 525 4134 
L 525 4666 
z
" transform="scale(0.015625)"/>
       </defs>
       <use xlink:href="#DejaVuSans-30"/>
       <use xlink:href="#DejaVuSans-2e" transform="translate(63.623047 0)"/>
       <use xlink:href="#DejaVuSans-37" transform="translate(95.410156 0)"/>
      </g>
     </g>
    </g>
    <g id="ytick_4">
     <g id="text_10">
      <!-- 0.8 -->
      <g style="fill: #262626" transform="translate(21.15625 26.193399) scale(0.1 -0.1)">
       <defs>
        <path id="DejaVuSans-38" d="M 2034 2216 
Q 1584 2216 1326 1975 
Q 1069 1734 1069 1313 
Q 1069 891 1326 650 
Q 1584 409 2034 409 
Q 2484 409 2743 651 
Q 3003 894 3003 1313 
Q 3003 1734 2745 1975 
Q 2488 2216 2034 2216 
z
M 1403 2484 
Q 997 2584 770 2862 
Q 544 3141 544 3541 
Q 544 4100 942 4425 
Q 1341 4750 2034 4750 
Q 2731 4750 3128 4425 
Q 3525 4100 3525 3541 
Q 3525 3141 3298 2862 
Q 3072 2584 2669 2484 
Q 3125 2378 3379 2068 
Q 3634 1759 3634 1313 
Q 3634 634 3220 271 
Q 2806 -91 2034 -91 
Q 1263 -91 848 271 
Q 434 634 434 1313 
Q 434 1759 690 2068 
Q 947 2378 1403 2484 
z
M 1172 3481 
Q 1172 3119 1398 2916 
Q 1625 2713 2034 2713 
Q 2441 2713 2670 2916 
Q 2900 3119 2900 3481 
Q 2900 3844 2670 4047 
Q 2441 4250 2034 4250 
Q 1625 4250 1398 4047 
Q 1172 3844 1172 3481 
z
" transform="scale(0.015625)"/>
       </defs>
       <use xlink:href="#DejaVuSans-30"/>
       <use xlink:href="#DejaVuSans-2e" transform="translate(63.623047 0)"/>
       <use xlink:href="#DejaVuSans-38" transform="translate(95.410156 0)"/>
      </g>
     </g>
    </g>
    <g id="text_11">
     <!-- train_dt -->
     <g style="fill: #262626" transform="translate(14.798437 108.255551) rotate(-90) scale(0.1 -0.1)">
      <defs>
       <path id="DejaVuSans-74" d="M 1172 4494 
L 1172 3500 
L 2356 3500 
L 2356 3053 
L 1172 3053 
L 1172 1153 
Q 1172 725 1289 603 
Q 1406 481 1766 481 
L 2356 481 
L 2356 0 
L 1766 0 
Q 1100 0 847 248 
Q 594 497 594 1153 
L 594 3053 
L 172 3053 
L 172 3500 
L 594 3500 
L 594 4494 
L 1172 4494 
z
" transform="scale(0.015625)"/>
       <path id="DejaVuSans-69" d="M 603 3500 
L 1178 3500 
L 1178 0 
L 603 0 
L 603 3500 
z
M 603 4863 
L 1178 4863 
L 1178 4134 
L 603 4134 
L 603 4863 
z
" transform="scale(0.015625)"/>
       <path id="DejaVuSans-6e" d="M 3513 2113 
L 3513 0 
L 2938 0 
L 2938 2094 
Q 2938 2591 2744 2837 
Q 2550 3084 2163 3084 
Q 1697 3084 1428 2787 
Q 1159 2491 1159 1978 
L 1159 0 
L 581 0 
L 581 3500 
L 1159 3500 
L 1159 2956 
Q 1366 3272 1645 3428 
Q 1925 3584 2291 3584 
Q 2894 3584 3203 3211 
Q 3513 2838 3513 2113 
z
" transform="scale(0.015625)"/>
       <path id="DejaVuSans-5f" d="M 3263 -1063 
L 3263 -1509 
L -63 -1509 
L -63 -1063 
L 3263 -1063 
z
" transform="scale(0.015625)"/>
      </defs>
      <use xlink:href="#DejaVuSans-74"/>
      <use xlink:href="#DejaVuSans-72" transform="translate(39.208984 0)"/>
      <use xlink:href="#DejaVuSans-61" transform="translate(80.322266 0)"/>
      <use xlink:href="#DejaVuSans-69" transform="translate(141.601562 0)"/>
      <use xlink:href="#DejaVuSans-6e" transform="translate(169.384766 0)"/>
      <use xlink:href="#DejaVuSans-5f" transform="translate(232.763672 0)"/>
      <use xlink:href="#DejaVuSans-64" transform="translate(282.763672 0)"/>
      <use xlink:href="#DejaVuSans-74" transform="translate(346.240234 0)"/>
     </g>
    </g>
   </g>
   <g id="line2d_1">
    <path d="M 56.167379 91.42235 
L 57.168041 20.803987 
L 58.168702 162.184037 
L 59.169364 89.435122 
L 60.170025 88.494907 
L 61.170687 89.895616 
L 62.171348 84.326043 
L 63.17201 82.793866 
L 64.172671 162.215788 
L 65.173333 85.235546 
L 66.173994 87.511414 
L 67.174656 90.997684 
L 68.175317 89.087346 
L 69.175978 83.264466 
L 70.17664 158.522372 
L 71.177301 80.740397 
L 72.177963 82.501289 
L 73.178624 90.219416 
L 74.179286 86.899469 
L 75.179947 96.242066 
L 76.180609 159.139922 
L 77.18127 86.536184 
L 78.181932 77.080496 
L 79.182593 77.4631 
L 80.183255 89.294435 
L 81.183916 86.577461 
L 82.184578 159.919423 
L 83.185239 81.14686 
L 84.185901 81.825982 
L 85.186562 16.440542 
L 86.187224 86.158953 
L 87.187885 93.637092 
L 88.188547 162.096733 
L 89.189208 88.963982 
L 90.18987 87.399805 
L 91.190531 87.712648 
L 92.191193 74.497619 
L 93.191854 82.617309 
L 94.192516 157.79954 
L 95.193177 81.57277 
L 96.193839 87.494903 
L 97.1945 81.949924 
L 98.195162 102.365639 
L 99.195823 93.384212 
L 100.196485 162.254145 
L 101.197146 93.768339 
L 102.197808 92.275022 
L 103.198469 81.16432 
L 104.199131 95.919448 
L 105.199792 91.742271 
L 106.200454 162.629824 
L 107.201115 93.532232 
L 108.201777 90.411562 
L 109.202438 86.669416 
L 110.2031 94.496502 
L 111.203761 83.285886 
L 112.204423 101.116759 
L 114.205746 79.423159 
L 115.206407 81.426594 
L 116.207069 78.351946 
L 117.20773 92.606516 
L 118.208392 161.438379 
L 119.209053 91.102239 
L 120.209715 98.719381 
L 121.210376 84.913322 
L 122.211038 87.986666 
L 123.211699 78.93154 
L 124.212361 158.319987 
L 125.213022 76.467489 
L 126.213684 83.892688 
L 127.214345 84.629931 
L 128.215007 86.046056 
L 129.215668 88.351689 
L 130.21633 159.895664 
L 131.216991 84.390555 
L 132.217653 86.007088 
L 133.218314 80.059499 
L 134.218976 90.252372 
L 135.219637 88.399755 
L 136.220299 157.955222 
L 137.22096 87.059536 
L 138.221622 88.327599 
L 139.222283 14.63488 
L 140.222945 35.356263 
L 141.223606 95.465159 
L 142.224268 163.332472 
L 143.224929 86.805584 
L 144.225591 91.739748 
L 145.226252 79.787347 
L 146.226914 93.696957 
L 147.227575 81.427701 
L 148.228237 159.946459 
L 149.228898 83.350802 
L 150.229559 73.932892 
L 151.230221 90.883844 
L 152.230882 72.72051 
L 153.231544 88.697096 
L 154.232205 160.125572 
L 155.232867 81.681641 
L 156.233528 82.611687 
L 157.23419 87.066779 
L 158.234851 82.654928 
L 159.235513 84.913946 
L 160.236174 160.072939 
L 161.236836 87.271604 
L 162.237497 87.869795 
L 163.238159 67.968309 
L 164.23882 80.704015 
L 165.239482 88.549018 
L 166.240143 159.706335 
L 167.240805 27.203418 
L 168.241466 84.965533 
L 169.242128 95.960248 
L 170.242789 87.196221 
L 171.243451 83.819441 
L 172.244112 160.256007 
L 173.244774 82.469006 
L 174.245435 88.425753 
L 175.246097 89.04575 
L 176.246758 95.060042 
L 177.24742 87.053643 
L 178.248081 162.694009 
L 179.248743 84.335396 
L 180.249404 93.476049 
L 181.250066 81.363292 
L 182.250727 88.278387 
L 183.251389 77.2822 
L 184.25205 159.903729 
L 185.252712 83.64616 
L 186.253373 89.671343 
L 187.254035 93.652742 
L 188.254696 85.926296 
L 189.255358 87.577496 
L 190.256019 159.496092 
L 191.256681 95.560928 
L 192.257342 93.687355 
L 193.258004 87.414815 
L 194.258665 32.770657 
L 195.259327 86.412109 
L 196.259988 162.902588 
L 197.26065 89.85367 
L 198.261311 93.464241 
L 199.261973 87.251474 
L 200.262634 91.566754 
L 201.263296 86.74955 
L 202.263957 158.397852 
L 203.264619 80.958374 
L 204.26528 83.234667 
L 205.265942 90.320556 
L 206.266603 85.762779 
L 207.267265 84.01933 
L 208.267926 159.540496 
L 209.268588 84.55032 
L 210.269249 79.965904 
L 211.269911 84.942108 
L 212.270572 95.263516 
L 213.271234 92.806407 
L 214.271895 159.455101 
L 215.272557 86.218553 
L 216.273218 95.997933 
L 217.27388 91.859932 
L 218.274541 84.813627 
L 219.275203 86.20816 
L 220.275864 158.551306 
L 221.276526 79.441377 
L 222.277187 30.912011 
L 223.277849 84.83525 
L 224.27851 83.396053 
L 225.279172 90.755316 
L 226.279833 157.730746 
L 227.280495 83.628379 
L 228.281156 88.152168 
L 229.281818 86.383997 
L 230.282479 79.445266 
L 231.28314 76.1278 
L 232.283802 152.64593 
L 233.284463 85.218688 
L 234.285125 96.094269 
L 235.285786 91.780672 
L 236.286448 84.326679 
L 237.287109 92.60289 
L 238.287771 157.681598 
L 239.288432 78.747109 
L 240.289094 91.231451 
L 241.289755 92.002551 
L 242.290417 83.814584 
L 243.291078 68.936146 
L 244.29174 161.913631 
L 245.292401 91.712267 
L 246.293063 89.270983 
L 247.293724 89.442375 
L 248.294386 75.136681 
L 249.295047 32.13796 
L 250.295709 162.118925 
L 251.29637 88.784575 
L 252.297032 91.500489 
L 253.297693 87.129913 
L 254.298355 87.561915 
L 255.299016 88.50545 
L 256.299678 162.680871 
L 257.300339 92.60952 
L 258.301001 88.293947 
L 259.301662 93.943038 
L 260.302324 89.688398 
L 261.302985 88.015962 
L 262.303647 162.722826 
L 263.304308 91.034424 
L 264.30497 79.330776 
L 265.305631 82.687745 
L 266.306293 85.042292 
L 267.306954 91.550908 
L 268.307616 162.400529 
L 269.308277 90.324911 
L 270.308939 82.478378 
L 271.3096 87.913936 
L 272.310262 89.699077 
L 273.310923 86.803613 
L 274.311585 162.172138 
L 275.312246 87.630203 
L 276.312908 69.268226 
L 277.313569 28.959874 
L 278.314231 88.573259 
L 279.314892 83.692815 
L 280.315554 158.481622 
L 281.316215 82.455487 
L 282.316877 86.648716 
L 283.317538 84.728949 
L 284.3182 94.341561 
L 285.318861 85.900172 
L 286.319523 162.018827 
L 287.320184 89.612078 
L 288.320846 96.107641 
L 289.321507 93.63284 
L 290.322169 87.341035 
L 291.32283 84.270156 
L 292.323492 162.024668 
L 293.324153 87.070081 
L 294.324815 93.686232 
L 295.325476 92.646742 
L 296.326138 87.213383 
L 297.326799 75.952257 
L 298.327461 158.07147 
L 298.327461 158.07147 
" clip-path="url(#pfbf7173756)" style="fill: none; stroke: #e8000b; stroke-width: 1.5; stroke-linecap: round"/>
   </g>
  </g>
 </g>
 <defs>
  <clipPath id="pfbf7173756">
   <rect x="44.059375" y="7.2" width="266.37609" height="163.567352"/>
  </clipPath>
 </defs>
</svg>
