<?xml version="1.0" encoding="utf-8" standalone="no"?>
<!DOCTYPE svg PUBLIC "-//W3C//DTD SVG 1.1//EN"
  "http://www.w3.org/Graphics/SVG/1.1/DTD/svg11.dtd">
<svg xmlns:xlink="http://www.w3.org/1999/xlink" width="314.45734pt" height="208.323602pt" viewBox="0 0 314.45734 208.323602" xmlns="http://www.w3.org/2000/svg" version="1.1">
 <metadata>
  <rdf:RDF xmlns:dc="http://purl.org/dc/elements/1.1/" xmlns:cc="http://creativecommons.org/ns#" xmlns:rdf="http://www.w3.org/1999/02/22-rdf-syntax-ns#">
   <cc:Work>
    <dc:type rdf:resource="http://purl.org/dc/dcmitype/StillImage"/>
    <dc:date>2025-11-25T18:53:35.627591</dc:date>
    <dc:format>image/svg+xml</dc:format>
    <dc:creator>
     <cc:Agent>
      <dc:title>Matplotlib v3.10.6, https://matplotlib.org/</dc:title>
     </cc:Agent>
    </dc:creator>
   </cc:Work>
  </rdf:RDF>
 </metadata>
 <defs>
  <style type="text/css">*{stroke-linejoin: round; stroke-linecap: butt}</style>
 </defs>
 <g id="figure_1">
  <g id="patch_1">
   <path d="M 0 208.323602 
L 314.45734 208.323602 
L 314.45734 0 
L 0 0 
L 0 208.323602 
z
" style="fill: none"/>
  </g>
  <g id="axes_1">
   <g id="patch_2">
    <path d="M 40.88125 170.767352 
L 307.25734 170.767352 
L 307.25734 7.2 
L 40.88125 7.2 
L 40.88125 170.767352 
z
" style="fill: none"/>
   </g>
   <g id="matplotlib.axis_1">
    <g id="xtick_1">
     <g id="text_1">
      <!-- 50 -->
      <g style="fill: #262626" transform="translate(69.641968 185.365789) scale(0.1 -0.1)">
       <defs>
        <path id="DejaVuSans-35" d="M 691 4666 
L 3169 4666 
L 3169 4134 
L 1269 4134 
L 1269 2991 
Q 1406 3038 1543 3061 
Q 1681 3084 1819 3084 
Q 2600 3084 3056 2656 
Q 3513 2228 3513 1497 
Q 3513 744 3044 326 
Q 2575 -91 1722 -91 
Q 1428 -91 1123 -41 
Q 819 9 494 109 
L 494 744 
Q 775 591 1075 516 
Q 1375 441 1709 441 
Q 2250 441 2565 725 
Q 2881 1009 2881 1497 
Q 2881 1984 2565 2268 
Q 2250 2553 1709 2553 
Q 1456 2553 1204 2497 
Q 953 2441 691 2322 
L 691 4666 
z
" transform="scale(0.015625)"/>
        <path id="DejaVuSans-30" d="M 2034 4250 
Q 1547 4250 1301 3770 
Q 1056 3291 1056 2328 
Q 1056 1369 1301 889 
Q 1547 409 2034 409 
Q 2525 409 2770 889 
Q 3016 1369 3016 2328 
Q 3016 3291 2770 3770 
Q 2525 4250 2034 4250 
z
M 2034 4750 
Q 2819 4750 3233 4129 
Q 3647 3509 3647 2328 
Q 3647 1150 3233 529 
Q 2819 -91 2034 -91 
Q 1250 -91 836 529 
Q 422 1150 422 2328 
Q 422 3509 836 4129 
Q 1250 4750 2034 4750 
z
" transform="scale(0.015625)"/>
       </defs>
       <use xlink:href="#DejaVuSans-35"/>
       <use xlink:href="#DejaVuSans-30" transform="translate(63.623047 0)"/>
      </g>
     </g>
    </g>
    <g id="xtick_2">
     <g id="text_2">
      <!-- 100 -->
      <g style="fill: #262626" transform="translate(116.493793 185.365789) scale(0.1 -0.1)">
       <defs>
        <path id="DejaVuSans-31" d="M 794 531 
L 1825 531 
L 1825 4091 
L 703 3866 
L 703 4441 
L 1819 4666 
L 2450 4666 
L 2450 531 
L 3481 531 
L 3481 0 
L 794 0 
L 794 531 
z
" transform="scale(0.015625)"/>
       </defs>
       <use xlink:href="#DejaVuSans-31"/>
       <use xlink:href="#DejaVuSans-30" transform="translate(63.623047 0)"/>
       <use xlink:href="#DejaVuSans-30" transform="translate(127.246094 0)"/>
      </g>
     </g>
    </g>
    <g id="xtick_3">
     <g id="text_3">
      <!-- 150 -->
      <g style="fill: #262626" transform="translate(166.526868 185.365789) scale(0.1 -0.1)">
       <use xlink:href="#DejaVuSans-31"/>
       <use xlink:href="#DejaVuSans-35" transform="translate(63.623047 0)"/>
       <use xlink:href="#DejaVuSans-30" transform="translate(127.246094 0)"/>
      </g>
     </g>
    </g>
    <g id="xtick_4">
     <g id="text_4">
      <!-- 200 -->
      <g style="fill: #262626" transform="translate(216.559943 185.365789) scale(0.1 -0.1)">
       <defs>
        <path id="DejaVuSans-32" d="M 1228 531 
L 3431 531 
L 3431 0 
L 469 0 
L 469 531 
Q 828 903 1448 1529 
Q 2069 2156 2228 2338 
Q 2531 2678 2651 2914 
Q 2772 3150 2772 3378 
Q 2772 3750 2511 3984 
Q 2250 4219 1831 4219 
Q 1534 4219 1204 4116 
Q 875 4013 500 3803 
L 500 4441 
Q 881 4594 1212 4672 
Q 1544 4750 1819 4750 
Q 2544 4750 2975 4387 
Q 3406 4025 3406 3419 
Q 3406 3131 3298 2873 
Q 3191 2616 2906 2266 
Q 2828 2175 2409 1742 
Q 1991 1309 1228 531 
z
" transform="scale(0.015625)"/>
       </defs>
       <use xlink:href="#DejaVuSans-32"/>
       <use xlink:href="#DejaVuSans-30" transform="translate(63.623047 0)"/>
       <use xlink:href="#DejaVuSans-30" transform="translate(127.246094 0)"/>
      </g>
     </g>
    </g>
    <g id="xtick_5">
     <g id="text_5">
      <!-- 250 -->
      <g style="fill: #262626" transform="translate(266.593017 185.365789) scale(0.1 -0.1)">
       <use xlink:href="#DejaVuSans-32"/>
       <use xlink:href="#DejaVuSans-35" transform="translate(63.623047 0)"/>
       <use xlink:href="#DejaVuSans-30" transform="translate(127.246094 0)"/>
      </g>
     </g>
    </g>
    <g id="text_6">
     <!-- draw -->
     <g style="fill: #262626" transform="translate(161.686482 199.043914) scale(0.1 -0.1)">
      <defs>
       <path id="DejaVuSans-64" d="M 2906 2969 
L 2906 4863 
L 3481 4863 
L 3481 0 
L 2906 0 
L 2906 525 
Q 2725 213 2448 61 
Q 2172 -91 1784 -91 
Q 1150 -91 751 415 
Q 353 922 353 1747 
Q 353 2572 751 3078 
Q 1150 3584 1784 3584 
Q 2172 3584 2448 3432 
Q 2725 3281 2906 2969 
z
M 947 1747 
Q 947 1113 1208 752 
Q 1469 391 1925 391 
Q 2381 391 2643 752 
Q 2906 1113 2906 1747 
Q 2906 2381 2643 2742 
Q 2381 3103 1925 3103 
Q 1469 3103 1208 2742 
Q 947 2381 947 1747 
z
" transform="scale(0.015625)"/>
       <path id="DejaVuSans-72" d="M 2631 2963 
Q 2534 3019 2420 3045 
Q 2306 3072 2169 3072 
Q 1681 3072 1420 2755 
Q 1159 2438 1159 1844 
L 1159 0 
L 581 0 
L 581 3500 
L 1159 3500 
L 1159 2956 
Q 1341 3275 1631 3429 
Q 1922 3584 2338 3584 
Q 2397 3584 2469 3576 
Q 2541 3569 2628 3553 
L 2631 2963 
z
" transform="scale(0.015625)"/>
       <path id="DejaVuSans-61" d="M 2194 1759 
Q 1497 1759 1228 1600 
Q 959 1441 959 1056 
Q 959 750 1161 570 
Q 1363 391 1709 391 
Q 2188 391 2477 730 
Q 2766 1069 2766 1631 
L 2766 1759 
L 2194 1759 
z
M 3341 1997 
L 3341 0 
L 2766 0 
L 2766 531 
Q 2569 213 2275 61 
Q 1981 -91 1556 -91 
Q 1019 -91 701 211 
Q 384 513 384 1019 
Q 384 1609 779 1909 
Q 1175 2209 1959 2209 
L 2766 2209 
L 2766 2266 
Q 2766 2663 2505 2880 
Q 2244 3097 1772 3097 
Q 1472 3097 1187 3025 
Q 903 2953 641 2809 
L 641 3341 
Q 956 3463 1253 3523 
Q 1550 3584 1831 3584 
Q 2591 3584 2966 3190 
Q 3341 2797 3341 1997 
z
" transform="scale(0.015625)"/>
       <path id="DejaVuSans-77" d="M 269 3500 
L 844 3500 
L 1563 769 
L 2278 3500 
L 2956 3500 
L 3675 769 
L 4391 3500 
L 4966 3500 
L 4050 0 
L 3372 0 
L 2619 2869 
L 1863 0 
L 1184 0 
L 269 3500 
z
" transform="scale(0.015625)"/>
      </defs>
      <use xlink:href="#DejaVuSans-64"/>
      <use xlink:href="#DejaVuSans-72" transform="translate(63.476562 0)"/>
      <use xlink:href="#DejaVuSans-61" transform="translate(104.589844 0)"/>
      <use xlink:href="#DejaVuSans-77" transform="translate(165.869141 0)"/>
     </g>
    </g>
   </g>
   <g id="matplotlib.axis_2">
    <g id="ytick_1">
     <g id="text_7">
      <!-- 12 -->
      <g style="fill: #262626" transform="translate(21.15625 144.943622) scale(0.1 -0.1)">
       <use xlink:href="#DejaVuSans-31"/>
       <use xlink:href="#DejaVuSans-32" transform="translate(63.623047 0)"/>
      </g>
     </g>
    </g>
    <g id="ytick_2">
     <g id="text_8">
      <!-- 14 -->
      <g style="fill: #262626" transform="translate(21.15625 107.23855) scale(0.1 -0.1)">
       <defs>
        <path id="DejaVuSans-34" d="M 2419 4116 
L 825 1625 
L 2419 1625 
L 2419 4116 
z
M 2253 4666 
L 3047 4666 
L 3047 1625 
L 3713 1625 
L 3713 1100 
L 3047 1100 
L 3047 0 
L 2419 0 
L 2419 1100 
L 313 1100 
L 313 1709 
L 2253 4666 
z
" transform="scale(0.015625)"/>
       </defs>
       <use xlink:href="#DejaVuSans-31"/>
       <use xlink:href="#DejaVuSans-34" transform="translate(63.623047 0)"/>
      </g>
     </g>
    </g>
    <g id="ytick_3">
     <g id="text_9">
      <!-- 16 -->
      <g style="fill: #262626" transform="translate(21.15625 69.533479) scale(0.1 -0.1)">
       <defs>
        <path id="DejaVuSans-36" d="M 2113 2584 
Q 1688 2584 1439 2293 
Q 1191 2003 1191 1497 
Q 1191 994 1439 701 
Q 1688 409 2113 409 
Q 2538 409 2786 701 
Q 3034 994 3034 1497 
Q 3034 2003 2786 2293 
Q 2538 2584 2113 2584 
z
M 3366 4563 
L 3366 3988 
Q 3128 4100 2886 4159 
Q 2644 4219 2406 4219 
Q 1781 4219 1451 3797 
Q 1122 3375 1075 2522 
Q 1259 2794 1537 2939 
Q 1816 3084 2150 3084 
Q 2853 3084 3261 2657 
Q 3669 2231 3669 1497 
Q 3669 778 3244 343 
Q 2819 -91 2113 -91 
Q 1303 -91 875 529 
Q 447 1150 447 2328 
Q 447 3434 972 4092 
Q 1497 4750 2381 4750 
Q 2619 4750 2861 4703 
Q 3103 4656 3366 4563 
z
" transform="scale(0.015625)"/>
       </defs>
       <use xlink:href="#DejaVuSans-31"/>
       <use xlink:href="#DejaVuSans-36" transform="translate(63.623047 0)"/>
      </g>
     </g>
    </g>
    <g id="ytick_4">
     <g id="text_10">
      <!-- 18 -->
      <g style="fill: #262626" transform="translate(21.15625 31.828407) scale(0.1 -0.1)">
       <defs>
        <path id="DejaVuSans-38" d="M 2034 2216 
Q 1584 2216 1326 1975 
Q 1069 1734 1069 1313 
Q 1069 891 1326 650 
Q 1584 409 2034 409 
Q 2484 409 2743 651 
Q 3003 894 3003 1313 
Q 3003 1734 2745 1975 
Q 2488 2216 2034 2216 
z
M 1403 2484 
Q 997 2584 770 2862 
Q 544 3141 544 3541 
Q 544 4100 942 4425 
Q 1341 4750 2034 4750 
Q 2731 4750 3128 4425 
Q 3525 4100 3525 3541 
Q 3525 3141 3298 2862 
Q 3072 2584 2669 2484 
Q 3125 2378 3379 2068 
Q 3634 1759 3634 1313 
Q 3634 634 3220 271 
Q 2806 -91 2034 -91 
Q 1263 -91 848 271 
Q 434 634 434 1313 
Q 434 1759 690 2068 
Q 947 2378 1403 2484 
z
M 1172 3481 
Q 1172 3119 1398 2916 
Q 1625 2713 2034 2713 
Q 2441 2713 2670 2916 
Q 2900 3119 2900 3481 
Q 2900 3844 2670 4047 
Q 2441 4250 2034 4250 
Q 1625 4250 1398 4047 
Q 1172 3844 1172 3481 
z
" transform="scale(0.015625)"/>
       </defs>
       <use xlink:href="#DejaVuSans-31"/>
       <use xlink:href="#DejaVuSans-38" transform="translate(63.623047 0)"/>
      </g>
     </g>
    </g>
    <g id="text_11">
     <!-- train_loss -->
     <g style="fill: #262626" transform="translate(14.798438 112.778988) rotate(-90) scale(0.1 -0.1)">
      <defs>
       <path id="DejaVuSans-74" d="M 1172 4494 
L 1172 3500 
L 2356 3500 
L 2356 3053 
L 1172 3053 
L 1172 1153 
Q 1172 725 1289 603 
Q 1406 481 1766 481 
L 2356 481 
L 2356 0 
L 1766 0 
Q 1100 0 847 248 
Q 594 497 594 1153 
L 594 3053 
L 172 3053 
L 172 3500 
L 594 3500 
L 594 4494 
L 1172 4494 
z
" transform="scale(0.015625)"/>
       <path id="DejaVuSans-69" d="M 603 3500 
L 1178 3500 
L 1178 0 
L 603 0 
L 603 3500 
z
M 603 4863 
L 1178 4863 
L 1178 4134 
L 603 4134 
L 603 4863 
z
" transform="scale(0.015625)"/>
       <path id="DejaVuSans-6e" d="M 3513 2113 
L 3513 0 
L 2938 0 
L 2938 2094 
Q 2938 2591 2744 2837 
Q 2550 3084 2163 3084 
Q 1697 3084 1428 2787 
Q 1159 2491 1159 1978 
L 1159 0 
L 581 0 
L 581 3500 
L 1159 3500 
L 1159 2956 
Q 1366 3272 1645 3428 
Q 1925 3584 2291 3584 
Q 2894 3584 3203 3211 
Q 3513 2838 3513 2113 
z
" transform="scale(0.015625)"/>
       <path id="DejaVuSans-5f" d="M 3263 -1063 
L 3263 -1509 
L -63 -1509 
L -63 -1063 
L 3263 -1063 
z
" transform="scale(0.015625)"/>
       <path id="DejaVuSans-6c" d="M 603 4863 
L 1178 4863 
L 1178 0 
L 603 0 
L 603 4863 
z
" transform="scale(0.015625)"/>
       <path id="DejaVuSans-6f" d="M 1959 3097 
Q 1497 3097 1228 2736 
Q 959 2375 959 1747 
Q 959 1119 1226 758 
Q 1494 397 1959 397 
Q 2419 397 2687 759 
Q 2956 1122 2956 1747 
Q 2956 2369 2687 2733 
Q 2419 3097 1959 3097 
z
M 1959 3584 
Q 2709 3584 3137 3096 
Q 3566 2609 3566 1747 
Q 3566 888 3137 398 
Q 2709 -91 1959 -91 
Q 1206 -91 779 398 
Q 353 888 353 1747 
Q 353 2609 779 3096 
Q 1206 3584 1959 3584 
z
" transform="scale(0.015625)"/>
       <path id="DejaVuSans-73" d="M 2834 3397 
L 2834 2853 
Q 2591 2978 2328 3040 
Q 2066 3103 1784 3103 
Q 1356 3103 1142 2972 
Q 928 2841 928 2578 
Q 928 2378 1081 2264 
Q 1234 2150 1697 2047 
L 1894 2003 
Q 2506 1872 2764 1633 
Q 3022 1394 3022 966 
Q 3022 478 2636 193 
Q 2250 -91 1575 -91 
Q 1294 -91 989 -36 
Q 684 19 347 128 
L 347 722 
Q 666 556 975 473 
Q 1284 391 1588 391 
Q 1994 391 2212 530 
Q 2431 669 2431 922 
Q 2431 1156 2273 1281 
Q 2116 1406 1581 1522 
L 1381 1569 
Q 847 1681 609 1914 
Q 372 2147 372 2553 
Q 372 3047 722 3315 
Q 1072 3584 1716 3584 
Q 2034 3584 2315 3537 
Q 2597 3491 2834 3397 
z
" transform="scale(0.015625)"/>
      </defs>
      <use xlink:href="#DejaVuSans-74"/>
      <use xlink:href="#DejaVuSans-72" transform="translate(39.208984 0)"/>
      <use xlink:href="#DejaVuSans-61" transform="translate(80.322266 0)"/>
      <use xlink:href="#DejaVuSans-69" transform="translate(141.601562 0)"/>
      <use xlink:href="#DejaVuSans-6e" transform="translate(169.384766 0)"/>
      <use xlink:href="#DejaVuSans-5f" transform="translate(232.763672 0)"/>
      <use xlink:href="#DejaVuSans-6c" transform="translate(282.763672 0)"/>
      <use xlink:href="#DejaVuSans-6f" transform="translate(310.546875 0)"/>
      <use xlink:href="#DejaVuSans-73" transform="translate(371.728516 0)"/>
      <use xlink:href="#DejaVuSans-73" transform="translate(423.828125 0)"/>
     </g>
    </g>
   </g>
   <g id="line2d_1">
    <path d="M 52.989254 126.180314 
L 53.989916 119.264371 
L 54.990577 129.991199 
L 55.991239 99.548475 
L 56.9919 102.716191 
L 57.992562 101.977606 
L 58.993223 100.039487 
L 59.993885 103.723996 
L 60.994546 105.871681 
L 61.995208 87.205499 
L 62.995869 101.798911 
L 63.996531 99.097629 
L 64.997192 93.929011 
L 65.997853 99.364674 
L 66.998515 84.780485 
L 67.999176 79.435635 
L 68.999838 88.100485 
L 70.000499 85.149166 
L 71.001161 80.38801 
L 72.001822 89.28569 
L 73.002484 79.52447 
L 74.003145 82.427424 
L 75.003807 86.506594 
L 76.004468 83.564625 
L 77.00513 81.35315 
L 78.005791 86.580812 
L 79.006453 86.973963 
L 80.007114 86.991763 
L 81.007776 83.733198 
L 82.008437 78.296906 
L 83.009099 78.312206 
L 84.00976 76.472289 
L 85.010422 83.8855 
L 86.011083 84.15837 
L 87.011745 74.219336 
L 88.012406 70.041226 
L 89.013068 72.209156 
L 90.013729 64.415847 
L 92.015052 78.629844 
L 93.015714 63.134722 
L 94.016375 63.404841 
L 95.017037 65.974605 
L 96.017698 56.142548 
L 97.01836 59.399332 
L 98.019021 76.766158 
L 99.019683 60.366468 
L 100.020344 66.119356 
L 101.021006 68.258626 
L 102.021667 60.242124 
L 103.022329 59.443381 
L 104.02299 81.616725 
L 105.023652 66.54237 
L 106.024313 73.673596 
L 107.024975 72.029687 
L 108.025636 65.070612 
L 109.026298 61.108864 
L 110.026959 79.944931 
L 111.027621 68.443219 
L 112.028282 74.056696 
L 114.029605 65.839672 
L 115.030267 62.67557 
L 116.030928 75.248554 
L 117.03159 70.26415 
L 118.032251 75.280395 
L 119.032913 70.513269 
L 120.033574 70.734791 
L 121.034236 69.830618 
L 122.034897 74.917449 
L 123.035559 75.92218 
L 124.03622 79.452158 
L 125.036882 74.50889 
L 126.037543 77.585182 
L 127.038205 77.15352 
L 128.038866 75.396217 
L 129.039528 80.457266 
L 130.040189 82.005273 
L 131.040851 77.102297 
L 132.041512 82.283393 
L 133.042174 80.799176 
L 134.042835 75.076907 
L 135.043497 82.806012 
L 136.044158 82.780967 
L 137.04482 78.413033 
L 138.045481 85.695661 
L 139.046143 82.8522 
L 140.046804 77.042498 
L 141.047466 87.070871 
L 142.048127 86.609579 
L 143.048789 83.720037 
L 144.04945 93.080645 
L 145.050112 89.101242 
L 146.050773 85.695895 
L 147.051434 96.508196 
L 148.052096 95.893308 
L 149.052757 94.040014 
L 150.053419 104.194673 
L 151.05408 98.936518 
L 152.054742 97.986552 
L 153.055403 107.587865 
L 155.056726 103.860853 
L 156.057388 113.136959 
L 157.058049 106.858594 
L 158.058711 107.826197 
L 159.059372 115.625997 
L 160.060034 112.782823 
L 161.060695 111.46646 
L 162.061357 119.959842 
L 163.062018 114.446221 
L 164.06268 117.265194 
L 165.063341 123.818587 
L 166.064003 121.343232 
L 167.064664 121.386867 
L 168.065326 129.240119 
L 169.065987 125.81798 
L 170.066649 129.671475 
L 171.06731 135.31656 
L 172.067972 133.699297 
L 173.068633 135.222762 
L 174.069295 141.871121 
L 175.069956 140.977197 
L 176.070618 144.342809 
L 177.071279 148.80837 
L 178.071941 147.925718 
L 179.072602 150.201307 
L 180.073264 154.796875 
L 182.074587 156.889291 
L 183.075248 159.311518 
L 184.07591 158.457256 
L 185.076571 160.14924 
L 186.077233 161.481893 
L 187.077894 163.332472 
L 188.078556 160.548684 
L 189.079217 160.267579 
L 190.079879 158.949921 
L 191.08054 159.187067 
L 192.081202 156.932406 
L 193.081863 158.970669 
L 194.082525 152.300502 
L 195.083186 149.770831 
L 196.083848 148.426186 
L 197.084509 147.393156 
L 198.085171 142.344351 
L 199.085832 144.47154 
L 200.086494 135.144445 
L 201.087155 131.315779 
L 202.087817 130.699363 
L 203.088478 128.785641 
L 204.08914 121.809036 
L 205.089801 124.004744 
L 206.090463 112.948573 
L 207.091124 108.613883 
L 208.091786 108.930946 
L 209.092447 106.232235 
L 210.093109 98.044517 
L 211.09377 100.058634 
L 212.094432 88.081588 
L 213.095093 83.855888 
L 214.095755 85.287031 
L 215.096416 82.202559 
L 216.097078 73.921043 
L 217.097739 76.258768 
L 218.098401 64.489993 
L 219.099062 61.610591 
L 220.099724 64.92624 
L 221.100385 62.181035 
L 222.101047 55.349774 
L 223.101708 58.65316 
L 224.10237 48.804058 
L 225.103031 48.425812 
L 226.103693 53.942076 
L 227.104354 52.268466 
L 228.105015 48.143898 
L 229.105677 52.237218 
L 230.106338 45.830697 
L 231.107 48.32405 
L 232.107661 55.661209 
L 233.108323 54.869406 
L 234.108984 53.717408 
L 235.109646 57.856826 
L 236.110307 55.170809 
L 237.110969 59.857621 
L 238.11163 67.63056 
L 239.112292 66.741687 
L 240.112953 68.223963 
L 241.113615 70.988315 
L 242.114276 72.261853 
L 243.114938 78.154708 
L 244.115599 84.807094 
L 245.116261 83.52926 
L 246.116922 87.164866 
L 247.117584 87.488419 
L 249.118907 98.210285 
L 250.119568 101.517717 
L 251.12023 97.635526 
L 252.120891 100.15013 
L 253.121553 95.245878 
L 254.122214 98.336535 
L 255.122876 96.79011 
L 256.123537 91.59623 
L 257.124199 82.036827 
L 258.12486 80.850524 
L 259.125522 72.346013 
L 260.126183 76.992552 
L 261.126845 75.050927 
L 263.128168 66.11202 
L 264.128829 69.161091 
L 265.129491 62.808256 
L 266.130152 78.418948 
L 267.130814 79.923338 
L 268.131475 79.448724 
L 269.132137 81.331198 
L 270.132798 86.497569 
L 271.13346 84.30161 
L 272.134121 98.08479 
L 273.134783 91.507072 
L 275.136106 85.867219 
L 276.136767 79.332992 
L 277.137429 91.412807 
L 279.138752 65.80001 
L 281.140075 61.496352 
L 282.140736 52.42057 
L 283.141398 68.810533 
L 284.142059 50.978424 
L 285.142721 38.129352 
L 286.143382 37.525036 
L 287.144044 37.232047 
L 288.144705 26.973703 
L 289.145367 43.211383 
L 290.146028 26.045905 
L 291.14669 15.263791 
L 293.148013 21.856612 
L 294.148674 14.63488 
L 295.149336 31.401723 
L 295.149336 31.401723 
" clip-path="url(#p63bb055498)" style="fill: none; stroke: #1ac938; stroke-width: 1.5; stroke-linecap: round"/>
   </g>
  </g>
 </g>
 <defs>
  <clipPath id="p63bb055498">
   <rect x="40.88125" y="7.2" width="266.37609" height="163.567352"/>
  </clipPath>
 </defs>
</svg>
