<?xml version="1.0" encoding="utf-8" standalone="no"?>
<!DOCTYPE svg PUBLIC "-//W3C//DTD SVG 1.1//EN"
  "http://www.w3.org/Graphics/SVG/1.1/DTD/svg11.dtd">
<svg xmlns:xlink="http://www.w3.org/1999/xlink" width="323.997965pt" height="208.323602pt" viewBox="0 0 323.997965 208.323602" xmlns="http://www.w3.org/2000/svg" version="1.1">
 <metadata>
  <rdf:RDF xmlns:dc="http://purl.org/dc/elements/1.1/" xmlns:cc="http://creativecommons.org/ns#" xmlns:rdf="http://www.w3.org/1999/02/22-rdf-syntax-ns#">
   <cc:Work>
    <dc:type rdf:resource="http://purl.org/dc/dcmitype/StillImage"/>
    <dc:date>2025-11-25T20:05:07.866612</dc:date>
    <dc:format>image/svg+xml</dc:format>
    <dc:creator>
     <cc:Agent>
      <dc:title>Matplotlib v3.10.6, https://matplotlib.org/</dc:title>
     </cc:Agent>
    </dc:creator>
   </cc:Work>
  </rdf:RDF>
 </metadata>
 <defs>
  <style type="text/css">*{stroke-linejoin: round; stroke-linecap: butt}</style>
 </defs>
 <g id="figure_1">
  <g id="patch_1">
   <path d="M 0 208.323602 
L 323.997965 208.323602 
L 323.997965 0 
L 0 0 
L 0 208.323602 
z
" style="fill: none"/>
  </g>
  <g id="axes_1">
   <g id="patch_2">
    <path d="M 50.421875 170.767352 
L 316.797965 170.767352 
L 316.797965 7.2 
L 50.421875 7.2 
L 50.421875 170.767352 
z
" style="fill: none"/>
   </g>
   <g id="matplotlib.axis_1">
    <g id="xtick_1">
     <g id="text_1">
      <!-- 50 -->
      <g style="fill: #262626" transform="translate(79.182593 185.365789) scale(0.1 -0.1)">
       <defs>
        <path id="DejaVuSans-35" d="M 691 4666 
L 3169 4666 
L 3169 4134 
L 1269 4134 
L 1269 2991 
Q 1406 3038 1543 3061 
Q 1681 3084 1819 3084 
Q 2600 3084 3056 2656 
Q 3513 2228 3513 1497 
Q 3513 744 3044 326 
Q 2575 -91 1722 -91 
Q 1428 -91 1123 -41 
Q 819 9 494 109 
L 494 744 
Q 775 591 1075 516 
Q 1375 441 1709 441 
Q 2250 441 2565 725 
Q 2881 1009 2881 1497 
Q 2881 1984 2565 2268 
Q 2250 2553 1709 2553 
Q 1456 2553 1204 2497 
Q 953 2441 691 2322 
L 691 4666 
z
" transform="scale(0.015625)"/>
        <path id="DejaVuSans-30" d="M 2034 4250 
Q 1547 4250 1301 3770 
Q 1056 3291 1056 2328 
Q 1056 1369 1301 889 
Q 1547 409 2034 409 
Q 2525 409 2770 889 
Q 3016 1369 3016 2328 
Q 3016 3291 2770 3770 
Q 2525 4250 2034 4250 
z
M 2034 4750 
Q 2819 4750 3233 4129 
Q 3647 3509 3647 2328 
Q 3647 1150 3233 529 
Q 2819 -91 2034 -91 
Q 1250 -91 836 529 
Q 422 1150 422 2328 
Q 422 3509 836 4129 
Q 1250 4750 2034 4750 
z
" transform="scale(0.015625)"/>
       </defs>
       <use xlink:href="#DejaVuSans-35"/>
       <use xlink:href="#DejaVuSans-30" transform="translate(63.623047 0)"/>
      </g>
     </g>
    </g>
    <g id="xtick_2">
     <g id="text_2">
      <!-- 100 -->
      <g style="fill: #262626" transform="translate(126.034418 185.365789) scale(0.1 -0.1)">
       <defs>
        <path id="DejaVuSans-31" d="M 794 531 
L 1825 531 
L 1825 4091 
L 703 3866 
L 703 4441 
L 1819 4666 
L 2450 4666 
L 2450 531 
L 3481 531 
L 3481 0 
L 794 0 
L 794 531 
z
" transform="scale(0.015625)"/>
       </defs>
       <use xlink:href="#DejaVuSans-31"/>
       <use xlink:href="#DejaVuSans-30" transform="translate(63.623047 0)"/>
       <use xlink:href="#DejaVuSans-30" transform="translate(127.246094 0)"/>
      </g>
     </g>
    </g>
    <g id="xtick_3">
     <g id="text_3">
      <!-- 150 -->
      <g style="fill: #262626" transform="translate(176.067493 185.365789) scale(0.1 -0.1)">
       <use xlink:href="#DejaVuSans-31"/>
       <use xlink:href="#DejaVuSans-35" transform="translate(63.623047 0)"/>
       <use xlink:href="#DejaVuSans-30" transform="translate(127.246094 0)"/>
      </g>
     </g>
    </g>
    <g id="xtick_4">
     <g id="text_4">
      <!-- 200 -->
      <g style="fill: #262626" transform="translate(226.100568 185.365789) scale(0.1 -0.1)">
       <defs>
        <path id="DejaVuSans-32" d="M 1228 531 
L 3431 531 
L 3431 0 
L 469 0 
L 469 531 
Q 828 903 1448 1529 
Q 2069 2156 2228 2338 
Q 2531 2678 2651 2914 
Q 2772 3150 2772 3378 
Q 2772 3750 2511 3984 
Q 2250 4219 1831 4219 
Q 1534 4219 1204 4116 
Q 875 4013 500 3803 
L 500 4441 
Q 881 4594 1212 4672 
Q 1544 4750 1819 4750 
Q 2544 4750 2975 4387 
Q 3406 4025 3406 3419 
Q 3406 3131 3298 2873 
Q 3191 2616 2906 2266 
Q 2828 2175 2409 1742 
Q 1991 1309 1228 531 
z
" transform="scale(0.015625)"/>
       </defs>
       <use xlink:href="#DejaVuSans-32"/>
       <use xlink:href="#DejaVuSans-30" transform="translate(63.623047 0)"/>
       <use xlink:href="#DejaVuSans-30" transform="translate(127.246094 0)"/>
      </g>
     </g>
    </g>
    <g id="xtick_5">
     <g id="text_5">
      <!-- 250 -->
      <g style="fill: #262626" transform="translate(276.133642 185.365789) scale(0.1 -0.1)">
       <use xlink:href="#DejaVuSans-32"/>
       <use xlink:href="#DejaVuSans-35" transform="translate(63.623047 0)"/>
       <use xlink:href="#DejaVuSans-30" transform="translate(127.246094 0)"/>
      </g>
     </g>
    </g>
    <g id="text_6">
     <!-- draw -->
     <g style="fill: #262626" transform="translate(171.227107 199.043914) scale(0.1 -0.1)">
      <defs>
       <path id="DejaVuSans-64" d="M 2906 2969 
L 2906 4863 
L 3481 4863 
L 3481 0 
L 2906 0 
L 2906 525 
Q 2725 213 2448 61 
Q 2172 -91 1784 -91 
Q 1150 -91 751 415 
Q 353 922 353 1747 
Q 353 2572 751 3078 
Q 1150 3584 1784 3584 
Q 2172 3584 2448 3432 
Q 2725 3281 2906 2969 
z
M 947 1747 
Q 947 1113 1208 752 
Q 1469 391 1925 391 
Q 2381 391 2643 752 
Q 2906 1113 2906 1747 
Q 2906 2381 2643 2742 
Q 2381 3103 1925 3103 
Q 1469 3103 1208 2742 
Q 947 2381 947 1747 
z
" transform="scale(0.015625)"/>
       <path id="DejaVuSans-72" d="M 2631 2963 
Q 2534 3019 2420 3045 
Q 2306 3072 2169 3072 
Q 1681 3072 1420 2755 
Q 1159 2438 1159 1844 
L 1159 0 
L 581 0 
L 581 3500 
L 1159 3500 
L 1159 2956 
Q 1341 3275 1631 3429 
Q 1922 3584 2338 3584 
Q 2397 3584 2469 3576 
Q 2541 3569 2628 3553 
L 2631 2963 
z
" transform="scale(0.015625)"/>
       <path id="DejaVuSans-61" d="M 2194 1759 
Q 1497 1759 1228 1600 
Q 959 1441 959 1056 
Q 959 750 1161 570 
Q 1363 391 1709 391 
Q 2188 391 2477 730 
Q 2766 1069 2766 1631 
L 2766 1759 
L 2194 1759 
z
M 3341 1997 
L 3341 0 
L 2766 0 
L 2766 531 
Q 2569 213 2275 61 
Q 1981 -91 1556 -91 
Q 1019 -91 701 211 
Q 384 513 384 1019 
Q 384 1609 779 1909 
Q 1175 2209 1959 2209 
L 2766 2209 
L 2766 2266 
Q 2766 2663 2505 2880 
Q 2244 3097 1772 3097 
Q 1472 3097 1187 3025 
Q 903 2953 641 2809 
L 641 3341 
Q 956 3463 1253 3523 
Q 1550 3584 1831 3584 
Q 2591 3584 2966 3190 
Q 3341 2797 3341 1997 
z
" transform="scale(0.015625)"/>
       <path id="DejaVuSans-77" d="M 269 3500 
L 844 3500 
L 1563 769 
L 2278 3500 
L 2956 3500 
L 3675 769 
L 4391 3500 
L 4966 3500 
L 4050 0 
L 3372 0 
L 2619 2869 
L 1863 0 
L 1184 0 
L 269 3500 
z
" transform="scale(0.015625)"/>
      </defs>
      <use xlink:href="#DejaVuSans-64"/>
      <use xlink:href="#DejaVuSans-72" transform="translate(63.476562 0)"/>
      <use xlink:href="#DejaVuSans-61" transform="translate(104.589844 0)"/>
      <use xlink:href="#DejaVuSans-77" transform="translate(165.869141 0)"/>
     </g>
    </g>
   </g>
   <g id="matplotlib.axis_2">
    <g id="ytick_1">
     <g id="text_7">
      <!-- 0.05 -->
      <g style="fill: #262626" transform="translate(21.15625 166.955181) scale(0.1 -0.1)">
       <defs>
        <path id="DejaVuSans-2e" d="M 684 794 
L 1344 794 
L 1344 0 
L 684 0 
L 684 794 
z
" transform="scale(0.015625)"/>
       </defs>
       <use xlink:href="#DejaVuSans-30"/>
       <use xlink:href="#DejaVuSans-2e" transform="translate(63.623047 0)"/>
       <use xlink:href="#DejaVuSans-30" transform="translate(95.410156 0)"/>
       <use xlink:href="#DejaVuSans-35" transform="translate(159.033203 0)"/>
      </g>
     </g>
    </g>
    <g id="ytick_2">
     <g id="text_8">
      <!-- 0.10 -->
      <g style="fill: #262626" transform="translate(21.15625 134.823282) scale(0.1 -0.1)">
       <use xlink:href="#DejaVuSans-30"/>
       <use xlink:href="#DejaVuSans-2e" transform="translate(63.623047 0)"/>
       <use xlink:href="#DejaVuSans-31" transform="translate(95.410156 0)"/>
       <use xlink:href="#DejaVuSans-30" transform="translate(159.033203 0)"/>
      </g>
     </g>
    </g>
    <g id="ytick_3">
     <g id="text_9">
      <!-- 0.15 -->
      <g style="fill: #262626" transform="translate(21.15625 102.691383) scale(0.1 -0.1)">
       <use xlink:href="#DejaVuSans-30"/>
       <use xlink:href="#DejaVuSans-2e" transform="translate(63.623047 0)"/>
       <use xlink:href="#DejaVuSans-31" transform="translate(95.410156 0)"/>
       <use xlink:href="#DejaVuSans-35" transform="translate(159.033203 0)"/>
      </g>
     </g>
    </g>
    <g id="ytick_4">
     <g id="text_10">
      <!-- 0.20 -->
      <g style="fill: #262626" transform="translate(21.15625 70.559484) scale(0.1 -0.1)">
       <use xlink:href="#DejaVuSans-30"/>
       <use xlink:href="#DejaVuSans-2e" transform="translate(63.623047 0)"/>
       <use xlink:href="#DejaVuSans-32" transform="translate(95.410156 0)"/>
       <use xlink:href="#DejaVuSans-30" transform="translate(159.033203 0)"/>
      </g>
     </g>
    </g>
    <g id="ytick_5">
     <g id="text_11">
      <!-- 0.25 -->
      <g style="fill: #262626" transform="translate(21.15625 38.427586) scale(0.1 -0.1)">
       <use xlink:href="#DejaVuSans-30"/>
       <use xlink:href="#DejaVuSans-2e" transform="translate(63.623047 0)"/>
       <use xlink:href="#DejaVuSans-32" transform="translate(95.410156 0)"/>
       <use xlink:href="#DejaVuSans-35" transform="translate(159.033203 0)"/>
      </g>
     </g>
    </g>
    <g id="text_12">
     <!-- train_dtf -->
     <g style="fill: #262626" transform="translate(14.798437 110.015707) rotate(-90) scale(0.1 -0.1)">
      <defs>
       <path id="DejaVuSans-74" d="M 1172 4494 
L 1172 3500 
L 2356 3500 
L 2356 3053 
L 1172 3053 
L 1172 1153 
Q 1172 725 1289 603 
Q 1406 481 1766 481 
L 2356 481 
L 2356 0 
L 1766 0 
Q 1100 0 847 248 
Q 594 497 594 1153 
L 594 3053 
L 172 3053 
L 172 3500 
L 594 3500 
L 594 4494 
L 1172 4494 
z
" transform="scale(0.015625)"/>
       <path id="DejaVuSans-69" d="M 603 3500 
L 1178 3500 
L 1178 0 
L 603 0 
L 603 3500 
z
M 603 4863 
L 1178 4863 
L 1178 4134 
L 603 4134 
L 603 4863 
z
" transform="scale(0.015625)"/>
       <path id="DejaVuSans-6e" d="M 3513 2113 
L 3513 0 
L 2938 0 
L 2938 2094 
Q 2938 2591 2744 2837 
Q 2550 3084 2163 3084 
Q 1697 3084 1428 2787 
Q 1159 2491 1159 1978 
L 1159 0 
L 581 0 
L 581 3500 
L 1159 3500 
L 1159 2956 
Q 1366 3272 1645 3428 
Q 1925 3584 2291 3584 
Q 2894 3584 3203 3211 
Q 3513 2838 3513 2113 
z
" transform="scale(0.015625)"/>
       <path id="DejaVuSans-5f" d="M 3263 -1063 
L 3263 -1509 
L -63 -1509 
L -63 -1063 
L 3263 -1063 
z
" transform="scale(0.015625)"/>
       <path id="DejaVuSans-66" d="M 2375 4863 
L 2375 4384 
L 1825 4384 
Q 1516 4384 1395 4259 
Q 1275 4134 1275 3809 
L 1275 3500 
L 2222 3500 
L 2222 3053 
L 1275 3053 
L 1275 0 
L 697 0 
L 697 3053 
L 147 3053 
L 147 3500 
L 697 3500 
L 697 3744 
Q 697 4328 969 4595 
Q 1241 4863 1831 4863 
L 2375 4863 
z
" transform="scale(0.015625)"/>
      </defs>
      <use xlink:href="#DejaVuSans-74"/>
      <use xlink:href="#DejaVuSans-72" transform="translate(39.208984 0)"/>
      <use xlink:href="#DejaVuSans-61" transform="translate(80.322266 0)"/>
      <use xlink:href="#DejaVuSans-69" transform="translate(141.601562 0)"/>
      <use xlink:href="#DejaVuSans-6e" transform="translate(169.384766 0)"/>
      <use xlink:href="#DejaVuSans-5f" transform="translate(232.763672 0)"/>
      <use xlink:href="#DejaVuSans-64" transform="translate(282.763672 0)"/>
      <use xlink:href="#DejaVuSans-74" transform="translate(346.240234 0)"/>
      <use xlink:href="#DejaVuSans-66" transform="translate(385.449219 0)"/>
     </g>
    </g>
   </g>
   <g id="line2d_1">
    <path d="M 62.529879 44.891312 
L 63.530541 64.338336 
L 64.531202 162.544633 
L 65.531864 64.300394 
L 66.532525 57.367411 
L 67.533187 63.524105 
L 68.533848 67.521506 
L 69.53451 58.40982 
L 70.535171 162.822729 
L 71.535833 46.00115 
L 72.536494 44.132225 
L 73.537156 60.788502 
L 74.537817 69.157302 
L 75.538478 85.816437 
L 76.53914 162.878312 
L 77.539801 47.473119 
L 78.540463 52.001886 
L 79.541124 50.415241 
L 80.541786 50.813607 
L 81.542447 59.294243 
L 82.543109 162.514952 
L 83.54377 40.954984 
L 84.544432 51.034033 
L 85.545093 56.447911 
L 86.545755 63.223359 
L 87.546416 80.208375 
L 88.547078 163.133506 
L 89.547739 61.701195 
L 90.548401 131.12213 
L 91.549062 66.031516 
L 92.549724 44.894246 
L 93.550385 68.18166 
L 94.551047 162.627238 
L 95.551708 39.166302 
L 96.55237 46.270901 
L 98.553693 74.74073 
L 99.554354 44.653372 
L 100.555016 71.269664 
L 101.555677 62.515491 
L 102.556339 75.581223 
L 103.557 78.147637 
L 104.557662 89.943123 
L 105.558323 53.583397 
L 106.558985 163.067403 
L 107.559646 63.025235 
L 108.560308 73.197333 
L 109.560969 76.493627 
L 110.561631 134.850791 
L 111.562292 51.114301 
L 112.562954 162.506782 
L 113.563615 51.879896 
L 114.564277 62.553213 
L 115.564938 59.949999 
L 116.5656 79.09018 
L 117.566261 48.242461 
L 118.566923 162.57622 
L 119.567584 111.270797 
L 120.568246 51.004539 
L 121.568907 62.805395 
L 122.569569 143.51413 
L 123.57023 160.923292 
L 124.570892 162.620517 
L 125.571553 61.933399 
L 126.572215 72.538519 
L 127.572876 66.33216 
L 128.573538 77.242225 
L 129.574199 56.468804 
L 130.574861 162.871487 
L 131.575522 46.012257 
L 132.576184 60.971939 
L 133.576845 57.77602 
L 134.577507 50.86391 
L 135.578168 66.410619 
L 136.57883 162.878054 
L 137.579491 65.785503 
L 138.580153 91.637997 
L 139.580814 61.084696 
L 140.581476 56.573362 
L 141.582137 77.068769 
L 142.582799 163.332472 
L 143.58346 86.268326 
L 144.584122 64.901922 
L 145.584783 50.656554 
L 146.585445 76.240985 
L 147.586106 56.923911 
L 148.586768 163.126487 
L 149.587429 60.731133 
L 150.588091 62.061528 
L 151.588752 67.758729 
L 152.589414 55.329244 
L 153.590075 68.962613 
L 154.590737 162.968449 
L 155.591398 43.216693 
L 156.592059 82.067747 
L 157.592721 58.666681 
L 158.593382 71.066876 
L 159.594044 41.974654 
L 160.594705 162.90335 
L 161.595367 88.663097 
L 162.596028 90.54605 
L 163.59669 59.461763 
L 164.597351 14.63488 
L 165.598013 66.117821 
L 166.598674 162.924591 
L 167.599336 42.889492 
L 168.599997 82.872719 
L 169.600659 54.370992 
L 171.601982 29.691548 
L 172.602643 162.973632 
L 173.603305 89.041928 
L 174.603966 74.124013 
L 175.604628 40.888458 
L 176.605289 53.664341 
L 177.605951 92.701104 
L 178.606612 162.945528 
L 179.607274 69.103518 
L 180.607935 74.144616 
L 181.608597 68.719047 
L 182.609258 65.566279 
L 183.60992 43.431686 
L 184.610581 162.967844 
L 185.611243 57.477018 
L 186.611904 39.771516 
L 187.612566 52.197859 
L 188.613227 46.517713 
L 189.613889 45.974605 
L 190.61455 163.008587 
L 191.615212 93.885913 
L 192.615873 55.938637 
L 193.616535 54.960515 
L 194.617196 44.038325 
L 195.617858 60.93044 
L 196.618519 162.91905 
L 197.619181 69.825022 
L 198.619842 56.051552 
L 199.620504 57.072135 
L 200.621165 49.041308 
L 201.621827 50.796556 
L 202.622488 162.747691 
L 203.62315 147.264351 
L 204.623811 75.979726 
L 205.624473 106.795211 
L 206.625134 67.666793 
L 207.625796 53.249054 
L 208.626457 163.245994 
L 209.627119 71.880062 
L 210.62778 51.889172 
L 212.629103 69.774828 
L 213.629765 50.025533 
L 214.630426 163.031407 
L 215.631088 54.312568 
L 216.631749 55.283993 
L 217.632411 41.329036 
L 218.633072 51.732492 
L 219.633734 76.211716 
L 220.634395 163.169853 
L 221.635057 52.798987 
L 222.635718 121.022772 
L 223.63638 62.313733 
L 224.637041 56.279453 
L 225.637703 46.416614 
L 226.638364 163.046647 
L 227.639026 40.61907 
L 228.639687 71.975526 
L 229.640349 53.010574 
L 230.64101 46.249832 
L 231.641672 50.17788 
L 232.642333 163.049776 
L 233.642995 58.324032 
L 234.643656 81.385858 
L 235.644318 54.045926 
L 236.644979 55.557563 
L 237.64564 50.231241 
L 238.646302 163.082181 
L 239.646963 48.786951 
L 240.647625 64.716005 
L 241.648286 92.581809 
L 242.648948 74.048484 
L 243.649609 51.848152 
L 244.650271 163.215135 
L 245.650932 73.780728 
L 246.651594 57.671521 
L 247.652255 98.250269 
L 248.652917 85.487576 
L 249.653578 70.029726 
L 250.65424 163.158959 
L 251.654901 45.433097 
L 252.655563 87.080414 
L 253.656224 55.656831 
L 254.656886 70.87828 
L 255.657547 60.858041 
L 256.658209 163.079116 
L 257.65887 65.778496 
L 258.659532 66.767227 
L 259.660193 51.350751 
L 260.660855 87.306448 
L 261.661516 43.072412 
L 262.662178 162.603291 
L 263.662839 45.382007 
L 264.663501 61.064302 
L 265.664162 131.82368 
L 266.664824 66.284357 
L 267.665485 51.002186 
L 268.666147 162.648842 
L 269.666808 96.438846 
L 270.66747 50.381379 
L 271.668131 51.257168 
L 272.668793 47.505374 
L 273.669454 68.652325 
L 274.670116 163.177187 
L 275.670777 62.765807 
L 276.671439 54.395315 
L 277.6721 69.292563 
L 278.672762 67.986057 
L 279.673423 70.12336 
L 280.674085 163.123806 
L 281.674746 76.812873 
L 282.675408 61.955009 
L 283.676069 82.196677 
L 284.676731 74.776943 
L 285.677392 87.336039 
L 286.678054 162.712067 
L 287.678715 61.841215 
L 288.679377 61.481784 
L 289.680038 69.859893 
L 290.6807 92.251658 
L 291.681361 73.625839 
L 292.682023 162.571729 
L 293.682684 56.100652 
L 294.683346 51.329047 
L 295.684007 64.719765 
L 296.684669 66.921898 
L 297.68533 73.779807 
L 298.685992 163.294772 
L 299.686653 51.140819 
L 300.687315 98.80655 
L 301.687976 58.596609 
L 302.688638 42.788843 
L 303.689299 109.477163 
L 304.689961 162.690087 
L 304.689961 162.690087 
" clip-path="url(#pab0c97eaa4)" style="fill: none; stroke: #8b2be2; stroke-width: 1.5; stroke-linecap: round"/>
   </g>
  </g>
 </g>
 <defs>
  <clipPath id="pab0c97eaa4">
   <rect x="50.421875" y="7.2" width="266.37609" height="163.567352"/>
  </clipPath>
 </defs>
</svg>
