<?xml version="1.0" encoding="utf-8" standalone="no"?>
<!DOCTYPE svg PUBLIC "-//W3C//DTD SVG 1.1//EN"
  "http://www.w3.org/Graphics/SVG/1.1/DTD/svg11.dtd">
<svg xmlns:xlink="http://www.w3.org/1999/xlink" width="323.997965pt" height="208.323602pt" viewBox="0 0 323.997965 208.323602" xmlns="http://www.w3.org/2000/svg" version="1.1">
 <metadata>
  <rdf:RDF xmlns:dc="http://purl.org/dc/elements/1.1/" xmlns:cc="http://creativecommons.org/ns#" xmlns:rdf="http://www.w3.org/1999/02/22-rdf-syntax-ns#">
   <cc:Work>
    <dc:type rdf:resource="http://purl.org/dc/dcmitype/StillImage"/>
    <dc:date>2025-11-25T20:05:07.682628</dc:date>
    <dc:format>image/svg+xml</dc:format>
    <dc:creator>
     <cc:Agent>
      <dc:title>Matplotlib v3.10.6, https://matplotlib.org/</dc:title>
     </cc:Agent>
    </dc:creator>
   </cc:Work>
  </rdf:RDF>
 </metadata>
 <defs>
  <style type="text/css">*{stroke-linejoin: round; stroke-linecap: butt}</style>
 </defs>
 <g id="figure_1">
  <g id="patch_1">
   <path d="M 0 208.323602 
L 323.997965 208.323602 
L 323.997965 0 
L 0 0 
L 0 208.323602 
z
" style="fill: none"/>
  </g>
  <g id="axes_1">
   <g id="patch_2">
    <path d="M 50.421875 170.767352 
L 316.797965 170.767352 
L 316.797965 7.2 
L 50.421875 7.2 
L 50.421875 170.767352 
z
" style="fill: none"/>
   </g>
   <g id="matplotlib.axis_1">
    <g id="xtick_1">
     <g id="text_1">
      <!-- 50 -->
      <g style="fill: #262626" transform="translate(79.182593 185.365789) scale(0.1 -0.1)">
       <defs>
        <path id="DejaVuSans-35" d="M 691 4666 
L 3169 4666 
L 3169 4134 
L 1269 4134 
L 1269 2991 
Q 1406 3038 1543 3061 
Q 1681 3084 1819 3084 
Q 2600 3084 3056 2656 
Q 3513 2228 3513 1497 
Q 3513 744 3044 326 
Q 2575 -91 1722 -91 
Q 1428 -91 1123 -41 
Q 819 9 494 109 
L 494 744 
Q 775 591 1075 516 
Q 1375 441 1709 441 
Q 2250 441 2565 725 
Q 2881 1009 2881 1497 
Q 2881 1984 2565 2268 
Q 2250 2553 1709 2553 
Q 1456 2553 1204 2497 
Q 953 2441 691 2322 
L 691 4666 
z
" transform="scale(0.015625)"/>
        <path id="DejaVuSans-30" d="M 2034 4250 
Q 1547 4250 1301 3770 
Q 1056 3291 1056 2328 
Q 1056 1369 1301 889 
Q 1547 409 2034 409 
Q 2525 409 2770 889 
Q 3016 1369 3016 2328 
Q 3016 3291 2770 3770 
Q 2525 4250 2034 4250 
z
M 2034 4750 
Q 2819 4750 3233 4129 
Q 3647 3509 3647 2328 
Q 3647 1150 3233 529 
Q 2819 -91 2034 -91 
Q 1250 -91 836 529 
Q 422 1150 422 2328 
Q 422 3509 836 4129 
Q 1250 4750 2034 4750 
z
" transform="scale(0.015625)"/>
       </defs>
       <use xlink:href="#DejaVuSans-35"/>
       <use xlink:href="#DejaVuSans-30" transform="translate(63.623047 0)"/>
      </g>
     </g>
    </g>
    <g id="xtick_2">
     <g id="text_2">
      <!-- 100 -->
      <g style="fill: #262626" transform="translate(126.034418 185.365789) scale(0.1 -0.1)">
       <defs>
        <path id="DejaVuSans-31" d="M 794 531 
L 1825 531 
L 1825 4091 
L 703 3866 
L 703 4441 
L 1819 4666 
L 2450 4666 
L 2450 531 
L 3481 531 
L 3481 0 
L 794 0 
L 794 531 
z
" transform="scale(0.015625)"/>
       </defs>
       <use xlink:href="#DejaVuSans-31"/>
       <use xlink:href="#DejaVuSans-30" transform="translate(63.623047 0)"/>
       <use xlink:href="#DejaVuSans-30" transform="translate(127.246094 0)"/>
      </g>
     </g>
    </g>
    <g id="xtick_3">
     <g id="text_3">
      <!-- 150 -->
      <g style="fill: #262626" transform="translate(176.067493 185.365789) scale(0.1 -0.1)">
       <use xlink:href="#DejaVuSans-31"/>
       <use xlink:href="#DejaVuSans-35" transform="translate(63.623047 0)"/>
       <use xlink:href="#DejaVuSans-30" transform="translate(127.246094 0)"/>
      </g>
     </g>
    </g>
    <g id="xtick_4">
     <g id="text_4">
      <!-- 200 -->
      <g style="fill: #262626" transform="translate(226.100568 185.365789) scale(0.1 -0.1)">
       <defs>
        <path id="DejaVuSans-32" d="M 1228 531 
L 3431 531 
L 3431 0 
L 469 0 
L 469 531 
Q 828 903 1448 1529 
Q 2069 2156 2228 2338 
Q 2531 2678 2651 2914 
Q 2772 3150 2772 3378 
Q 2772 3750 2511 3984 
Q 2250 4219 1831 4219 
Q 1534 4219 1204 4116 
Q 875 4013 500 3803 
L 500 4441 
Q 881 4594 1212 4672 
Q 1544 4750 1819 4750 
Q 2544 4750 2975 4387 
Q 3406 4025 3406 3419 
Q 3406 3131 3298 2873 
Q 3191 2616 2906 2266 
Q 2828 2175 2409 1742 
Q 1991 1309 1228 531 
z
" transform="scale(0.015625)"/>
       </defs>
       <use xlink:href="#DejaVuSans-32"/>
       <use xlink:href="#DejaVuSans-30" transform="translate(63.623047 0)"/>
       <use xlink:href="#DejaVuSans-30" transform="translate(127.246094 0)"/>
      </g>
     </g>
    </g>
    <g id="xtick_5">
     <g id="text_5">
      <!-- 250 -->
      <g style="fill: #262626" transform="translate(276.133642 185.365789) scale(0.1 -0.1)">
       <use xlink:href="#DejaVuSans-32"/>
       <use xlink:href="#DejaVuSans-35" transform="translate(63.623047 0)"/>
       <use xlink:href="#DejaVuSans-30" transform="translate(127.246094 0)"/>
      </g>
     </g>
    </g>
    <g id="text_6">
     <!-- draw -->
     <g style="fill: #262626" transform="translate(171.227107 199.043914) scale(0.1 -0.1)">
      <defs>
       <path id="DejaVuSans-64" d="M 2906 2969 
L 2906 4863 
L 3481 4863 
L 3481 0 
L 2906 0 
L 2906 525 
Q 2725 213 2448 61 
Q 2172 -91 1784 -91 
Q 1150 -91 751 415 
Q 353 922 353 1747 
Q 353 2572 751 3078 
Q 1150 3584 1784 3584 
Q 2172 3584 2448 3432 
Q 2725 3281 2906 2969 
z
M 947 1747 
Q 947 1113 1208 752 
Q 1469 391 1925 391 
Q 2381 391 2643 752 
Q 2906 1113 2906 1747 
Q 2906 2381 2643 2742 
Q 2381 3103 1925 3103 
Q 1469 3103 1208 2742 
Q 947 2381 947 1747 
z
" transform="scale(0.015625)"/>
       <path id="DejaVuSans-72" d="M 2631 2963 
Q 2534 3019 2420 3045 
Q 2306 3072 2169 3072 
Q 1681 3072 1420 2755 
Q 1159 2438 1159 1844 
L 1159 0 
L 581 0 
L 581 3500 
L 1159 3500 
L 1159 2956 
Q 1341 3275 1631 3429 
Q 1922 3584 2338 3584 
Q 2397 3584 2469 3576 
Q 2541 3569 2628 3553 
L 2631 2963 
z
" transform="scale(0.015625)"/>
       <path id="DejaVuSans-61" d="M 2194 1759 
Q 1497 1759 1228 1600 
Q 959 1441 959 1056 
Q 959 750 1161 570 
Q 1363 391 1709 391 
Q 2188 391 2477 730 
Q 2766 1069 2766 1631 
L 2766 1759 
L 2194 1759 
z
M 3341 1997 
L 3341 0 
L 2766 0 
L 2766 531 
Q 2569 213 2275 61 
Q 1981 -91 1556 -91 
Q 1019 -91 701 211 
Q 384 513 384 1019 
Q 384 1609 779 1909 
Q 1175 2209 1959 2209 
L 2766 2209 
L 2766 2266 
Q 2766 2663 2505 2880 
Q 2244 3097 1772 3097 
Q 1472 3097 1187 3025 
Q 903 2953 641 2809 
L 641 3341 
Q 956 3463 1253 3523 
Q 1550 3584 1831 3584 
Q 2591 3584 2966 3190 
Q 3341 2797 3341 1997 
z
" transform="scale(0.015625)"/>
       <path id="DejaVuSans-77" d="M 269 3500 
L 844 3500 
L 1563 769 
L 2278 3500 
L 2956 3500 
L 3675 769 
L 4391 3500 
L 4966 3500 
L 4050 0 
L 3372 0 
L 2619 2869 
L 1863 0 
L 1184 0 
L 269 3500 
z
" transform="scale(0.015625)"/>
      </defs>
      <use xlink:href="#DejaVuSans-64"/>
      <use xlink:href="#DejaVuSans-72" transform="translate(63.476562 0)"/>
      <use xlink:href="#DejaVuSans-61" transform="translate(104.589844 0)"/>
      <use xlink:href="#DejaVuSans-77" transform="translate(165.869141 0)"/>
     </g>
    </g>
   </g>
   <g id="matplotlib.axis_2">
    <g id="ytick_1">
     <g id="text_7">
      <!-- 0.15 -->
      <g style="fill: #262626" transform="translate(21.15625 149.567349) scale(0.1 -0.1)">
       <defs>
        <path id="DejaVuSans-2e" d="M 684 794 
L 1344 794 
L 1344 0 
L 684 0 
L 684 794 
z
" transform="scale(0.015625)"/>
       </defs>
       <use xlink:href="#DejaVuSans-30"/>
       <use xlink:href="#DejaVuSans-2e" transform="translate(63.623047 0)"/>
       <use xlink:href="#DejaVuSans-31" transform="translate(95.410156 0)"/>
       <use xlink:href="#DejaVuSans-35" transform="translate(159.033203 0)"/>
      </g>
     </g>
    </g>
    <g id="ytick_2">
     <g id="text_8">
      <!-- 0.20 -->
      <g style="fill: #262626" transform="translate(21.15625 117.734041) scale(0.1 -0.1)">
       <use xlink:href="#DejaVuSans-30"/>
       <use xlink:href="#DejaVuSans-2e" transform="translate(63.623047 0)"/>
       <use xlink:href="#DejaVuSans-32" transform="translate(95.410156 0)"/>
       <use xlink:href="#DejaVuSans-30" transform="translate(159.033203 0)"/>
      </g>
     </g>
    </g>
    <g id="ytick_3">
     <g id="text_9">
      <!-- 0.25 -->
      <g style="fill: #262626" transform="translate(21.15625 85.900734) scale(0.1 -0.1)">
       <use xlink:href="#DejaVuSans-30"/>
       <use xlink:href="#DejaVuSans-2e" transform="translate(63.623047 0)"/>
       <use xlink:href="#DejaVuSans-32" transform="translate(95.410156 0)"/>
       <use xlink:href="#DejaVuSans-35" transform="translate(159.033203 0)"/>
      </g>
     </g>
    </g>
    <g id="ytick_4">
     <g id="text_10">
      <!-- 0.30 -->
      <g style="fill: #262626" transform="translate(21.15625 54.067426) scale(0.1 -0.1)">
       <defs>
        <path id="DejaVuSans-33" d="M 2597 2516 
Q 3050 2419 3304 2112 
Q 3559 1806 3559 1356 
Q 3559 666 3084 287 
Q 2609 -91 1734 -91 
Q 1441 -91 1130 -33 
Q 819 25 488 141 
L 488 750 
Q 750 597 1062 519 
Q 1375 441 1716 441 
Q 2309 441 2620 675 
Q 2931 909 2931 1356 
Q 2931 1769 2642 2001 
Q 2353 2234 1838 2234 
L 1294 2234 
L 1294 2753 
L 1863 2753 
Q 2328 2753 2575 2939 
Q 2822 3125 2822 3475 
Q 2822 3834 2567 4026 
Q 2313 4219 1838 4219 
Q 1578 4219 1281 4162 
Q 984 4106 628 3988 
L 628 4550 
Q 988 4650 1302 4700 
Q 1616 4750 1894 4750 
Q 2613 4750 3031 4423 
Q 3450 4097 3450 3541 
Q 3450 3153 3228 2886 
Q 3006 2619 2597 2516 
z
" transform="scale(0.015625)"/>
       </defs>
       <use xlink:href="#DejaVuSans-30"/>
       <use xlink:href="#DejaVuSans-2e" transform="translate(63.623047 0)"/>
       <use xlink:href="#DejaVuSans-33" transform="translate(95.410156 0)"/>
       <use xlink:href="#DejaVuSans-30" transform="translate(159.033203 0)"/>
      </g>
     </g>
    </g>
    <g id="ytick_5">
     <g id="text_11">
      <!-- 0.35 -->
      <g style="fill: #262626" transform="translate(21.15625 22.234119) scale(0.1 -0.1)">
       <use xlink:href="#DejaVuSans-30"/>
       <use xlink:href="#DejaVuSans-2e" transform="translate(63.623047 0)"/>
       <use xlink:href="#DejaVuSans-33" transform="translate(95.410156 0)"/>
       <use xlink:href="#DejaVuSans-35" transform="translate(159.033203 0)"/>
      </g>
     </g>
    </g>
    <g id="text_12">
     <!-- train_dt -->
     <g style="fill: #262626" transform="translate(14.798437 108.255551) rotate(-90) scale(0.1 -0.1)">
      <defs>
       <path id="DejaVuSans-74" d="M 1172 4494 
L 1172 3500 
L 2356 3500 
L 2356 3053 
L 1172 3053 
L 1172 1153 
Q 1172 725 1289 603 
Q 1406 481 1766 481 
L 2356 481 
L 2356 0 
L 1766 0 
Q 1100 0 847 248 
Q 594 497 594 1153 
L 594 3053 
L 172 3053 
L 172 3500 
L 594 3500 
L 594 4494 
L 1172 4494 
z
" transform="scale(0.015625)"/>
       <path id="DejaVuSans-69" d="M 603 3500 
L 1178 3500 
L 1178 0 
L 603 0 
L 603 3500 
z
M 603 4863 
L 1178 4863 
L 1178 4134 
L 603 4134 
L 603 4863 
z
" transform="scale(0.015625)"/>
       <path id="DejaVuSans-6e" d="M 3513 2113 
L 3513 0 
L 2938 0 
L 2938 2094 
Q 2938 2591 2744 2837 
Q 2550 3084 2163 3084 
Q 1697 3084 1428 2787 
Q 1159 2491 1159 1978 
L 1159 0 
L 581 0 
L 581 3500 
L 1159 3500 
L 1159 2956 
Q 1366 3272 1645 3428 
Q 1925 3584 2291 3584 
Q 2894 3584 3203 3211 
Q 3513 2838 3513 2113 
z
" transform="scale(0.015625)"/>
       <path id="DejaVuSans-5f" d="M 3263 -1063 
L 3263 -1509 
L -63 -1509 
L -63 -1063 
L 3263 -1063 
z
" transform="scale(0.015625)"/>
      </defs>
      <use xlink:href="#DejaVuSans-74"/>
      <use xlink:href="#DejaVuSans-72" transform="translate(39.208984 0)"/>
      <use xlink:href="#DejaVuSans-61" transform="translate(80.322266 0)"/>
      <use xlink:href="#DejaVuSans-69" transform="translate(141.601562 0)"/>
      <use xlink:href="#DejaVuSans-6e" transform="translate(169.384766 0)"/>
      <use xlink:href="#DejaVuSans-5f" transform="translate(232.763672 0)"/>
      <use xlink:href="#DejaVuSans-64" transform="translate(282.763672 0)"/>
      <use xlink:href="#DejaVuSans-74" transform="translate(346.240234 0)"/>
     </g>
    </g>
   </g>
   <g id="line2d_1">
    <path d="M 62.529879 43.425465 
L 63.530541 58.578127 
L 64.531202 160.306657 
L 65.531864 48.817406 
L 66.532525 55.842769 
L 67.533187 52.858785 
L 68.533848 55.279346 
L 69.53451 56.955619 
L 70.535171 161.096462 
L 71.535833 44.247866 
L 72.536494 42.581627 
L 73.537156 59.29403 
L 74.537817 50.73444 
L 75.538478 76.393838 
L 76.53914 162.69276 
L 77.539801 45.962615 
L 78.540463 50.815914 
L 79.541124 49.133282 
L 80.541786 49.800593 
L 81.542447 57.477192 
L 82.543109 159.962008 
L 83.54377 34.509266 
L 84.544432 48.939117 
L 85.545093 54.388695 
L 86.545755 62.041476 
L 87.546416 73.843237 
L 88.547078 162.555684 
L 89.547739 61.367799 
L 90.548401 81.907535 
L 91.549062 59.156953 
L 92.549724 44.230739 
L 93.550385 55.372143 
L 94.551047 160.92836 
L 95.551708 38.634364 
L 96.55237 46.479174 
L 97.553031 59.995939 
L 98.553693 61.559381 
L 99.554354 44.568047 
L 100.555016 71.887199 
L 101.555677 58.40269 
L 102.556339 64.621841 
L 103.557 62.798203 
L 104.557662 66.617676 
L 105.558323 51.224074 
L 106.558985 162.698565 
L 107.559646 56.024489 
L 108.560308 62.629705 
L 109.560969 68.452292 
L 110.561631 79.963335 
L 111.562292 49.158496 
L 112.562954 160.400473 
L 113.563615 50.176694 
L 114.564277 55.92208 
L 115.564938 59.165942 
L 116.5656 72.715863 
L 117.566261 46.451867 
L 118.566923 160.122155 
L 119.567584 84.516807 
L 120.568246 49.053734 
L 121.568907 60.574492 
L 122.569569 137.206062 
L 123.57023 138.331766 
L 124.570892 161.44559 
L 125.571553 57.484604 
L 126.572215 64.36736 
L 127.572876 53.737655 
L 128.573538 61.133546 
L 129.574199 55.470048 
L 130.574861 161.211685 
L 131.575522 44.529233 
L 132.576184 59.335484 
L 133.576845 57.250126 
L 134.577507 50.44334 
L 135.578168 63.595529 
L 136.57883 162.192779 
L 137.579491 61.709144 
L 138.580153 72.99705 
L 139.580814 53.185644 
L 140.581476 56.332199 
L 141.582137 62.816324 
L 142.582799 163.332472 
L 143.58346 64.487928 
L 144.584122 59.75486 
L 145.584783 48.441039 
L 146.585445 62.917368 
L 147.586106 52.99999 
L 148.586768 161.786961 
L 149.587429 52.550591 
L 150.588091 61.009654 
L 151.588752 60.655641 
L 152.589414 54.736496 
L 153.590075 53.639465 
L 154.590737 162.217645 
L 155.591398 41.54494 
L 156.592059 67.131944 
L 157.592721 56.696202 
L 158.593382 51.884487 
L 159.594044 40.933799 
L 160.594705 162.885969 
L 161.595367 71.723388 
L 162.596028 66.136907 
L 163.59669 59.05119 
L 164.597351 14.63488 
L 165.598013 65.790656 
L 166.598674 162.928509 
L 167.599336 41.043741 
L 168.599997 72.249476 
L 169.600659 54.140644 
L 171.601982 29.063764 
L 172.602643 162.379196 
L 173.603305 76.921443 
L 174.603966 65.596019 
L 175.604628 39.843357 
L 176.605289 52.84557 
L 177.605951 72.80784 
L 178.606612 162.301638 
L 179.607274 59.07328 
L 180.607935 68.904968 
L 181.608597 63.427114 
L 182.609258 59.607278 
L 183.60992 42.295161 
L 184.610581 161.774637 
L 185.611243 45.021977 
L 186.611904 39.083448 
L 187.612566 50.773709 
L 188.613227 43.043084 
L 189.613889 45.252284 
L 190.61455 162.521113 
L 191.615212 76.165967 
L 192.615873 53.84661 
L 193.616535 52.652199 
L 194.617196 42.122387 
L 195.617858 56.328832 
L 196.618519 160.338874 
L 197.619181 67.583646 
L 198.619842 53.262737 
L 199.620504 53.093825 
L 200.621165 48.280577 
L 201.621827 48.699562 
L 202.622488 160.464539 
L 203.62315 86.125861 
L 204.623811 61.229562 
L 205.624473 79.857091 
L 206.625134 60.834433 
L 207.625796 51.960213 
L 208.626457 162.148313 
L 209.627119 66.42758 
L 210.62778 43.422699 
L 211.628442 60.170873 
L 212.629103 58.968791 
L 213.629765 49.09614 
L 214.630426 162.605832 
L 215.631088 53.94947 
L 216.631749 54.60361 
L 217.632411 40.714061 
L 218.633072 44.958196 
L 219.633734 63.862703 
L 220.634395 162.477845 
L 221.635057 50.475916 
L 222.635718 84.889712 
L 223.63638 60.383989 
L 225.637703 44.49447 
L 226.638364 160.706377 
L 227.639026 39.975061 
L 228.639687 66.75821 
L 229.640349 51.547975 
L 230.64101 44.889434 
L 231.641672 48.865126 
L 232.642333 161.287316 
L 233.642995 56.476714 
L 234.643656 67.760436 
L 235.644318 52.440732 
L 236.644979 44.02586 
L 237.64564 49.273057 
L 238.646302 162.159566 
L 239.646963 46.811616 
L 240.647625 63.314283 
L 241.648286 73.388346 
L 242.648948 70.897996 
L 243.649609 51.109631 
L 244.650271 162.009254 
L 245.650932 68.366205 
L 246.651594 56.943131 
L 247.652255 61.607011 
L 248.652917 73.881757 
L 249.653578 63.517455 
L 250.65424 161.427939 
L 251.654901 44.836473 
L 252.655563 73.956846 
L 253.656224 55.084704 
L 254.656886 68.10923 
L 255.657547 57.385666 
L 256.658209 162.623258 
L 257.65887 63.672666 
L 258.659532 59.372411 
L 259.660193 50.803215 
L 260.660855 71.821039 
L 261.661516 41.165048 
L 262.662178 160.845566 
L 263.662839 43.733618 
L 264.663501 59.195921 
L 265.664162 86.070035 
L 266.664824 64.167588 
L 267.665485 48.637154 
L 268.666147 159.727548 
L 269.666808 75.307197 
L 270.66747 49.956768 
L 271.668131 50.784686 
L 272.668793 38.702228 
L 273.669454 64.17618 
L 274.670116 162.910933 
L 275.670777 61.18252 
L 276.671439 54.151449 
L 277.6721 68.767184 
L 278.672762 61.871633 
L 279.673423 59.229045 
L 280.674085 162.515696 
L 281.674746 63.608554 
L 282.675408 55.436924 
L 283.676069 59.08813 
L 284.676731 64.191342 
L 285.677392 76.824056 
L 286.678054 160.088258 
L 287.678715 59.494102 
L 288.679377 59.357938 
L 289.680038 67.538352 
L 290.6807 61.988387 
L 291.681361 68.659609 
L 292.682023 160.936129 
L 293.682684 42.384369 
L 294.683346 50.268471 
L 295.684007 63.33104 
L 296.684669 65.480886 
L 297.68533 71.218234 
L 298.685992 161.861327 
L 299.686653 50.333124 
L 300.687315 78.40532 
L 301.687976 56.367148 
L 302.688638 40.306072 
L 303.689299 79.295691 
L 304.689961 159.872005 
L 304.689961 159.872005 
" clip-path="url(#p6e489252f9)" style="fill: none; stroke: #e8000b; stroke-width: 1.5; stroke-linecap: round"/>
   </g>
  </g>
 </g>
 <defs>
  <clipPath id="p6e489252f9">
   <rect x="50.421875" y="7.2" width="266.37609" height="163.567352"/>
  </clipPath>
 </defs>
</svg>
