<?xml version="1.0" encoding="utf-8" standalone="no"?>
<!DOCTYPE svg PUBLIC "-//W3C//DTD SVG 1.1//EN"
  "http://www.w3.org/Graphics/SVG/1.1/DTD/svg11.dtd">
<svg xmlns:xlink="http://www.w3.org/1999/xlink" width="323.997965pt" height="208.323602pt" viewBox="0 0 323.997965 208.323602" xmlns="http://www.w3.org/2000/svg" version="1.1">
 <metadata>
  <rdf:RDF xmlns:dc="http://purl.org/dc/elements/1.1/" xmlns:cc="http://creativecommons.org/ns#" xmlns:rdf="http://www.w3.org/1999/02/22-rdf-syntax-ns#">
   <cc:Work>
    <dc:type rdf:resource="http://purl.org/dc/dcmitype/StillImage"/>
    <dc:date>2025-11-25T20:05:08.040115</dc:date>
    <dc:format>image/svg+xml</dc:format>
    <dc:creator>
     <cc:Agent>
      <dc:title>Matplotlib v3.10.6, https://matplotlib.org/</dc:title>
     </cc:Agent>
    </dc:creator>
   </cc:Work>
  </rdf:RDF>
 </metadata>
 <defs>
  <style type="text/css">*{stroke-linejoin: round; stroke-linecap: butt}</style>
 </defs>
 <g id="figure_1">
  <g id="patch_1">
   <path d="M 0 208.323602 
L 323.997965 208.323602 
L 323.997965 0 
L 0 0 
L 0 208.323602 
z
" style="fill: none"/>
  </g>
  <g id="axes_1">
   <g id="patch_2">
    <path d="M 50.421875 170.767352 
L 316.797965 170.767352 
L 316.797965 7.2 
L 50.421875 7.2 
L 50.421875 170.767352 
z
" style="fill: none"/>
   </g>
   <g id="matplotlib.axis_1">
    <g id="xtick_1">
     <g id="text_1">
      <!-- 50 -->
      <g style="fill: #262626" transform="translate(79.182593 185.365789) scale(0.1 -0.1)">
       <defs>
        <path id="DejaVuSans-35" d="M 691 4666 
L 3169 4666 
L 3169 4134 
L 1269 4134 
L 1269 2991 
Q 1406 3038 1543 3061 
Q 1681 3084 1819 3084 
Q 2600 3084 3056 2656 
Q 3513 2228 3513 1497 
Q 3513 744 3044 326 
Q 2575 -91 1722 -91 
Q 1428 -91 1123 -41 
Q 819 9 494 109 
L 494 744 
Q 775 591 1075 516 
Q 1375 441 1709 441 
Q 2250 441 2565 725 
Q 2881 1009 2881 1497 
Q 2881 1984 2565 2268 
Q 2250 2553 1709 2553 
Q 1456 2553 1204 2497 
Q 953 2441 691 2322 
L 691 4666 
z
" transform="scale(0.015625)"/>
        <path id="DejaVuSans-30" d="M 2034 4250 
Q 1547 4250 1301 3770 
Q 1056 3291 1056 2328 
Q 1056 1369 1301 889 
Q 1547 409 2034 409 
Q 2525 409 2770 889 
Q 3016 1369 3016 2328 
Q 3016 3291 2770 3770 
Q 2525 4250 2034 4250 
z
M 2034 4750 
Q 2819 4750 3233 4129 
Q 3647 3509 3647 2328 
Q 3647 1150 3233 529 
Q 2819 -91 2034 -91 
Q 1250 -91 836 529 
Q 422 1150 422 2328 
Q 422 3509 836 4129 
Q 1250 4750 2034 4750 
z
" transform="scale(0.015625)"/>
       </defs>
       <use xlink:href="#DejaVuSans-35"/>
       <use xlink:href="#DejaVuSans-30" transform="translate(63.623047 0)"/>
      </g>
     </g>
    </g>
    <g id="xtick_2">
     <g id="text_2">
      <!-- 100 -->
      <g style="fill: #262626" transform="translate(126.034418 185.365789) scale(0.1 -0.1)">
       <defs>
        <path id="DejaVuSans-31" d="M 794 531 
L 1825 531 
L 1825 4091 
L 703 3866 
L 703 4441 
L 1819 4666 
L 2450 4666 
L 2450 531 
L 3481 531 
L 3481 0 
L 794 0 
L 794 531 
z
" transform="scale(0.015625)"/>
       </defs>
       <use xlink:href="#DejaVuSans-31"/>
       <use xlink:href="#DejaVuSans-30" transform="translate(63.623047 0)"/>
       <use xlink:href="#DejaVuSans-30" transform="translate(127.246094 0)"/>
      </g>
     </g>
    </g>
    <g id="xtick_3">
     <g id="text_3">
      <!-- 150 -->
      <g style="fill: #262626" transform="translate(176.067493 185.365789) scale(0.1 -0.1)">
       <use xlink:href="#DejaVuSans-31"/>
       <use xlink:href="#DejaVuSans-35" transform="translate(63.623047 0)"/>
       <use xlink:href="#DejaVuSans-30" transform="translate(127.246094 0)"/>
      </g>
     </g>
    </g>
    <g id="xtick_4">
     <g id="text_4">
      <!-- 200 -->
      <g style="fill: #262626" transform="translate(226.100568 185.365789) scale(0.1 -0.1)">
       <defs>
        <path id="DejaVuSans-32" d="M 1228 531 
L 3431 531 
L 3431 0 
L 469 0 
L 469 531 
Q 828 903 1448 1529 
Q 2069 2156 2228 2338 
Q 2531 2678 2651 2914 
Q 2772 3150 2772 3378 
Q 2772 3750 2511 3984 
Q 2250 4219 1831 4219 
Q 1534 4219 1204 4116 
Q 875 4013 500 3803 
L 500 4441 
Q 881 4594 1212 4672 
Q 1544 4750 1819 4750 
Q 2544 4750 2975 4387 
Q 3406 4025 3406 3419 
Q 3406 3131 3298 2873 
Q 3191 2616 2906 2266 
Q 2828 2175 2409 1742 
Q 1991 1309 1228 531 
z
" transform="scale(0.015625)"/>
       </defs>
       <use xlink:href="#DejaVuSans-32"/>
       <use xlink:href="#DejaVuSans-30" transform="translate(63.623047 0)"/>
       <use xlink:href="#DejaVuSans-30" transform="translate(127.246094 0)"/>
      </g>
     </g>
    </g>
    <g id="xtick_5">
     <g id="text_5">
      <!-- 250 -->
      <g style="fill: #262626" transform="translate(276.133642 185.365789) scale(0.1 -0.1)">
       <use xlink:href="#DejaVuSans-32"/>
       <use xlink:href="#DejaVuSans-35" transform="translate(63.623047 0)"/>
       <use xlink:href="#DejaVuSans-30" transform="translate(127.246094 0)"/>
      </g>
     </g>
    </g>
    <g id="text_6">
     <!-- draw -->
     <g style="fill: #262626" transform="translate(171.227107 199.043914) scale(0.1 -0.1)">
      <defs>
       <path id="DejaVuSans-64" d="M 2906 2969 
L 2906 4863 
L 3481 4863 
L 3481 0 
L 2906 0 
L 2906 525 
Q 2725 213 2448 61 
Q 2172 -91 1784 -91 
Q 1150 -91 751 415 
Q 353 922 353 1747 
Q 353 2572 751 3078 
Q 1150 3584 1784 3584 
Q 2172 3584 2448 3432 
Q 2725 3281 2906 2969 
z
M 947 1747 
Q 947 1113 1208 752 
Q 1469 391 1925 391 
Q 2381 391 2643 752 
Q 2906 1113 2906 1747 
Q 2906 2381 2643 2742 
Q 2381 3103 1925 3103 
Q 1469 3103 1208 2742 
Q 947 2381 947 1747 
z
" transform="scale(0.015625)"/>
       <path id="DejaVuSans-72" d="M 2631 2963 
Q 2534 3019 2420 3045 
Q 2306 3072 2169 3072 
Q 1681 3072 1420 2755 
Q 1159 2438 1159 1844 
L 1159 0 
L 581 0 
L 581 3500 
L 1159 3500 
L 1159 2956 
Q 1341 3275 1631 3429 
Q 1922 3584 2338 3584 
Q 2397 3584 2469 3576 
Q 2541 3569 2628 3553 
L 2631 2963 
z
" transform="scale(0.015625)"/>
       <path id="DejaVuSans-61" d="M 2194 1759 
Q 1497 1759 1228 1600 
Q 959 1441 959 1056 
Q 959 750 1161 570 
Q 1363 391 1709 391 
Q 2188 391 2477 730 
Q 2766 1069 2766 1631 
L 2766 1759 
L 2194 1759 
z
M 3341 1997 
L 3341 0 
L 2766 0 
L 2766 531 
Q 2569 213 2275 61 
Q 1981 -91 1556 -91 
Q 1019 -91 701 211 
Q 384 513 384 1019 
Q 384 1609 779 1909 
Q 1175 2209 1959 2209 
L 2766 2209 
L 2766 2266 
Q 2766 2663 2505 2880 
Q 2244 3097 1772 3097 
Q 1472 3097 1187 3025 
Q 903 2953 641 2809 
L 641 3341 
Q 956 3463 1253 3523 
Q 1550 3584 1831 3584 
Q 2591 3584 2966 3190 
Q 3341 2797 3341 1997 
z
" transform="scale(0.015625)"/>
       <path id="DejaVuSans-77" d="M 269 3500 
L 844 3500 
L 1563 769 
L 2278 3500 
L 2956 3500 
L 3675 769 
L 4391 3500 
L 4966 3500 
L 4050 0 
L 3372 0 
L 2619 2869 
L 1863 0 
L 1184 0 
L 269 3500 
z
" transform="scale(0.015625)"/>
      </defs>
      <use xlink:href="#DejaVuSans-64"/>
      <use xlink:href="#DejaVuSans-72" transform="translate(63.476562 0)"/>
      <use xlink:href="#DejaVuSans-61" transform="translate(104.589844 0)"/>
      <use xlink:href="#DejaVuSans-77" transform="translate(165.869141 0)"/>
     </g>
    </g>
   </g>
   <g id="matplotlib.axis_2">
    <g id="ytick_1">
     <g id="text_7">
      <!-- 0.08 -->
      <g style="fill: #262626" transform="translate(21.15625 155.83457) scale(0.1 -0.1)">
       <defs>
        <path id="DejaVuSans-2e" d="M 684 794 
L 1344 794 
L 1344 0 
L 684 0 
L 684 794 
z
" transform="scale(0.015625)"/>
        <path id="DejaVuSans-38" d="M 2034 2216 
Q 1584 2216 1326 1975 
Q 1069 1734 1069 1313 
Q 1069 891 1326 650 
Q 1584 409 2034 409 
Q 2484 409 2743 651 
Q 3003 894 3003 1313 
Q 3003 1734 2745 1975 
Q 2488 2216 2034 2216 
z
M 1403 2484 
Q 997 2584 770 2862 
Q 544 3141 544 3541 
Q 544 4100 942 4425 
Q 1341 4750 2034 4750 
Q 2731 4750 3128 4425 
Q 3525 4100 3525 3541 
Q 3525 3141 3298 2862 
Q 3072 2584 2669 2484 
Q 3125 2378 3379 2068 
Q 3634 1759 3634 1313 
Q 3634 634 3220 271 
Q 2806 -91 2034 -91 
Q 1263 -91 848 271 
Q 434 634 434 1313 
Q 434 1759 690 2068 
Q 947 2378 1403 2484 
z
M 1172 3481 
Q 1172 3119 1398 2916 
Q 1625 2713 2034 2713 
Q 2441 2713 2670 2916 
Q 2900 3119 2900 3481 
Q 2900 3844 2670 4047 
Q 2441 4250 2034 4250 
Q 1625 4250 1398 4047 
Q 1172 3844 1172 3481 
z
" transform="scale(0.015625)"/>
       </defs>
       <use xlink:href="#DejaVuSans-30"/>
       <use xlink:href="#DejaVuSans-2e" transform="translate(63.623047 0)"/>
       <use xlink:href="#DejaVuSans-30" transform="translate(95.410156 0)"/>
       <use xlink:href="#DejaVuSans-38" transform="translate(159.033203 0)"/>
      </g>
     </g>
    </g>
    <g id="ytick_2">
     <g id="text_8">
      <!-- 0.10 -->
      <g style="fill: #262626" transform="translate(21.15625 124.940814) scale(0.1 -0.1)">
       <use xlink:href="#DejaVuSans-30"/>
       <use xlink:href="#DejaVuSans-2e" transform="translate(63.623047 0)"/>
       <use xlink:href="#DejaVuSans-31" transform="translate(95.410156 0)"/>
       <use xlink:href="#DejaVuSans-30" transform="translate(159.033203 0)"/>
      </g>
     </g>
    </g>
    <g id="ytick_3">
     <g id="text_9">
      <!-- 0.12 -->
      <g style="fill: #262626" transform="translate(21.15625 94.047058) scale(0.1 -0.1)">
       <use xlink:href="#DejaVuSans-30"/>
       <use xlink:href="#DejaVuSans-2e" transform="translate(63.623047 0)"/>
       <use xlink:href="#DejaVuSans-31" transform="translate(95.410156 0)"/>
       <use xlink:href="#DejaVuSans-32" transform="translate(159.033203 0)"/>
      </g>
     </g>
    </g>
    <g id="ytick_4">
     <g id="text_10">
      <!-- 0.14 -->
      <g style="fill: #262626" transform="translate(21.15625 63.153303) scale(0.1 -0.1)">
       <defs>
        <path id="DejaVuSans-34" d="M 2419 4116 
L 825 1625 
L 2419 1625 
L 2419 4116 
z
M 2253 4666 
L 3047 4666 
L 3047 1625 
L 3713 1625 
L 3713 1100 
L 3047 1100 
L 3047 0 
L 2419 0 
L 2419 1100 
L 313 1100 
L 313 1709 
L 2253 4666 
z
" transform="scale(0.015625)"/>
       </defs>
       <use xlink:href="#DejaVuSans-30"/>
       <use xlink:href="#DejaVuSans-2e" transform="translate(63.623047 0)"/>
       <use xlink:href="#DejaVuSans-31" transform="translate(95.410156 0)"/>
       <use xlink:href="#DejaVuSans-34" transform="translate(159.033203 0)"/>
      </g>
     </g>
    </g>
    <g id="ytick_5">
     <g id="text_11">
      <!-- 0.16 -->
      <g style="fill: #262626" transform="translate(21.15625 32.259547) scale(0.1 -0.1)">
       <defs>
        <path id="DejaVuSans-36" d="M 2113 2584 
Q 1688 2584 1439 2293 
Q 1191 2003 1191 1497 
Q 1191 994 1439 701 
Q 1688 409 2113 409 
Q 2538 409 2786 701 
Q 3034 994 3034 1497 
Q 3034 2003 2786 2293 
Q 2538 2584 2113 2584 
z
M 3366 4563 
L 3366 3988 
Q 3128 4100 2886 4159 
Q 2644 4219 2406 4219 
Q 1781 4219 1451 3797 
Q 1122 3375 1075 2522 
Q 1259 2794 1537 2939 
Q 1816 3084 2150 3084 
Q 2853 3084 3261 2657 
Q 3669 2231 3669 1497 
Q 3669 778 3244 343 
Q 2819 -91 2113 -91 
Q 1303 -91 875 529 
Q 447 1150 447 2328 
Q 447 3434 972 4092 
Q 1497 4750 2381 4750 
Q 2619 4750 2861 4703 
Q 3103 4656 3366 4563 
z
" transform="scale(0.015625)"/>
       </defs>
       <use xlink:href="#DejaVuSans-30"/>
       <use xlink:href="#DejaVuSans-2e" transform="translate(63.623047 0)"/>
       <use xlink:href="#DejaVuSans-31" transform="translate(95.410156 0)"/>
       <use xlink:href="#DejaVuSans-36" transform="translate(159.033203 0)"/>
      </g>
     </g>
    </g>
    <g id="text_12">
     <!-- train_dtb -->
     <g style="fill: #262626" transform="translate(14.798437 111.42977) rotate(-90) scale(0.1 -0.1)">
      <defs>
       <path id="DejaVuSans-74" d="M 1172 4494 
L 1172 3500 
L 2356 3500 
L 2356 3053 
L 1172 3053 
L 1172 1153 
Q 1172 725 1289 603 
Q 1406 481 1766 481 
L 2356 481 
L 2356 0 
L 1766 0 
Q 1100 0 847 248 
Q 594 497 594 1153 
L 594 3053 
L 172 3053 
L 172 3500 
L 594 3500 
L 594 4494 
L 1172 4494 
z
" transform="scale(0.015625)"/>
       <path id="DejaVuSans-69" d="M 603 3500 
L 1178 3500 
L 1178 0 
L 603 0 
L 603 3500 
z
M 603 4863 
L 1178 4863 
L 1178 4134 
L 603 4134 
L 603 4863 
z
" transform="scale(0.015625)"/>
       <path id="DejaVuSans-6e" d="M 3513 2113 
L 3513 0 
L 2938 0 
L 2938 2094 
Q 2938 2591 2744 2837 
Q 2550 3084 2163 3084 
Q 1697 3084 1428 2787 
Q 1159 2491 1159 1978 
L 1159 0 
L 581 0 
L 581 3500 
L 1159 3500 
L 1159 2956 
Q 1366 3272 1645 3428 
Q 1925 3584 2291 3584 
Q 2894 3584 3203 3211 
Q 3513 2838 3513 2113 
z
" transform="scale(0.015625)"/>
       <path id="DejaVuSans-5f" d="M 3263 -1063 
L 3263 -1509 
L -63 -1509 
L -63 -1063 
L 3263 -1063 
z
" transform="scale(0.015625)"/>
       <path id="DejaVuSans-62" d="M 3116 1747 
Q 3116 2381 2855 2742 
Q 2594 3103 2138 3103 
Q 1681 3103 1420 2742 
Q 1159 2381 1159 1747 
Q 1159 1113 1420 752 
Q 1681 391 2138 391 
Q 2594 391 2855 752 
Q 3116 1113 3116 1747 
z
M 1159 2969 
Q 1341 3281 1617 3432 
Q 1894 3584 2278 3584 
Q 2916 3584 3314 3078 
Q 3713 2572 3713 1747 
Q 3713 922 3314 415 
Q 2916 -91 2278 -91 
Q 1894 -91 1617 61 
Q 1341 213 1159 525 
L 1159 0 
L 581 0 
L 581 4863 
L 1159 4863 
L 1159 2969 
z
" transform="scale(0.015625)"/>
      </defs>
      <use xlink:href="#DejaVuSans-74"/>
      <use xlink:href="#DejaVuSans-72" transform="translate(39.208984 0)"/>
      <use xlink:href="#DejaVuSans-61" transform="translate(80.322266 0)"/>
      <use xlink:href="#DejaVuSans-69" transform="translate(141.601562 0)"/>
      <use xlink:href="#DejaVuSans-6e" transform="translate(169.384766 0)"/>
      <use xlink:href="#DejaVuSans-5f" transform="translate(232.763672 0)"/>
      <use xlink:href="#DejaVuSans-64" transform="translate(282.763672 0)"/>
      <use xlink:href="#DejaVuSans-74" transform="translate(346.240234 0)"/>
      <use xlink:href="#DejaVuSans-62" transform="translate(385.449219 0)"/>
     </g>
    </g>
   </g>
   <g id="line2d_1">
    <path d="M 62.529879 157.105332 
L 63.530541 147.124745 
L 64.531202 157.884592 
L 65.531864 123.534356 
L 66.532525 157.243966 
L 67.533187 135.205542 
L 68.533848 131.469918 
L 69.53451 157.438375 
L 70.535171 159.13238 
L 71.535833 156.43297 
L 73.537156 157.394298 
L 74.537817 116.511097 
L 76.53914 162.871734 
L 77.539801 157.055193 
L 78.540463 157.944683 
L 79.541124 157.676023 
L 80.541786 158.337524 
L 81.542447 156.577964 
L 82.543109 157.119742 
L 83.54377 144.934354 
L 84.544432 155.717568 
L 85.545093 155.926244 
L 86.545755 158.207603 
L 87.546416 146.014863 
L 88.547078 161.925757 
L 89.547739 160.231893 
L 90.548401 43.200849 
L 91.549062 144.45926 
L 92.549724 159.052044 
L 93.550385 130.108273 
L 94.551047 159.194421 
L 95.551708 159.242118 
L 96.55237 161.198206 
L 97.553031 158.003074 
L 98.553693 129.354009 
L 99.554354 160.449405 
L 100.555016 162.754784 
L 101.555677 151.080611 
L 102.556339 134.763924 
L 103.557 124.170585 
L 104.557662 105.085019 
L 105.558323 155.133538 
L 106.558985 162.431308 
L 107.559646 144.085332 
L 108.560308 135.660659 
L 109.560969 141.864299 
L 110.561631 29.521345 
L 111.562292 156.05689 
L 112.562954 158.203193 
L 113.563615 156.687021 
L 114.564277 144.971449 
L 115.564938 159.099011 
L 116.5656 145.967384 
L 117.566261 156.392979 
L 118.566923 157.361026 
L 119.567584 97.247497 
L 120.568246 156.066547 
L 121.568907 155.653032 
L 122.569569 147.580618 
L 123.57023 108.465985 
L 124.570892 160.465486 
L 125.571553 150.252293 
L 126.572215 141.460146 
L 127.572876 130.588241 
L 128.573538 122.308081 
L 129.574199 158.499618 
L 130.574861 159.294735 
L 131.575522 157.088929 
L 132.576184 157.053953 
L 133.576845 159.676355 
L 134.577507 159.776051 
L 135.578168 154.316954 
L 136.57883 161.659293 
L 137.579491 151.24275 
L 138.580153 116.488827 
L 139.580814 141.8621 
L 140.581476 160.340058 
L 141.582137 126.807792 
L 142.582799 163.332162 
L 143.58346 108.750787 
L 144.584122 148.625078 
L 145.584783 155.416458 
L 146.585445 129.042661 
L 147.586106 151.412806 
L 148.586768 160.077541 
L 149.587429 141.171173 
L 150.588091 158.496837 
L 151.588752 143.943752 
L 152.589414 159.458987 
L 153.590075 124.027275 
L 154.590737 161.502343 
L 155.591398 156.568002 
L 156.592059 125.262526 
L 157.592721 156.191566 
L 158.593382 114.711377 
L 159.594044 158.070693 
L 160.594705 163.280318 
L 161.595367 120.549322 
L 162.596028 102.469334 
L 163.59669 159.994157 
L 164.597351 159.979626 
L 165.598013 160.346589 
L 166.598674 163.332472 
L 167.599336 156.13847 
L 168.599997 135.743864 
L 169.600659 160.316644 
L 170.60132 158.745827 
L 171.601982 158.795954 
L 172.602643 161.881842 
L 173.603305 132.250327 
L 174.603966 140.630137 
L 175.604628 158.035903 
L 176.605289 158.873071 
L 177.605951 113.474407 
L 178.606612 161.761224 
L 179.607274 136.872178 
L 180.607935 148.608827 
L 181.608597 148.35965 
L 182.609258 146.670119 
L 183.60992 157.871426 
L 184.610581 160.428965 
L 185.611243 130.726961 
L 186.611904 158.876956 
L 187.612566 157.371231 
L 188.613227 152.268266 
L 189.613889 158.933705 
L 190.61455 162.142145 
L 191.615212 118.774054 
L 192.615873 155.835158 
L 193.616535 155.288339 
L 194.617196 155.994082 
L 195.617858 149.858924 
L 196.618519 157.062784 
L 197.619181 155.785886 
L 198.619842 154.147145 
L 199.620504 151.284189 
L 200.621165 158.909659 
L 201.621827 155.707175 
L 202.622488 157.779565 
L 203.62315 14.63488 
L 204.623811 125.575665 
L 205.624473 96.699851 
L 206.625134 144.59852 
L 207.625796 157.723216 
L 208.626457 160.667003 
L 209.627119 148.041391 
L 210.62778 140.278093 
L 211.628442 159.387383 
L 212.629103 135.005064 
L 213.629765 158.522637 
L 214.630426 162.292837 
L 215.631088 159.993247 
L 216.631749 159.245345 
L 217.632411 159.089411 
L 218.633072 144.380142 
L 219.633734 131.406601 
L 220.634395 161.649535 
L 221.635057 155.203809 
L 222.635718 74.711743 
L 223.63638 156.372623 
L 224.637041 151.553053 
L 225.637703 156.032646 
L 226.638364 157.647726 
L 227.639026 159.002963 
L 228.639687 148.614107 
L 229.640349 157.296267 
L 231.641672 157.595958 
L 232.642333 159.049684 
L 233.642995 156.482654 
L 234.643656 128.426413 
L 235.644318 156.973643 
L 236.644979 132.9239 
L 237.64564 158.457422 
L 238.646302 161.088056 
L 239.646963 155.957033 
L 240.647625 157.70788 
L 241.648286 115.169583 
L 242.648948 153.67541 
L 243.649609 159.026826 
L 244.650271 160.403792 
L 245.650932 148.176342 
L 246.651594 159.182699 
L 247.652255 72.960462 
L 248.652917 133.418881 
L 249.653578 145.4284 
L 250.65424 159.128425 
L 251.654901 159.226465 
L 252.655563 129.772411 
L 253.656224 159.516404 
L 254.656886 154.529385 
L 255.657547 152.597051 
L 256.658209 162.220442 
L 257.65887 156.023518 
L 258.659532 143.213602 
L 259.660193 159.478984 
L 260.660855 124.047176 
L 261.661516 155.993107 
L 262.662178 159.051107 
L 263.662839 156.673506 
L 264.663501 156.493334 
L 265.664162 51.61367 
L 266.664824 156.008383 
L 267.665485 155.061491 
L 268.666147 156.229067 
L 269.666808 110.554092 
L 270.66747 159.755368 
L 271.668131 159.65897 
L 272.668793 139.362416 
L 273.669454 150.337421 
L 274.670116 162.682673 
L 275.670777 157.223393 
L 276.671439 160.284395 
L 277.6721 159.937256 
L 278.672762 146.347587 
L 279.673423 134.798739 
L 280.674085 161.852054 
L 281.674746 129.344999 
L 282.675408 145.232242 
L 283.676069 105.436612 
L 284.676731 135.652666 
L 285.677392 136.114435 
L 286.678054 156.952255 
L 287.678715 155.349342 
L 288.679377 155.882934 
L 289.680038 155.592175 
L 290.6807 88.304426 
L 291.681361 149.260504 
L 292.682023 159.346698 
L 293.682684 127.635888 
L 294.683346 158.23375 
L 295.684007 157.739497 
L 296.684669 157.662287 
L 297.68533 155.098185 
L 298.685992 159.853469 
L 299.686653 158.843051 
L 300.687315 112.379627 
L 301.687976 155.561641 
L 302.688638 154.590653 
L 303.689299 88.891256 
L 304.689961 156.480411 
L 304.689961 156.480411 
" clip-path="url(#pcb7e9f3748)" style="fill: none; stroke: #9f4800; stroke-width: 1.5; stroke-linecap: round"/>
   </g>
  </g>
 </g>
 <defs>
  <clipPath id="pcb7e9f3748">
   <rect x="50.421875" y="7.2" width="266.37609" height="163.567352"/>
  </clipPath>
 </defs>
</svg>
