<?xml version="1.0" encoding="utf-8" standalone="no"?>
<!DOCTYPE svg PUBLIC "-//W3C//DTD SVG 1.1//EN"
  "http://www.w3.org/Graphics/SVG/1.1/DTD/svg11.dtd">
<svg xmlns:xlink="http://www.w3.org/1999/xlink" width="323.997965pt" height="208.323602pt" viewBox="0 0 323.997965 208.323602" xmlns="http://www.w3.org/2000/svg" version="1.1">
 <metadata>
  <rdf:RDF xmlns:dc="http://purl.org/dc/elements/1.1/" xmlns:cc="http://creativecommons.org/ns#" xmlns:rdf="http://www.w3.org/1999/02/22-rdf-syntax-ns#">
   <cc:Work>
    <dc:type rdf:resource="http://purl.org/dc/dcmitype/StillImage"/>
    <dc:date>2025-11-25T18:57:32.013435</dc:date>
    <dc:format>image/svg+xml</dc:format>
    <dc:creator>
     <cc:Agent>
      <dc:title>Matplotlib v3.10.6, https://matplotlib.org/</dc:title>
     </cc:Agent>
    </dc:creator>
   </cc:Work>
  </rdf:RDF>
 </metadata>
 <defs>
  <style type="text/css">*{stroke-linejoin: round; stroke-linecap: butt}</style>
 </defs>
 <g id="figure_1">
  <g id="patch_1">
   <path d="M 0 208.323602 
L 323.997965 208.323602 
L 323.997965 0 
L 0 0 
L 0 208.323602 
z
" style="fill: none"/>
  </g>
  <g id="axes_1">
   <g id="patch_2">
    <path d="M 50.421875 170.767352 
L 316.797965 170.767352 
L 316.797965 7.2 
L 50.421875 7.2 
L 50.421875 170.767352 
z
" style="fill: none"/>
   </g>
   <g id="matplotlib.axis_1">
    <g id="xtick_1">
     <g id="text_1">
      <!-- 50 -->
      <g style="fill: #262626" transform="translate(79.182593 185.365789) scale(0.1 -0.1)">
       <defs>
        <path id="DejaVuSans-35" d="M 691 4666 
L 3169 4666 
L 3169 4134 
L 1269 4134 
L 1269 2991 
Q 1406 3038 1543 3061 
Q 1681 3084 1819 3084 
Q 2600 3084 3056 2656 
Q 3513 2228 3513 1497 
Q 3513 744 3044 326 
Q 2575 -91 1722 -91 
Q 1428 -91 1123 -41 
Q 819 9 494 109 
L 494 744 
Q 775 591 1075 516 
Q 1375 441 1709 441 
Q 2250 441 2565 725 
Q 2881 1009 2881 1497 
Q 2881 1984 2565 2268 
Q 2250 2553 1709 2553 
Q 1456 2553 1204 2497 
Q 953 2441 691 2322 
L 691 4666 
z
" transform="scale(0.015625)"/>
        <path id="DejaVuSans-30" d="M 2034 4250 
Q 1547 4250 1301 3770 
Q 1056 3291 1056 2328 
Q 1056 1369 1301 889 
Q 1547 409 2034 409 
Q 2525 409 2770 889 
Q 3016 1369 3016 2328 
Q 3016 3291 2770 3770 
Q 2525 4250 2034 4250 
z
M 2034 4750 
Q 2819 4750 3233 4129 
Q 3647 3509 3647 2328 
Q 3647 1150 3233 529 
Q 2819 -91 2034 -91 
Q 1250 -91 836 529 
Q 422 1150 422 2328 
Q 422 3509 836 4129 
Q 1250 4750 2034 4750 
z
" transform="scale(0.015625)"/>
       </defs>
       <use xlink:href="#DejaVuSans-35"/>
       <use xlink:href="#DejaVuSans-30" transform="translate(63.623047 0)"/>
      </g>
     </g>
    </g>
    <g id="xtick_2">
     <g id="text_2">
      <!-- 100 -->
      <g style="fill: #262626" transform="translate(126.034418 185.365789) scale(0.1 -0.1)">
       <defs>
        <path id="DejaVuSans-31" d="M 794 531 
L 1825 531 
L 1825 4091 
L 703 3866 
L 703 4441 
L 1819 4666 
L 2450 4666 
L 2450 531 
L 3481 531 
L 3481 0 
L 794 0 
L 794 531 
z
" transform="scale(0.015625)"/>
       </defs>
       <use xlink:href="#DejaVuSans-31"/>
       <use xlink:href="#DejaVuSans-30" transform="translate(63.623047 0)"/>
       <use xlink:href="#DejaVuSans-30" transform="translate(127.246094 0)"/>
      </g>
     </g>
    </g>
    <g id="xtick_3">
     <g id="text_3">
      <!-- 150 -->
      <g style="fill: #262626" transform="translate(176.067493 185.365789) scale(0.1 -0.1)">
       <use xlink:href="#DejaVuSans-31"/>
       <use xlink:href="#DejaVuSans-35" transform="translate(63.623047 0)"/>
       <use xlink:href="#DejaVuSans-30" transform="translate(127.246094 0)"/>
      </g>
     </g>
    </g>
    <g id="xtick_4">
     <g id="text_4">
      <!-- 200 -->
      <g style="fill: #262626" transform="translate(226.100568 185.365789) scale(0.1 -0.1)">
       <defs>
        <path id="DejaVuSans-32" d="M 1228 531 
L 3431 531 
L 3431 0 
L 469 0 
L 469 531 
Q 828 903 1448 1529 
Q 2069 2156 2228 2338 
Q 2531 2678 2651 2914 
Q 2772 3150 2772 3378 
Q 2772 3750 2511 3984 
Q 2250 4219 1831 4219 
Q 1534 4219 1204 4116 
Q 875 4013 500 3803 
L 500 4441 
Q 881 4594 1212 4672 
Q 1544 4750 1819 4750 
Q 2544 4750 2975 4387 
Q 3406 4025 3406 3419 
Q 3406 3131 3298 2873 
Q 3191 2616 2906 2266 
Q 2828 2175 2409 1742 
Q 1991 1309 1228 531 
z
" transform="scale(0.015625)"/>
       </defs>
       <use xlink:href="#DejaVuSans-32"/>
       <use xlink:href="#DejaVuSans-30" transform="translate(63.623047 0)"/>
       <use xlink:href="#DejaVuSans-30" transform="translate(127.246094 0)"/>
      </g>
     </g>
    </g>
    <g id="xtick_5">
     <g id="text_5">
      <!-- 250 -->
      <g style="fill: #262626" transform="translate(276.133642 185.365789) scale(0.1 -0.1)">
       <use xlink:href="#DejaVuSans-32"/>
       <use xlink:href="#DejaVuSans-35" transform="translate(63.623047 0)"/>
       <use xlink:href="#DejaVuSans-30" transform="translate(127.246094 0)"/>
      </g>
     </g>
    </g>
    <g id="text_6">
     <!-- draw -->
     <g style="fill: #262626" transform="translate(171.227107 199.043914) scale(0.1 -0.1)">
      <defs>
       <path id="DejaVuSans-64" d="M 2906 2969 
L 2906 4863 
L 3481 4863 
L 3481 0 
L 2906 0 
L 2906 525 
Q 2725 213 2448 61 
Q 2172 -91 1784 -91 
Q 1150 -91 751 415 
Q 353 922 353 1747 
Q 353 2572 751 3078 
Q 1150 3584 1784 3584 
Q 2172 3584 2448 3432 
Q 2725 3281 2906 2969 
z
M 947 1747 
Q 947 1113 1208 752 
Q 1469 391 1925 391 
Q 2381 391 2643 752 
Q 2906 1113 2906 1747 
Q 2906 2381 2643 2742 
Q 2381 3103 1925 3103 
Q 1469 3103 1208 2742 
Q 947 2381 947 1747 
z
" transform="scale(0.015625)"/>
       <path id="DejaVuSans-72" d="M 2631 2963 
Q 2534 3019 2420 3045 
Q 2306 3072 2169 3072 
Q 1681 3072 1420 2755 
Q 1159 2438 1159 1844 
L 1159 0 
L 581 0 
L 581 3500 
L 1159 3500 
L 1159 2956 
Q 1341 3275 1631 3429 
Q 1922 3584 2338 3584 
Q 2397 3584 2469 3576 
Q 2541 3569 2628 3553 
L 2631 2963 
z
" transform="scale(0.015625)"/>
       <path id="DejaVuSans-61" d="M 2194 1759 
Q 1497 1759 1228 1600 
Q 959 1441 959 1056 
Q 959 750 1161 570 
Q 1363 391 1709 391 
Q 2188 391 2477 730 
Q 2766 1069 2766 1631 
L 2766 1759 
L 2194 1759 
z
M 3341 1997 
L 3341 0 
L 2766 0 
L 2766 531 
Q 2569 213 2275 61 
Q 1981 -91 1556 -91 
Q 1019 -91 701 211 
Q 384 513 384 1019 
Q 384 1609 779 1909 
Q 1175 2209 1959 2209 
L 2766 2209 
L 2766 2266 
Q 2766 2663 2505 2880 
Q 2244 3097 1772 3097 
Q 1472 3097 1187 3025 
Q 903 2953 641 2809 
L 641 3341 
Q 956 3463 1253 3523 
Q 1550 3584 1831 3584 
Q 2591 3584 2966 3190 
Q 3341 2797 3341 1997 
z
" transform="scale(0.015625)"/>
       <path id="DejaVuSans-77" d="M 269 3500 
L 844 3500 
L 1563 769 
L 2278 3500 
L 2956 3500 
L 3675 769 
L 4391 3500 
L 4966 3500 
L 4050 0 
L 3372 0 
L 2619 2869 
L 1863 0 
L 1184 0 
L 269 3500 
z
" transform="scale(0.015625)"/>
      </defs>
      <use xlink:href="#DejaVuSans-64"/>
      <use xlink:href="#DejaVuSans-72" transform="translate(63.476562 0)"/>
      <use xlink:href="#DejaVuSans-61" transform="translate(104.589844 0)"/>
      <use xlink:href="#DejaVuSans-77" transform="translate(165.869141 0)"/>
     </g>
    </g>
   </g>
   <g id="matplotlib.axis_2">
    <g id="ytick_1">
     <g id="text_7">
      <!-- 0.10 -->
      <g style="fill: #262626" transform="translate(21.15625 141.659627) scale(0.1 -0.1)">
       <defs>
        <path id="DejaVuSans-2e" d="M 684 794 
L 1344 794 
L 1344 0 
L 684 0 
L 684 794 
z
" transform="scale(0.015625)"/>
       </defs>
       <use xlink:href="#DejaVuSans-30"/>
       <use xlink:href="#DejaVuSans-2e" transform="translate(63.623047 0)"/>
       <use xlink:href="#DejaVuSans-31" transform="translate(95.410156 0)"/>
       <use xlink:href="#DejaVuSans-30" transform="translate(159.033203 0)"/>
      </g>
     </g>
    </g>
    <g id="ytick_2">
     <g id="text_8">
      <!-- 0.15 -->
      <g style="fill: #262626" transform="translate(21.15625 103.438224) scale(0.1 -0.1)">
       <use xlink:href="#DejaVuSans-30"/>
       <use xlink:href="#DejaVuSans-2e" transform="translate(63.623047 0)"/>
       <use xlink:href="#DejaVuSans-31" transform="translate(95.410156 0)"/>
       <use xlink:href="#DejaVuSans-35" transform="translate(159.033203 0)"/>
      </g>
     </g>
    </g>
    <g id="ytick_3">
     <g id="text_9">
      <!-- 0.20 -->
      <g style="fill: #262626" transform="translate(21.15625 65.216821) scale(0.1 -0.1)">
       <use xlink:href="#DejaVuSans-30"/>
       <use xlink:href="#DejaVuSans-2e" transform="translate(63.623047 0)"/>
       <use xlink:href="#DejaVuSans-32" transform="translate(95.410156 0)"/>
       <use xlink:href="#DejaVuSans-30" transform="translate(159.033203 0)"/>
      </g>
     </g>
    </g>
    <g id="ytick_4">
     <g id="text_10">
      <!-- 0.25 -->
      <g style="fill: #262626" transform="translate(21.15625 26.995417) scale(0.1 -0.1)">
       <use xlink:href="#DejaVuSans-30"/>
       <use xlink:href="#DejaVuSans-2e" transform="translate(63.623047 0)"/>
       <use xlink:href="#DejaVuSans-32" transform="translate(95.410156 0)"/>
       <use xlink:href="#DejaVuSans-35" transform="translate(159.033203 0)"/>
      </g>
     </g>
    </g>
    <g id="text_11">
     <!-- train_dt -->
     <g style="fill: #262626" transform="translate(14.798437 108.255551) rotate(-90) scale(0.1 -0.1)">
      <defs>
       <path id="DejaVuSans-74" d="M 1172 4494 
L 1172 3500 
L 2356 3500 
L 2356 3053 
L 1172 3053 
L 1172 1153 
Q 1172 725 1289 603 
Q 1406 481 1766 481 
L 2356 481 
L 2356 0 
L 1766 0 
Q 1100 0 847 248 
Q 594 497 594 1153 
L 594 3053 
L 172 3053 
L 172 3500 
L 594 3500 
L 594 4494 
L 1172 4494 
z
" transform="scale(0.015625)"/>
       <path id="DejaVuSans-69" d="M 603 3500 
L 1178 3500 
L 1178 0 
L 603 0 
L 603 3500 
z
M 603 4863 
L 1178 4863 
L 1178 4134 
L 603 4134 
L 603 4863 
z
" transform="scale(0.015625)"/>
       <path id="DejaVuSans-6e" d="M 3513 2113 
L 3513 0 
L 2938 0 
L 2938 2094 
Q 2938 2591 2744 2837 
Q 2550 3084 2163 3084 
Q 1697 3084 1428 2787 
Q 1159 2491 1159 1978 
L 1159 0 
L 581 0 
L 581 3500 
L 1159 3500 
L 1159 2956 
Q 1366 3272 1645 3428 
Q 1925 3584 2291 3584 
Q 2894 3584 3203 3211 
Q 3513 2838 3513 2113 
z
" transform="scale(0.015625)"/>
       <path id="DejaVuSans-5f" d="M 3263 -1063 
L 3263 -1509 
L -63 -1509 
L -63 -1063 
L 3263 -1063 
z
" transform="scale(0.015625)"/>
      </defs>
      <use xlink:href="#DejaVuSans-74"/>
      <use xlink:href="#DejaVuSans-72" transform="translate(39.208984 0)"/>
      <use xlink:href="#DejaVuSans-61" transform="translate(80.322266 0)"/>
      <use xlink:href="#DejaVuSans-69" transform="translate(141.601562 0)"/>
      <use xlink:href="#DejaVuSans-6e" transform="translate(169.384766 0)"/>
      <use xlink:href="#DejaVuSans-5f" transform="translate(232.763672 0)"/>
      <use xlink:href="#DejaVuSans-64" transform="translate(282.763672 0)"/>
      <use xlink:href="#DejaVuSans-74" transform="translate(346.240234 0)"/>
     </g>
    </g>
   </g>
   <g id="line2d_1">
    <path d="M 62.529879 47.974781 
L 63.530541 37.727484 
L 64.531202 162.920453 
L 65.531864 26.056986 
L 66.532525 56.986057 
L 67.533187 51.117377 
L 68.533848 55.678808 
L 69.53451 58.987137 
L 70.535171 162.032331 
L 71.535833 78.842751 
L 72.536494 32.154197 
L 73.537156 57.289659 
L 74.537817 29.58782 
L 75.538478 30.749607 
L 76.53914 163.178364 
L 77.539801 30.882017 
L 78.540463 55.712353 
L 79.541124 36.573376 
L 80.541786 29.881734 
L 81.542447 59.332463 
L 82.543109 162.746594 
L 83.54377 25.55141 
L 84.544432 48.413643 
L 85.545093 76.79631 
L 86.545755 52.123903 
L 87.546416 53.720731 
L 88.547078 162.326023 
L 89.547739 17.067691 
L 90.548401 54.598231 
L 91.549062 111.3449 
L 92.549724 70.825059 
L 93.550385 88.816584 
L 94.551047 161.35079 
L 95.551708 55.023667 
L 96.55237 36.645474 
L 97.553031 40.934006 
L 98.553693 47.333702 
L 99.554354 51.538976 
L 100.555016 161.837242 
L 101.555677 38.87217 
L 102.556339 56.732257 
L 103.557 43.802362 
L 104.557662 39.603835 
L 105.558323 58.531127 
L 106.558985 162.030209 
L 107.559646 39.981197 
L 108.560308 44.129592 
L 109.560969 58.692839 
L 110.561631 38.940347 
L 111.562292 71.146407 
L 112.562954 163.254477 
L 113.563615 32.972657 
L 114.564277 88.107113 
L 115.564938 59.06759 
L 116.5656 54.273377 
L 117.566261 63.077968 
L 118.566923 162.975603 
L 119.567584 35.716907 
L 120.568246 64.992499 
L 121.568907 66.369677 
L 122.569569 72.862088 
L 123.57023 39.782396 
L 124.570892 163.059961 
L 125.571553 32.099806 
L 126.572215 50.580356 
L 127.572876 56.272075 
L 128.573538 54.763726 
L 129.574199 39.581686 
L 130.574861 163.152685 
L 131.575522 49.021284 
L 132.576184 77.363674 
L 133.576845 46.763052 
L 134.577507 87.270318 
L 135.578168 70.164128 
L 136.57883 163.222141 
L 137.579491 76.396883 
L 138.580153 100.45516 
L 139.580814 110.128184 
L 140.581476 41.032816 
L 141.582137 66.953883 
L 142.582799 163.03063 
L 143.58346 37.903669 
L 144.584122 68.969569 
L 145.584783 74.694572 
L 147.586106 44.877578 
L 148.586768 163.332472 
L 149.587429 45.457388 
L 150.588091 58.396351 
L 151.588752 50.458315 
L 152.589414 57.147944 
L 153.590075 59.566701 
L 154.590737 163.181359 
L 155.591398 55.521185 
L 156.592059 50.27503 
L 157.592721 84.024215 
L 158.593382 99.59349 
L 159.594044 44.824464 
L 160.594705 163.185043 
L 161.595367 52.043372 
L 162.596028 53.326167 
L 163.59669 49.469758 
L 164.597351 58.918852 
L 165.598013 51.369828 
L 166.598674 162.930654 
L 167.599336 57.026708 
L 168.599997 61.752148 
L 169.600659 64.276724 
L 170.60132 61.321504 
L 171.601982 86.646095 
L 172.602643 161.214605 
L 173.603305 42.912539 
L 174.603966 70.398627 
L 175.604628 38.59826 
L 176.605289 60.40097 
L 177.605951 49.624124 
L 178.606612 161.957076 
L 179.607274 35.490204 
L 180.607935 57.738025 
L 181.608597 56.235994 
L 182.609258 57.445144 
L 183.60992 35.391645 
L 184.610581 163.01889 
L 185.611243 30.311742 
L 186.611904 43.866404 
L 187.612566 53.095926 
L 188.613227 51.347886 
L 189.613889 56.511474 
L 190.61455 161.14027 
L 191.615212 110.846325 
L 192.615873 49.82792 
L 193.616535 56.841469 
L 194.617196 69.435266 
L 195.617858 30.485746 
L 196.618519 163.182699 
L 197.619181 31.715527 
L 198.619842 46.342455 
L 199.620504 53.000783 
L 200.621165 61.371446 
L 201.621827 88.208758 
L 202.622488 162.780722 
L 203.62315 30.095248 
L 204.623811 40.537772 
L 205.624473 57.029564 
L 206.625134 42.822167 
L 207.625796 65.473252 
L 208.626457 161.945643 
L 209.627119 32.669813 
L 210.62778 54.1998 
L 211.628442 64.694509 
L 212.629103 77.036453 
L 213.629765 63.883654 
L 214.630426 163.218366 
L 215.631088 37.016511 
L 216.631749 38.480723 
L 217.632411 64.957781 
L 218.633072 72.761998 
L 219.633734 44.938311 
L 220.634395 162.700337 
L 221.635057 56.130153 
L 222.635718 37.72144 
L 223.63638 59.929084 
L 224.637041 59.083344 
L 225.637703 70.924453 
L 226.638364 162.494887 
L 227.639026 32.327305 
L 228.639687 28.879566 
L 229.640349 64.091701 
L 230.64101 55.178792 
L 231.641672 41.651572 
L 232.642333 163.07678 
L 233.642995 29.977198 
L 234.643656 22.794854 
L 235.644318 71.616859 
L 236.644979 37.177556 
L 237.64564 43.168199 
L 238.646302 162.583337 
L 239.646963 33.921008 
L 240.647625 43.311292 
L 242.648948 71.300827 
L 243.649609 92.912998 
L 244.650271 162.951976 
L 245.650932 76.775639 
L 246.651594 30.366447 
L 247.652255 46.468386 
L 248.652917 57.454863 
L 249.653578 56.965891 
L 250.65424 161.478061 
L 251.654901 31.430267 
L 252.655563 62.652325 
L 253.656224 59.814489 
L 254.656886 62.149048 
L 255.657547 59.171579 
L 256.658209 162.488416 
L 257.65887 26.633021 
L 258.659532 54.921478 
L 259.660193 52.410993 
L 260.660855 33.647512 
L 261.661516 37.478448 
L 262.662178 161.879219 
L 263.662839 26.685458 
L 264.663501 63.400403 
L 265.664162 52.438258 
L 266.664824 55.483927 
L 267.665485 61.725687 
L 268.666147 161.535616 
L 269.666808 92.040629 
L 270.66747 31.961721 
L 271.668131 41.083678 
L 272.668793 36.222781 
L 273.669454 42.243597 
L 274.670116 162.795182 
L 275.670777 41.964174 
L 276.671439 62.922995 
L 277.6721 50.156061 
L 278.672762 58.061164 
L 279.673423 39.027586 
L 280.674085 161.623452 
L 281.674746 31.690553 
L 283.676069 50.861373 
L 284.676731 40.204117 
L 285.677392 45.451736 
L 286.678054 161.859628 
L 287.678715 29.321967 
L 288.679377 44.661099 
L 289.680038 64.363213 
L 290.6807 98.449041 
L 291.681361 41.08681 
L 292.682023 161.243034 
L 293.682684 14.63488 
L 295.684007 97.740412 
L 296.684669 51.709434 
L 297.68533 49.007009 
L 298.685992 163.09631 
L 299.686653 29.193225 
L 300.687315 60.657326 
L 301.687976 38.981412 
L 302.688638 50.558497 
L 303.689299 43.610997 
L 304.689961 161.760916 
L 304.689961 161.760916 
" clip-path="url(#pe8df3f2238)" style="fill: none; stroke: #e8000b; stroke-width: 1.5; stroke-linecap: round"/>
   </g>
  </g>
 </g>
 <defs>
  <clipPath id="pe8df3f2238">
   <rect x="50.421875" y="7.2" width="266.37609" height="163.567352"/>
  </clipPath>
 </defs>
</svg>
