<?xml version="1.0" encoding="utf-8" standalone="no"?>
<!DOCTYPE svg PUBLIC "-//W3C//DTD SVG 1.1//EN"
  "http://www.w3.org/Graphics/SVG/1.1/DTD/svg11.dtd">
<svg xmlns:xlink="http://www.w3.org/1999/xlink" width="323.997965pt" height="208.323602pt" viewBox="0 0 323.997965 208.323602" xmlns="http://www.w3.org/2000/svg" version="1.1">
 <metadata>
  <rdf:RDF xmlns:dc="http://purl.org/dc/elements/1.1/" xmlns:cc="http://creativecommons.org/ns#" xmlns:rdf="http://www.w3.org/1999/02/22-rdf-syntax-ns#">
   <cc:Work>
    <dc:type rdf:resource="http://purl.org/dc/dcmitype/StillImage"/>
    <dc:date>2025-11-25T19:09:42.151850</dc:date>
    <dc:format>image/svg+xml</dc:format>
    <dc:creator>
     <cc:Agent>
      <dc:title>Matplotlib v3.10.6, https://matplotlib.org/</dc:title>
     </cc:Agent>
    </dc:creator>
   </cc:Work>
  </rdf:RDF>
 </metadata>
 <defs>
  <style type="text/css">*{stroke-linejoin: round; stroke-linecap: butt}</style>
 </defs>
 <g id="figure_1">
  <g id="patch_1">
   <path d="M 0 208.323602 
L 323.997965 208.323602 
L 323.997965 0 
L 0 0 
L 0 208.323602 
z
" style="fill: none"/>
  </g>
  <g id="axes_1">
   <g id="patch_2">
    <path d="M 50.421875 170.767352 
L 316.797965 170.767352 
L 316.797965 7.2 
L 50.421875 7.2 
L 50.421875 170.767352 
z
" style="fill: none"/>
   </g>
   <g id="matplotlib.axis_1">
    <g id="xtick_1">
     <g id="text_1">
      <!-- 50 -->
      <g style="fill: #262626" transform="translate(79.182593 185.365789) scale(0.1 -0.1)">
       <defs>
        <path id="DejaVuSans-35" d="M 691 4666 
L 3169 4666 
L 3169 4134 
L 1269 4134 
L 1269 2991 
Q 1406 3038 1543 3061 
Q 1681 3084 1819 3084 
Q 2600 3084 3056 2656 
Q 3513 2228 3513 1497 
Q 3513 744 3044 326 
Q 2575 -91 1722 -91 
Q 1428 -91 1123 -41 
Q 819 9 494 109 
L 494 744 
Q 775 591 1075 516 
Q 1375 441 1709 441 
Q 2250 441 2565 725 
Q 2881 1009 2881 1497 
Q 2881 1984 2565 2268 
Q 2250 2553 1709 2553 
Q 1456 2553 1204 2497 
Q 953 2441 691 2322 
L 691 4666 
z
" transform="scale(0.015625)"/>
        <path id="DejaVuSans-30" d="M 2034 4250 
Q 1547 4250 1301 3770 
Q 1056 3291 1056 2328 
Q 1056 1369 1301 889 
Q 1547 409 2034 409 
Q 2525 409 2770 889 
Q 3016 1369 3016 2328 
Q 3016 3291 2770 3770 
Q 2525 4250 2034 4250 
z
M 2034 4750 
Q 2819 4750 3233 4129 
Q 3647 3509 3647 2328 
Q 3647 1150 3233 529 
Q 2819 -91 2034 -91 
Q 1250 -91 836 529 
Q 422 1150 422 2328 
Q 422 3509 836 4129 
Q 1250 4750 2034 4750 
z
" transform="scale(0.015625)"/>
       </defs>
       <use xlink:href="#DejaVuSans-35"/>
       <use xlink:href="#DejaVuSans-30" transform="translate(63.623047 0)"/>
      </g>
     </g>
    </g>
    <g id="xtick_2">
     <g id="text_2">
      <!-- 100 -->
      <g style="fill: #262626" transform="translate(126.034418 185.365789) scale(0.1 -0.1)">
       <defs>
        <path id="DejaVuSans-31" d="M 794 531 
L 1825 531 
L 1825 4091 
L 703 3866 
L 703 4441 
L 1819 4666 
L 2450 4666 
L 2450 531 
L 3481 531 
L 3481 0 
L 794 0 
L 794 531 
z
" transform="scale(0.015625)"/>
       </defs>
       <use xlink:href="#DejaVuSans-31"/>
       <use xlink:href="#DejaVuSans-30" transform="translate(63.623047 0)"/>
       <use xlink:href="#DejaVuSans-30" transform="translate(127.246094 0)"/>
      </g>
     </g>
    </g>
    <g id="xtick_3">
     <g id="text_3">
      <!-- 150 -->
      <g style="fill: #262626" transform="translate(176.067493 185.365789) scale(0.1 -0.1)">
       <use xlink:href="#DejaVuSans-31"/>
       <use xlink:href="#DejaVuSans-35" transform="translate(63.623047 0)"/>
       <use xlink:href="#DejaVuSans-30" transform="translate(127.246094 0)"/>
      </g>
     </g>
    </g>
    <g id="xtick_4">
     <g id="text_4">
      <!-- 200 -->
      <g style="fill: #262626" transform="translate(226.100568 185.365789) scale(0.1 -0.1)">
       <defs>
        <path id="DejaVuSans-32" d="M 1228 531 
L 3431 531 
L 3431 0 
L 469 0 
L 469 531 
Q 828 903 1448 1529 
Q 2069 2156 2228 2338 
Q 2531 2678 2651 2914 
Q 2772 3150 2772 3378 
Q 2772 3750 2511 3984 
Q 2250 4219 1831 4219 
Q 1534 4219 1204 4116 
Q 875 4013 500 3803 
L 500 4441 
Q 881 4594 1212 4672 
Q 1544 4750 1819 4750 
Q 2544 4750 2975 4387 
Q 3406 4025 3406 3419 
Q 3406 3131 3298 2873 
Q 3191 2616 2906 2266 
Q 2828 2175 2409 1742 
Q 1991 1309 1228 531 
z
" transform="scale(0.015625)"/>
       </defs>
       <use xlink:href="#DejaVuSans-32"/>
       <use xlink:href="#DejaVuSans-30" transform="translate(63.623047 0)"/>
       <use xlink:href="#DejaVuSans-30" transform="translate(127.246094 0)"/>
      </g>
     </g>
    </g>
    <g id="xtick_5">
     <g id="text_5">
      <!-- 250 -->
      <g style="fill: #262626" transform="translate(276.133642 185.365789) scale(0.1 -0.1)">
       <use xlink:href="#DejaVuSans-32"/>
       <use xlink:href="#DejaVuSans-35" transform="translate(63.623047 0)"/>
       <use xlink:href="#DejaVuSans-30" transform="translate(127.246094 0)"/>
      </g>
     </g>
    </g>
    <g id="text_6">
     <!-- draw -->
     <g style="fill: #262626" transform="translate(171.227107 199.043914) scale(0.1 -0.1)">
      <defs>
       <path id="DejaVuSans-64" d="M 2906 2969 
L 2906 4863 
L 3481 4863 
L 3481 0 
L 2906 0 
L 2906 525 
Q 2725 213 2448 61 
Q 2172 -91 1784 -91 
Q 1150 -91 751 415 
Q 353 922 353 1747 
Q 353 2572 751 3078 
Q 1150 3584 1784 3584 
Q 2172 3584 2448 3432 
Q 2725 3281 2906 2969 
z
M 947 1747 
Q 947 1113 1208 752 
Q 1469 391 1925 391 
Q 2381 391 2643 752 
Q 2906 1113 2906 1747 
Q 2906 2381 2643 2742 
Q 2381 3103 1925 3103 
Q 1469 3103 1208 2742 
Q 947 2381 947 1747 
z
" transform="scale(0.015625)"/>
       <path id="DejaVuSans-72" d="M 2631 2963 
Q 2534 3019 2420 3045 
Q 2306 3072 2169 3072 
Q 1681 3072 1420 2755 
Q 1159 2438 1159 1844 
L 1159 0 
L 581 0 
L 581 3500 
L 1159 3500 
L 1159 2956 
Q 1341 3275 1631 3429 
Q 1922 3584 2338 3584 
Q 2397 3584 2469 3576 
Q 2541 3569 2628 3553 
L 2631 2963 
z
" transform="scale(0.015625)"/>
       <path id="DejaVuSans-61" d="M 2194 1759 
Q 1497 1759 1228 1600 
Q 959 1441 959 1056 
Q 959 750 1161 570 
Q 1363 391 1709 391 
Q 2188 391 2477 730 
Q 2766 1069 2766 1631 
L 2766 1759 
L 2194 1759 
z
M 3341 1997 
L 3341 0 
L 2766 0 
L 2766 531 
Q 2569 213 2275 61 
Q 1981 -91 1556 -91 
Q 1019 -91 701 211 
Q 384 513 384 1019 
Q 384 1609 779 1909 
Q 1175 2209 1959 2209 
L 2766 2209 
L 2766 2266 
Q 2766 2663 2505 2880 
Q 2244 3097 1772 3097 
Q 1472 3097 1187 3025 
Q 903 2953 641 2809 
L 641 3341 
Q 956 3463 1253 3523 
Q 1550 3584 1831 3584 
Q 2591 3584 2966 3190 
Q 3341 2797 3341 1997 
z
" transform="scale(0.015625)"/>
       <path id="DejaVuSans-77" d="M 269 3500 
L 844 3500 
L 1563 769 
L 2278 3500 
L 2956 3500 
L 3675 769 
L 4391 3500 
L 4966 3500 
L 4050 0 
L 3372 0 
L 2619 2869 
L 1863 0 
L 1184 0 
L 269 3500 
z
" transform="scale(0.015625)"/>
      </defs>
      <use xlink:href="#DejaVuSans-64"/>
      <use xlink:href="#DejaVuSans-72" transform="translate(63.476562 0)"/>
      <use xlink:href="#DejaVuSans-61" transform="translate(104.589844 0)"/>
      <use xlink:href="#DejaVuSans-77" transform="translate(165.869141 0)"/>
     </g>
    </g>
   </g>
   <g id="matplotlib.axis_2">
    <g id="ytick_1">
     <g id="text_7">
      <!-- 0.08 -->
      <g style="fill: #262626" transform="translate(21.15625 152.213229) scale(0.1 -0.1)">
       <defs>
        <path id="DejaVuSans-2e" d="M 684 794 
L 1344 794 
L 1344 0 
L 684 0 
L 684 794 
z
" transform="scale(0.015625)"/>
        <path id="DejaVuSans-38" d="M 2034 2216 
Q 1584 2216 1326 1975 
Q 1069 1734 1069 1313 
Q 1069 891 1326 650 
Q 1584 409 2034 409 
Q 2484 409 2743 651 
Q 3003 894 3003 1313 
Q 3003 1734 2745 1975 
Q 2488 2216 2034 2216 
z
M 1403 2484 
Q 997 2584 770 2862 
Q 544 3141 544 3541 
Q 544 4100 942 4425 
Q 1341 4750 2034 4750 
Q 2731 4750 3128 4425 
Q 3525 4100 3525 3541 
Q 3525 3141 3298 2862 
Q 3072 2584 2669 2484 
Q 3125 2378 3379 2068 
Q 3634 1759 3634 1313 
Q 3634 634 3220 271 
Q 2806 -91 2034 -91 
Q 1263 -91 848 271 
Q 434 634 434 1313 
Q 434 1759 690 2068 
Q 947 2378 1403 2484 
z
M 1172 3481 
Q 1172 3119 1398 2916 
Q 1625 2713 2034 2713 
Q 2441 2713 2670 2916 
Q 2900 3119 2900 3481 
Q 2900 3844 2670 4047 
Q 2441 4250 2034 4250 
Q 1625 4250 1398 4047 
Q 1172 3844 1172 3481 
z
" transform="scale(0.015625)"/>
       </defs>
       <use xlink:href="#DejaVuSans-30"/>
       <use xlink:href="#DejaVuSans-2e" transform="translate(63.623047 0)"/>
       <use xlink:href="#DejaVuSans-30" transform="translate(95.410156 0)"/>
       <use xlink:href="#DejaVuSans-38" transform="translate(159.033203 0)"/>
      </g>
     </g>
    </g>
    <g id="ytick_2">
     <g id="text_8">
      <!-- 0.10 -->
      <g style="fill: #262626" transform="translate(21.15625 116.407106) scale(0.1 -0.1)">
       <use xlink:href="#DejaVuSans-30"/>
       <use xlink:href="#DejaVuSans-2e" transform="translate(63.623047 0)"/>
       <use xlink:href="#DejaVuSans-31" transform="translate(95.410156 0)"/>
       <use xlink:href="#DejaVuSans-30" transform="translate(159.033203 0)"/>
      </g>
     </g>
    </g>
    <g id="ytick_3">
     <g id="text_9">
      <!-- 0.12 -->
      <g style="fill: #262626" transform="translate(21.15625 80.600983) scale(0.1 -0.1)">
       <use xlink:href="#DejaVuSans-30"/>
       <use xlink:href="#DejaVuSans-2e" transform="translate(63.623047 0)"/>
       <use xlink:href="#DejaVuSans-31" transform="translate(95.410156 0)"/>
       <use xlink:href="#DejaVuSans-32" transform="translate(159.033203 0)"/>
      </g>
     </g>
    </g>
    <g id="ytick_4">
     <g id="text_10">
      <!-- 0.14 -->
      <g style="fill: #262626" transform="translate(21.15625 44.79486) scale(0.1 -0.1)">
       <defs>
        <path id="DejaVuSans-34" d="M 2419 4116 
L 825 1625 
L 2419 1625 
L 2419 4116 
z
M 2253 4666 
L 3047 4666 
L 3047 1625 
L 3713 1625 
L 3713 1100 
L 3047 1100 
L 3047 0 
L 2419 0 
L 2419 1100 
L 313 1100 
L 313 1709 
L 2253 4666 
z
" transform="scale(0.015625)"/>
       </defs>
       <use xlink:href="#DejaVuSans-30"/>
       <use xlink:href="#DejaVuSans-2e" transform="translate(63.623047 0)"/>
       <use xlink:href="#DejaVuSans-31" transform="translate(95.410156 0)"/>
       <use xlink:href="#DejaVuSans-34" transform="translate(159.033203 0)"/>
      </g>
     </g>
    </g>
    <g id="text_11">
     <!-- train_dtb -->
     <g style="fill: #262626" transform="translate(14.798437 111.42977) rotate(-90) scale(0.1 -0.1)">
      <defs>
       <path id="DejaVuSans-74" d="M 1172 4494 
L 1172 3500 
L 2356 3500 
L 2356 3053 
L 1172 3053 
L 1172 1153 
Q 1172 725 1289 603 
Q 1406 481 1766 481 
L 2356 481 
L 2356 0 
L 1766 0 
Q 1100 0 847 248 
Q 594 497 594 1153 
L 594 3053 
L 172 3053 
L 172 3500 
L 594 3500 
L 594 4494 
L 1172 4494 
z
" transform="scale(0.015625)"/>
       <path id="DejaVuSans-69" d="M 603 3500 
L 1178 3500 
L 1178 0 
L 603 0 
L 603 3500 
z
M 603 4863 
L 1178 4863 
L 1178 4134 
L 603 4134 
L 603 4863 
z
" transform="scale(0.015625)"/>
       <path id="DejaVuSans-6e" d="M 3513 2113 
L 3513 0 
L 2938 0 
L 2938 2094 
Q 2938 2591 2744 2837 
Q 2550 3084 2163 3084 
Q 1697 3084 1428 2787 
Q 1159 2491 1159 1978 
L 1159 0 
L 581 0 
L 581 3500 
L 1159 3500 
L 1159 2956 
Q 1366 3272 1645 3428 
Q 1925 3584 2291 3584 
Q 2894 3584 3203 3211 
Q 3513 2838 3513 2113 
z
" transform="scale(0.015625)"/>
       <path id="DejaVuSans-5f" d="M 3263 -1063 
L 3263 -1509 
L -63 -1509 
L -63 -1063 
L 3263 -1063 
z
" transform="scale(0.015625)"/>
       <path id="DejaVuSans-62" d="M 3116 1747 
Q 3116 2381 2855 2742 
Q 2594 3103 2138 3103 
Q 1681 3103 1420 2742 
Q 1159 2381 1159 1747 
Q 1159 1113 1420 752 
Q 1681 391 2138 391 
Q 2594 391 2855 752 
Q 3116 1113 3116 1747 
z
M 1159 2969 
Q 1341 3281 1617 3432 
Q 1894 3584 2278 3584 
Q 2916 3584 3314 3078 
Q 3713 2572 3713 1747 
Q 3713 922 3314 415 
Q 2916 -91 2278 -91 
Q 1894 -91 1617 61 
Q 1341 213 1159 525 
L 1159 0 
L 581 0 
L 581 4863 
L 1159 4863 
L 1159 2969 
z
" transform="scale(0.015625)"/>
      </defs>
      <use xlink:href="#DejaVuSans-74"/>
      <use xlink:href="#DejaVuSans-72" transform="translate(39.208984 0)"/>
      <use xlink:href="#DejaVuSans-61" transform="translate(80.322266 0)"/>
      <use xlink:href="#DejaVuSans-69" transform="translate(141.601562 0)"/>
      <use xlink:href="#DejaVuSans-6e" transform="translate(169.384766 0)"/>
      <use xlink:href="#DejaVuSans-5f" transform="translate(232.763672 0)"/>
      <use xlink:href="#DejaVuSans-64" transform="translate(282.763672 0)"/>
      <use xlink:href="#DejaVuSans-74" transform="translate(346.240234 0)"/>
      <use xlink:href="#DejaVuSans-62" transform="translate(385.449219 0)"/>
     </g>
    </g>
   </g>
   <g id="line2d_1">
    <path d="M 62.529879 137.744074 
L 63.530541 153.92429 
L 64.531202 156.821691 
L 65.531864 146.049387 
L 66.532525 157.069736 
L 67.533187 159.031093 
L 68.533848 93.60655 
L 69.53451 160.166826 
L 70.535171 161.938363 
L 71.535833 87.590156 
L 72.536494 155.457553 
L 74.537817 139.644307 
L 75.538478 121.211711 
L 76.53914 158.90579 
L 77.539801 62.308853 
L 78.540463 155.27397 
L 79.541124 155.074191 
L 80.541786 155.644937 
L 81.542447 112.440819 
L 82.543109 159.774285 
L 83.54377 134.803931 
L 84.544432 150.47406 
L 85.545093 103.859638 
L 86.545755 117.858214 
L 87.546416 127.719767 
L 88.547078 163.332472 
L 89.547739 124.927779 
L 90.548401 150.065445 
L 91.549062 133.170528 
L 92.549724 156.120665 
L 93.550385 155.709614 
L 94.551047 157.199247 
L 95.551708 156.318973 
L 96.55237 124.728847 
L 97.553031 156.31169 
L 98.553693 150.286162 
L 99.554354 156.286885 
L 101.555677 156.423724 
L 102.556339 158.519453 
L 103.557 145.005181 
L 104.557662 159.135772 
L 105.558323 126.84906 
L 106.558985 161.165442 
L 107.559646 158.054338 
L 108.560308 123.590431 
L 109.560969 133.706849 
L 110.561631 108.708616 
L 111.562292 156.190404 
L 112.562954 158.039973 
L 113.563615 134.55107 
L 114.564277 142.031043 
L 115.564938 142.292683 
L 116.5656 155.407058 
L 117.566261 127.941793 
L 118.566923 157.845627 
L 119.567584 145.514578 
L 120.568246 130.61926 
L 121.568907 114.054709 
L 122.569569 108.596658 
L 123.57023 153.214095 
L 124.570892 155.366648 
L 125.571553 155.026228 
L 126.572215 143.344772 
L 127.572876 155.412226 
L 128.573538 153.819149 
L 129.574199 151.842466 
L 130.574861 159.794602 
L 131.575522 157.682188 
L 132.576184 157.651914 
L 133.576845 152.212768 
L 134.577507 157.537298 
L 135.578168 157.371599 
L 136.57883 159.388911 
L 137.579491 154.293358 
L 138.580153 156.264517 
L 139.580814 154.220679 
L 140.581476 154.415149 
L 141.582137 109.665086 
L 142.582799 153.936474 
L 143.58346 157.029657 
L 144.584122 138.058804 
L 145.584783 128.838964 
L 146.585445 113.240208 
L 148.586768 158.781096 
L 149.587429 136.744429 
L 150.588091 156.379132 
L 151.588752 156.403563 
L 152.589414 148.316939 
L 153.590075 115.14981 
L 154.590737 158.358865 
L 155.591398 156.469532 
L 156.592059 158.825649 
L 157.592721 123.548188 
L 158.593382 94.860848 
L 159.594044 136.576435 
L 160.594705 156.128488 
L 161.595367 157.41576 
L 162.596028 153.145238 
L 163.59669 157.256876 
L 164.597351 127.933597 
L 165.598013 158.148308 
L 166.598674 160.216143 
L 167.599336 115.647075 
L 168.599997 141.391387 
L 169.600659 149.668571 
L 170.60132 84.567266 
L 171.601982 158.197604 
L 172.602643 161.764042 
L 173.603305 130.004917 
L 174.603966 121.455958 
L 175.604628 156.165826 
L 176.605289 158.473363 
L 177.605951 150.648633 
L 178.606612 158.895197 
L 179.607274 102.708312 
L 180.607935 158.744512 
L 181.608597 142.429205 
L 182.609258 139.927899 
L 183.60992 110.428721 
L 184.610581 159.109127 
L 185.611243 125.999927 
L 186.611904 125.806532 
L 187.612566 155.255361 
L 188.613227 143.999273 
L 189.613889 156.086994 
L 190.61455 158.419876 
L 191.615212 132.936416 
L 192.615873 158.436179 
L 193.616535 129.170215 
L 194.617196 156.155586 
L 195.617858 158.189656 
L 196.618519 161.160278 
L 197.619181 103.050237 
L 198.619842 126.277211 
L 199.620504 157.483653 
L 200.621165 158.652082 
L 201.621827 157.885991 
L 202.622488 159.920439 
L 203.62315 111.599343 
L 204.623811 129.892923 
L 205.624473 134.074748 
L 206.625134 154.181725 
L 207.625796 146.96137 
L 208.626457 154.584243 
L 209.627119 154.451997 
L 210.62778 130.709847 
L 211.628442 146.44137 
L 212.629103 48.49794 
L 213.629765 139.901445 
L 214.630426 159.888189 
L 215.631088 32.170651 
L 216.631749 100.768818 
L 217.632411 141.707217 
L 218.633072 155.639942 
L 219.633734 148.953202 
L 220.634395 157.2061 
L 221.635057 155.438889 
L 222.635718 150.283244 
L 223.63638 131.195358 
L 224.637041 155.731258 
L 225.637703 144.84513 
L 226.638364 157.479134 
L 227.639026 158.417993 
L 228.639687 14.63488 
L 229.640349 135.348218 
L 230.64101 159.52151 
L 231.641672 23.2857 
L 232.642333 157.48401 
L 233.642995 156.842773 
L 234.643656 106.437525 
L 235.644318 159.023982 
L 236.644979 155.754271 
L 237.64564 130.241679 
L 238.646302 157.514272 
L 239.646963 127.838976 
L 240.647625 155.76591 
L 241.648286 119.631259 
L 242.648948 155.618848 
L 243.649609 155.373133 
L 244.650271 158.364415 
L 245.650932 159.087891 
L 246.651594 144.510038 
L 248.652917 88.759479 
L 249.653578 139.258628 
L 250.65424 159.474246 
L 251.654901 113.497293 
L 252.655563 130.848872 
L 253.656224 142.617144 
L 254.656886 142.310677 
L 255.657547 131.906671 
L 256.658209 157.648132 
L 257.65887 136.272118 
L 258.659532 154.067541 
L 259.660193 153.107517 
L 260.660855 112.742339 
L 261.661516 156.285698 
L 262.662178 158.858446 
L 263.662839 136.834379 
L 264.663501 153.662817 
L 265.664162 156.134259 
L 266.664824 156.769002 
L 267.665485 156.464957 
L 268.666147 158.538204 
L 269.666808 65.374342 
L 270.66747 136.646815 
L 271.668131 154.046052 
L 272.668793 61.827417 
L 273.669454 158.658989 
L 274.670116 162.610869 
L 275.670777 159.280925 
L 276.671439 100.97751 
L 277.6721 101.241484 
L 278.672762 155.657448 
L 279.673423 141.338797 
L 280.674085 157.968498 
L 281.674746 132.498475 
L 282.675408 137.847065 
L 283.676069 144.96179 
L 284.676731 150.646158 
L 285.677392 121.215529 
L 286.678054 160.310791 
L 287.678715 110.942217 
L 288.679377 155.230679 
L 289.680038 157.354901 
L 290.6807 159.187149 
L 291.681361 131.111901 
L 292.682023 155.943968 
L 293.682684 155.242445 
L 294.683346 155.939823 
L 295.684007 131.025841 
L 296.684669 156.331111 
L 297.68533 157.247801 
L 298.685992 159.706665 
L 299.686653 119.924018 
L 300.687315 124.603226 
L 301.687976 157.12185 
L 302.688638 152.139744 
L 303.689299 134.174478 
L 304.689961 160.649776 
L 304.689961 160.649776 
" clip-path="url(#pb0e5013680)" style="fill: none; stroke: #9f4800; stroke-width: 1.5; stroke-linecap: round"/>
   </g>
  </g>
 </g>
 <defs>
  <clipPath id="pb0e5013680">
   <rect x="50.421875" y="7.2" width="266.37609" height="163.567352"/>
  </clipPath>
 </defs>
</svg>
