<?xml version="1.0" encoding="utf-8" standalone="no"?>
<!DOCTYPE svg PUBLIC "-//W3C//DTD SVG 1.1//EN"
  "http://www.w3.org/Graphics/SVG/1.1/DTD/svg11.dtd">
<svg xmlns:xlink="http://www.w3.org/1999/xlink" width="323.997965pt" height="208.323602pt" viewBox="0 0 323.997965 208.323602" xmlns="http://www.w3.org/2000/svg" version="1.1">
 <metadata>
  <rdf:RDF xmlns:dc="http://purl.org/dc/elements/1.1/" xmlns:cc="http://creativecommons.org/ns#" xmlns:rdf="http://www.w3.org/1999/02/22-rdf-syntax-ns#">
   <cc:Work>
    <dc:type rdf:resource="http://purl.org/dc/dcmitype/StillImage"/>
    <dc:date>2025-11-25T19:09:41.981106</dc:date>
    <dc:format>image/svg+xml</dc:format>
    <dc:creator>
     <cc:Agent>
      <dc:title>Matplotlib v3.10.6, https://matplotlib.org/</dc:title>
     </cc:Agent>
    </dc:creator>
   </cc:Work>
  </rdf:RDF>
 </metadata>
 <defs>
  <style type="text/css">*{stroke-linejoin: round; stroke-linecap: butt}</style>
 </defs>
 <g id="figure_1">
  <g id="patch_1">
   <path d="M 0 208.323602 
L 323.997965 208.323602 
L 323.997965 0 
L 0 0 
L 0 208.323602 
z
" style="fill: none"/>
  </g>
  <g id="axes_1">
   <g id="patch_2">
    <path d="M 50.421875 170.767352 
L 316.797965 170.767352 
L 316.797965 7.2 
L 50.421875 7.2 
L 50.421875 170.767352 
z
" style="fill: none"/>
   </g>
   <g id="matplotlib.axis_1">
    <g id="xtick_1">
     <g id="text_1">
      <!-- 50 -->
      <g style="fill: #262626" transform="translate(79.182593 185.365789) scale(0.1 -0.1)">
       <defs>
        <path id="DejaVuSans-35" d="M 691 4666 
L 3169 4666 
L 3169 4134 
L 1269 4134 
L 1269 2991 
Q 1406 3038 1543 3061 
Q 1681 3084 1819 3084 
Q 2600 3084 3056 2656 
Q 3513 2228 3513 1497 
Q 3513 744 3044 326 
Q 2575 -91 1722 -91 
Q 1428 -91 1123 -41 
Q 819 9 494 109 
L 494 744 
Q 775 591 1075 516 
Q 1375 441 1709 441 
Q 2250 441 2565 725 
Q 2881 1009 2881 1497 
Q 2881 1984 2565 2268 
Q 2250 2553 1709 2553 
Q 1456 2553 1204 2497 
Q 953 2441 691 2322 
L 691 4666 
z
" transform="scale(0.015625)"/>
        <path id="DejaVuSans-30" d="M 2034 4250 
Q 1547 4250 1301 3770 
Q 1056 3291 1056 2328 
Q 1056 1369 1301 889 
Q 1547 409 2034 409 
Q 2525 409 2770 889 
Q 3016 1369 3016 2328 
Q 3016 3291 2770 3770 
Q 2525 4250 2034 4250 
z
M 2034 4750 
Q 2819 4750 3233 4129 
Q 3647 3509 3647 2328 
Q 3647 1150 3233 529 
Q 2819 -91 2034 -91 
Q 1250 -91 836 529 
Q 422 1150 422 2328 
Q 422 3509 836 4129 
Q 1250 4750 2034 4750 
z
" transform="scale(0.015625)"/>
       </defs>
       <use xlink:href="#DejaVuSans-35"/>
       <use xlink:href="#DejaVuSans-30" transform="translate(63.623047 0)"/>
      </g>
     </g>
    </g>
    <g id="xtick_2">
     <g id="text_2">
      <!-- 100 -->
      <g style="fill: #262626" transform="translate(126.034418 185.365789) scale(0.1 -0.1)">
       <defs>
        <path id="DejaVuSans-31" d="M 794 531 
L 1825 531 
L 1825 4091 
L 703 3866 
L 703 4441 
L 1819 4666 
L 2450 4666 
L 2450 531 
L 3481 531 
L 3481 0 
L 794 0 
L 794 531 
z
" transform="scale(0.015625)"/>
       </defs>
       <use xlink:href="#DejaVuSans-31"/>
       <use xlink:href="#DejaVuSans-30" transform="translate(63.623047 0)"/>
       <use xlink:href="#DejaVuSans-30" transform="translate(127.246094 0)"/>
      </g>
     </g>
    </g>
    <g id="xtick_3">
     <g id="text_3">
      <!-- 150 -->
      <g style="fill: #262626" transform="translate(176.067493 185.365789) scale(0.1 -0.1)">
       <use xlink:href="#DejaVuSans-31"/>
       <use xlink:href="#DejaVuSans-35" transform="translate(63.623047 0)"/>
       <use xlink:href="#DejaVuSans-30" transform="translate(127.246094 0)"/>
      </g>
     </g>
    </g>
    <g id="xtick_4">
     <g id="text_4">
      <!-- 200 -->
      <g style="fill: #262626" transform="translate(226.100568 185.365789) scale(0.1 -0.1)">
       <defs>
        <path id="DejaVuSans-32" d="M 1228 531 
L 3431 531 
L 3431 0 
L 469 0 
L 469 531 
Q 828 903 1448 1529 
Q 2069 2156 2228 2338 
Q 2531 2678 2651 2914 
Q 2772 3150 2772 3378 
Q 2772 3750 2511 3984 
Q 2250 4219 1831 4219 
Q 1534 4219 1204 4116 
Q 875 4013 500 3803 
L 500 4441 
Q 881 4594 1212 4672 
Q 1544 4750 1819 4750 
Q 2544 4750 2975 4387 
Q 3406 4025 3406 3419 
Q 3406 3131 3298 2873 
Q 3191 2616 2906 2266 
Q 2828 2175 2409 1742 
Q 1991 1309 1228 531 
z
" transform="scale(0.015625)"/>
       </defs>
       <use xlink:href="#DejaVuSans-32"/>
       <use xlink:href="#DejaVuSans-30" transform="translate(63.623047 0)"/>
       <use xlink:href="#DejaVuSans-30" transform="translate(127.246094 0)"/>
      </g>
     </g>
    </g>
    <g id="xtick_5">
     <g id="text_5">
      <!-- 250 -->
      <g style="fill: #262626" transform="translate(276.133642 185.365789) scale(0.1 -0.1)">
       <use xlink:href="#DejaVuSans-32"/>
       <use xlink:href="#DejaVuSans-35" transform="translate(63.623047 0)"/>
       <use xlink:href="#DejaVuSans-30" transform="translate(127.246094 0)"/>
      </g>
     </g>
    </g>
    <g id="text_6">
     <!-- draw -->
     <g style="fill: #262626" transform="translate(171.227107 199.043914) scale(0.1 -0.1)">
      <defs>
       <path id="DejaVuSans-64" d="M 2906 2969 
L 2906 4863 
L 3481 4863 
L 3481 0 
L 2906 0 
L 2906 525 
Q 2725 213 2448 61 
Q 2172 -91 1784 -91 
Q 1150 -91 751 415 
Q 353 922 353 1747 
Q 353 2572 751 3078 
Q 1150 3584 1784 3584 
Q 2172 3584 2448 3432 
Q 2725 3281 2906 2969 
z
M 947 1747 
Q 947 1113 1208 752 
Q 1469 391 1925 391 
Q 2381 391 2643 752 
Q 2906 1113 2906 1747 
Q 2906 2381 2643 2742 
Q 2381 3103 1925 3103 
Q 1469 3103 1208 2742 
Q 947 2381 947 1747 
z
" transform="scale(0.015625)"/>
       <path id="DejaVuSans-72" d="M 2631 2963 
Q 2534 3019 2420 3045 
Q 2306 3072 2169 3072 
Q 1681 3072 1420 2755 
Q 1159 2438 1159 1844 
L 1159 0 
L 581 0 
L 581 3500 
L 1159 3500 
L 1159 2956 
Q 1341 3275 1631 3429 
Q 1922 3584 2338 3584 
Q 2397 3584 2469 3576 
Q 2541 3569 2628 3553 
L 2631 2963 
z
" transform="scale(0.015625)"/>
       <path id="DejaVuSans-61" d="M 2194 1759 
Q 1497 1759 1228 1600 
Q 959 1441 959 1056 
Q 959 750 1161 570 
Q 1363 391 1709 391 
Q 2188 391 2477 730 
Q 2766 1069 2766 1631 
L 2766 1759 
L 2194 1759 
z
M 3341 1997 
L 3341 0 
L 2766 0 
L 2766 531 
Q 2569 213 2275 61 
Q 1981 -91 1556 -91 
Q 1019 -91 701 211 
Q 384 513 384 1019 
Q 384 1609 779 1909 
Q 1175 2209 1959 2209 
L 2766 2209 
L 2766 2266 
Q 2766 2663 2505 2880 
Q 2244 3097 1772 3097 
Q 1472 3097 1187 3025 
Q 903 2953 641 2809 
L 641 3341 
Q 956 3463 1253 3523 
Q 1550 3584 1831 3584 
Q 2591 3584 2966 3190 
Q 3341 2797 3341 1997 
z
" transform="scale(0.015625)"/>
       <path id="DejaVuSans-77" d="M 269 3500 
L 844 3500 
L 1563 769 
L 2278 3500 
L 2956 3500 
L 3675 769 
L 4391 3500 
L 4966 3500 
L 4050 0 
L 3372 0 
L 2619 2869 
L 1863 0 
L 1184 0 
L 269 3500 
z
" transform="scale(0.015625)"/>
      </defs>
      <use xlink:href="#DejaVuSans-64"/>
      <use xlink:href="#DejaVuSans-72" transform="translate(63.476562 0)"/>
      <use xlink:href="#DejaVuSans-61" transform="translate(104.589844 0)"/>
      <use xlink:href="#DejaVuSans-77" transform="translate(165.869141 0)"/>
     </g>
    </g>
   </g>
   <g id="matplotlib.axis_2">
    <g id="ytick_1">
     <g id="text_7">
      <!-- 0.05 -->
      <g style="fill: #262626" transform="translate(21.15625 166.717115) scale(0.1 -0.1)">
       <defs>
        <path id="DejaVuSans-2e" d="M 684 794 
L 1344 794 
L 1344 0 
L 684 0 
L 684 794 
z
" transform="scale(0.015625)"/>
       </defs>
       <use xlink:href="#DejaVuSans-30"/>
       <use xlink:href="#DejaVuSans-2e" transform="translate(63.623047 0)"/>
       <use xlink:href="#DejaVuSans-30" transform="translate(95.410156 0)"/>
       <use xlink:href="#DejaVuSans-35" transform="translate(159.033203 0)"/>
      </g>
     </g>
    </g>
    <g id="ytick_2">
     <g id="text_8">
      <!-- 0.10 -->
      <g style="fill: #262626" transform="translate(21.15625 129.144807) scale(0.1 -0.1)">
       <use xlink:href="#DejaVuSans-30"/>
       <use xlink:href="#DejaVuSans-2e" transform="translate(63.623047 0)"/>
       <use xlink:href="#DejaVuSans-31" transform="translate(95.410156 0)"/>
       <use xlink:href="#DejaVuSans-30" transform="translate(159.033203 0)"/>
      </g>
     </g>
    </g>
    <g id="ytick_3">
     <g id="text_9">
      <!-- 0.15 -->
      <g style="fill: #262626" transform="translate(21.15625 91.572498) scale(0.1 -0.1)">
       <use xlink:href="#DejaVuSans-30"/>
       <use xlink:href="#DejaVuSans-2e" transform="translate(63.623047 0)"/>
       <use xlink:href="#DejaVuSans-31" transform="translate(95.410156 0)"/>
       <use xlink:href="#DejaVuSans-35" transform="translate(159.033203 0)"/>
      </g>
     </g>
    </g>
    <g id="ytick_4">
     <g id="text_10">
      <!-- 0.20 -->
      <g style="fill: #262626" transform="translate(21.15625 54.000189) scale(0.1 -0.1)">
       <use xlink:href="#DejaVuSans-30"/>
       <use xlink:href="#DejaVuSans-2e" transform="translate(63.623047 0)"/>
       <use xlink:href="#DejaVuSans-32" transform="translate(95.410156 0)"/>
       <use xlink:href="#DejaVuSans-30" transform="translate(159.033203 0)"/>
      </g>
     </g>
    </g>
    <g id="ytick_5">
     <g id="text_11">
      <!-- 0.25 -->
      <g style="fill: #262626" transform="translate(21.15625 16.42788) scale(0.1 -0.1)">
       <use xlink:href="#DejaVuSans-30"/>
       <use xlink:href="#DejaVuSans-2e" transform="translate(63.623047 0)"/>
       <use xlink:href="#DejaVuSans-32" transform="translate(95.410156 0)"/>
       <use xlink:href="#DejaVuSans-35" transform="translate(159.033203 0)"/>
      </g>
     </g>
    </g>
    <g id="text_12">
     <!-- train_dtf -->
     <g style="fill: #262626" transform="translate(14.798437 110.015707) rotate(-90) scale(0.1 -0.1)">
      <defs>
       <path id="DejaVuSans-74" d="M 1172 4494 
L 1172 3500 
L 2356 3500 
L 2356 3053 
L 1172 3053 
L 1172 1153 
Q 1172 725 1289 603 
Q 1406 481 1766 481 
L 2356 481 
L 2356 0 
L 1766 0 
Q 1100 0 847 248 
Q 594 497 594 1153 
L 594 3053 
L 172 3053 
L 172 3500 
L 594 3500 
L 594 4494 
L 1172 4494 
z
" transform="scale(0.015625)"/>
       <path id="DejaVuSans-69" d="M 603 3500 
L 1178 3500 
L 1178 0 
L 603 0 
L 603 3500 
z
M 603 4863 
L 1178 4863 
L 1178 4134 
L 603 4134 
L 603 4863 
z
" transform="scale(0.015625)"/>
       <path id="DejaVuSans-6e" d="M 3513 2113 
L 3513 0 
L 2938 0 
L 2938 2094 
Q 2938 2591 2744 2837 
Q 2550 3084 2163 3084 
Q 1697 3084 1428 2787 
Q 1159 2491 1159 1978 
L 1159 0 
L 581 0 
L 581 3500 
L 1159 3500 
L 1159 2956 
Q 1366 3272 1645 3428 
Q 1925 3584 2291 3584 
Q 2894 3584 3203 3211 
Q 3513 2838 3513 2113 
z
" transform="scale(0.015625)"/>
       <path id="DejaVuSans-5f" d="M 3263 -1063 
L 3263 -1509 
L -63 -1509 
L -63 -1063 
L 3263 -1063 
z
" transform="scale(0.015625)"/>
       <path id="DejaVuSans-66" d="M 2375 4863 
L 2375 4384 
L 1825 4384 
Q 1516 4384 1395 4259 
Q 1275 4134 1275 3809 
L 1275 3500 
L 2222 3500 
L 2222 3053 
L 1275 3053 
L 1275 0 
L 697 0 
L 697 3053 
L 147 3053 
L 147 3500 
L 697 3500 
L 697 3744 
Q 697 4328 969 4595 
Q 1241 4863 1831 4863 
L 2375 4863 
z
" transform="scale(0.015625)"/>
      </defs>
      <use xlink:href="#DejaVuSans-74"/>
      <use xlink:href="#DejaVuSans-72" transform="translate(39.208984 0)"/>
      <use xlink:href="#DejaVuSans-61" transform="translate(80.322266 0)"/>
      <use xlink:href="#DejaVuSans-69" transform="translate(141.601562 0)"/>
      <use xlink:href="#DejaVuSans-6e" transform="translate(169.384766 0)"/>
      <use xlink:href="#DejaVuSans-5f" transform="translate(232.763672 0)"/>
      <use xlink:href="#DejaVuSans-64" transform="translate(282.763672 0)"/>
      <use xlink:href="#DejaVuSans-74" transform="translate(346.240234 0)"/>
      <use xlink:href="#DejaVuSans-66" transform="translate(385.449219 0)"/>
     </g>
    </g>
   </g>
   <g id="line2d_1">
    <path d="M 62.529879 55.010577 
L 63.530541 57.768173 
L 64.531202 162.525178 
L 65.531864 38.84585 
L 66.532525 37.46295 
L 67.533187 41.610561 
L 68.533848 90.712885 
L 69.53451 25.773523 
L 70.535171 163.314843 
L 72.536494 23.112037 
L 73.537156 50.492011 
L 74.537817 69.48651 
L 75.538478 77.160572 
L 76.53914 162.656838 
L 77.539801 108.156144 
L 78.540463 43.788954 
L 79.541124 37.710384 
L 80.541786 26.302805 
L 81.542447 79.447067 
L 82.543109 162.465454 
L 83.54377 70.962155 
L 84.544432 48.181635 
L 85.545093 48.056488 
L 86.545755 69.67736 
L 87.546416 55.554313 
L 88.547078 54.533002 
L 89.547739 57.479723 
L 90.548401 40.090738 
L 91.549062 66.862523 
L 92.549724 42.471102 
L 93.550385 36.929224 
L 94.551047 162.257957 
L 95.551708 31.637898 
L 96.55237 52.865472 
L 97.553031 23.97055 
L 98.553693 46.140222 
L 99.554354 34.158572 
L 100.555016 162.636936 
L 101.555677 40.92589 
L 102.556339 22.144714 
L 103.557 45.551784 
L 104.557662 29.228796 
L 105.558323 26.647818 
L 106.558985 163.290872 
L 107.559646 47.154964 
L 108.560308 65.470996 
L 109.560969 58.724848 
L 110.561631 71.551464 
L 111.562292 33.482924 
L 112.562954 162.567651 
L 113.563615 50.236551 
L 114.564277 61.356982 
L 115.564938 49.542963 
L 116.5656 35.712002 
L 117.566261 55.797369 
L 118.566923 162.457599 
L 119.567584 66.710856 
L 120.568246 46.838479 
L 121.568907 67.531346 
L 122.569569 61.410819 
L 123.57023 41.699989 
L 124.570892 162.444619 
L 125.571553 32.079702 
L 126.572215 38.643434 
L 127.572876 24.224359 
L 128.573538 36.567079 
L 129.574199 35.604164 
L 130.574861 163.18536 
L 131.575522 55.410862 
L 132.576184 33.17941 
L 133.576845 36.118626 
L 134.577507 37.268693 
L 135.578168 34.788236 
L 136.57883 163.31662 
L 137.579491 29.613436 
L 138.580153 35.75542 
L 139.580814 19.529045 
L 140.581476 26.099575 
L 141.582137 44.590014 
L 142.582799 162.493291 
L 143.58346 17.127133 
L 144.584122 44.333645 
L 145.584783 62.962511 
L 146.585445 74.494791 
L 147.586106 52.883916 
L 148.586768 162.765711 
L 149.587429 53.233466 
L 150.588091 28.890569 
L 151.588752 31.526557 
L 152.589414 41.896718 
L 153.590075 42.020788 
L 154.590737 162.254147 
L 155.591398 25.589577 
L 156.592059 35.729875 
L 157.592721 63.542856 
L 158.593382 62.417528 
L 159.594044 48.861201 
L 160.594705 162.241296 
L 161.595367 26.006063 
L 162.596028 42.73712 
L 163.59669 33.26346 
L 164.597351 72.010562 
L 165.598013 42.344651 
L 166.598674 163.262302 
L 167.599336 49.128568 
L 168.599997 30.739372 
L 169.600659 43.001208 
L 170.60132 79.870492 
L 171.601982 24.450104 
L 172.602643 163.272146 
L 173.603305 54.655029 
L 174.603966 50.166917 
L 175.604628 29.830705 
L 176.605289 34.826468 
L 177.605951 58.350961 
L 178.606612 163.234458 
L 179.607274 68.449169 
L 180.607935 50.113682 
L 181.608597 39.789723 
L 182.609258 40.718756 
L 183.60992 80.088354 
L 184.610581 162.664763 
L 185.611243 46.725216 
L 186.611904 45.720814 
L 187.612566 25.265831 
L 188.613227 49.404784 
L 189.613889 23.265347 
L 190.61455 162.836467 
L 191.615212 53.107516 
L 192.615873 44.423385 
L 193.616535 75.22029 
L 194.617196 24.481821 
L 195.617858 31.119077 
L 196.618519 163.332472 
L 197.619181 72.91526 
L 199.620504 14.63488 
L 200.621165 54.169925 
L 201.621827 35.916123 
L 202.622488 163.309901 
L 203.62315 42.652605 
L 204.623811 44.760416 
L 205.624473 60.224341 
L 206.625134 32.260024 
L 207.625796 46.255056 
L 208.626457 162.500204 
L 209.627119 34.85388 
L 210.62778 49.460902 
L 211.628442 38.996159 
L 212.629103 92.839975 
L 213.629765 47.423181 
L 214.630426 163.095142 
L 216.631749 63.368679 
L 217.632411 37.800818 
L 218.633072 28.058298 
L 219.633734 30.904926 
L 220.634395 162.465979 
L 221.635057 27.080999 
L 222.635718 44.58153 
L 223.63638 69.742419 
L 224.637041 52.246549 
L 225.637703 65.301143 
L 226.638364 162.868237 
L 227.639026 36.550112 
L 228.639687 145.281015 
L 229.640349 57.35089 
L 230.64101 45.374387 
L 231.641672 129.001898 
L 232.642333 162.532275 
L 233.642995 37.170512 
L 234.643656 67.641595 
L 235.644318 31.664853 
L 236.644979 26.811853 
L 237.64564 51.058262 
L 238.646302 162.635153 
L 239.646963 47.579648 
L 240.647625 20.685442 
L 241.648286 71.334073 
L 242.648948 42.206786 
L 243.649609 33.525877 
L 244.650271 162.520395 
L 245.650932 28.873507 
L 246.651594 50.094469 
L 247.652255 66.202357 
L 248.652917 74.562158 
L 249.653578 41.159306 
L 250.65424 162.753593 
L 251.654901 46.084399 
L 252.655563 48.306344 
L 253.656224 41.145145 
L 254.656886 45.312811 
L 255.657547 64.85716 
L 256.658209 162.882 
L 257.65887 72.150448 
L 258.659532 28.799629 
L 259.660193 31.151667 
L 260.660855 70.530321 
L 261.661516 30.167841 
L 262.662178 162.45964 
L 263.662839 44.873021 
L 264.663501 36.268988 
L 265.664162 28.85114 
L 266.664824 26.525737 
L 267.665485 43.104628 
L 268.666147 162.659658 
L 269.666808 102.625144 
L 270.66747 144.026296 
L 271.668131 45.748392 
L 272.668793 112.25841 
L 273.669454 39.659246 
L 274.670116 162.887662 
L 275.670777 32.003089 
L 276.671439 70.844076 
L 277.6721 72.458555 
L 278.672762 34.479047 
L 279.673423 54.373664 
L 280.674085 162.738228 
L 281.674746 53.723263 
L 282.675408 45.962654 
L 283.676069 53.151777 
L 284.676731 49.208486 
L 285.677392 59.57873 
L 286.678054 163.106619 
L 287.678715 82.957811 
L 288.679377 26.917555 
L 289.680038 21.635124 
L 290.6807 42.90836 
L 291.681361 46.047944 
L 292.682023 162.292337 
L 293.682684 61.4588 
L 294.683346 21.835549 
L 295.684007 54.96363 
L 296.684669 30.820423 
L 297.68533 45.09028 
L 298.685992 163.145655 
L 299.686653 67.297074 
L 300.687315 38.383497 
L 301.687976 35.632229 
L 302.688638 33.455677 
L 303.689299 42.176726 
L 304.689961 163.183199 
L 304.689961 163.183199 
" clip-path="url(#p0b3a6d1189)" style="fill: none; stroke: #8b2be2; stroke-width: 1.5; stroke-linecap: round"/>
   </g>
  </g>
 </g>
 <defs>
  <clipPath id="p0b3a6d1189">
   <rect x="50.421875" y="7.2" width="266.37609" height="163.567352"/>
  </clipPath>
 </defs>
</svg>
