<?xml version="1.0" encoding="utf-8" standalone="no"?>
<!DOCTYPE svg PUBLIC "-//W3C//DTD SVG 1.1//EN"
  "http://www.w3.org/Graphics/SVG/1.1/DTD/svg11.dtd">
<svg xmlns:xlink="http://www.w3.org/1999/xlink" width="323.997965pt" height="208.323602pt" viewBox="0 0 323.997965 208.323602" xmlns="http://www.w3.org/2000/svg" version="1.1">
 <metadata>
  <rdf:RDF xmlns:dc="http://purl.org/dc/elements/1.1/" xmlns:cc="http://creativecommons.org/ns#" xmlns:rdf="http://www.w3.org/1999/02/22-rdf-syntax-ns#">
   <cc:Work>
    <dc:type rdf:resource="http://purl.org/dc/dcmitype/StillImage"/>
    <dc:date>2025-11-25T19:09:41.799397</dc:date>
    <dc:format>image/svg+xml</dc:format>
    <dc:creator>
     <cc:Agent>
      <dc:title>Matplotlib v3.10.6, https://matplotlib.org/</dc:title>
     </cc:Agent>
    </dc:creator>
   </cc:Work>
  </rdf:RDF>
 </metadata>
 <defs>
  <style type="text/css">*{stroke-linejoin: round; stroke-linecap: butt}</style>
 </defs>
 <g id="figure_1">
  <g id="patch_1">
   <path d="M 0 208.323602 
L 323.997965 208.323602 
L 323.997965 0 
L 0 0 
L 0 208.323602 
z
" style="fill: none"/>
  </g>
  <g id="axes_1">
   <g id="patch_2">
    <path d="M 50.421875 170.767352 
L 316.797965 170.767352 
L 316.797965 7.2 
L 50.421875 7.2 
L 50.421875 170.767352 
z
" style="fill: none"/>
   </g>
   <g id="matplotlib.axis_1">
    <g id="xtick_1">
     <g id="text_1">
      <!-- 50 -->
      <g style="fill: #262626" transform="translate(79.182593 185.365789) scale(0.1 -0.1)">
       <defs>
        <path id="DejaVuSans-35" d="M 691 4666 
L 3169 4666 
L 3169 4134 
L 1269 4134 
L 1269 2991 
Q 1406 3038 1543 3061 
Q 1681 3084 1819 3084 
Q 2600 3084 3056 2656 
Q 3513 2228 3513 1497 
Q 3513 744 3044 326 
Q 2575 -91 1722 -91 
Q 1428 -91 1123 -41 
Q 819 9 494 109 
L 494 744 
Q 775 591 1075 516 
Q 1375 441 1709 441 
Q 2250 441 2565 725 
Q 2881 1009 2881 1497 
Q 2881 1984 2565 2268 
Q 2250 2553 1709 2553 
Q 1456 2553 1204 2497 
Q 953 2441 691 2322 
L 691 4666 
z
" transform="scale(0.015625)"/>
        <path id="DejaVuSans-30" d="M 2034 4250 
Q 1547 4250 1301 3770 
Q 1056 3291 1056 2328 
Q 1056 1369 1301 889 
Q 1547 409 2034 409 
Q 2525 409 2770 889 
Q 3016 1369 3016 2328 
Q 3016 3291 2770 3770 
Q 2525 4250 2034 4250 
z
M 2034 4750 
Q 2819 4750 3233 4129 
Q 3647 3509 3647 2328 
Q 3647 1150 3233 529 
Q 2819 -91 2034 -91 
Q 1250 -91 836 529 
Q 422 1150 422 2328 
Q 422 3509 836 4129 
Q 1250 4750 2034 4750 
z
" transform="scale(0.015625)"/>
       </defs>
       <use xlink:href="#DejaVuSans-35"/>
       <use xlink:href="#DejaVuSans-30" transform="translate(63.623047 0)"/>
      </g>
     </g>
    </g>
    <g id="xtick_2">
     <g id="text_2">
      <!-- 100 -->
      <g style="fill: #262626" transform="translate(126.034418 185.365789) scale(0.1 -0.1)">
       <defs>
        <path id="DejaVuSans-31" d="M 794 531 
L 1825 531 
L 1825 4091 
L 703 3866 
L 703 4441 
L 1819 4666 
L 2450 4666 
L 2450 531 
L 3481 531 
L 3481 0 
L 794 0 
L 794 531 
z
" transform="scale(0.015625)"/>
       </defs>
       <use xlink:href="#DejaVuSans-31"/>
       <use xlink:href="#DejaVuSans-30" transform="translate(63.623047 0)"/>
       <use xlink:href="#DejaVuSans-30" transform="translate(127.246094 0)"/>
      </g>
     </g>
    </g>
    <g id="xtick_3">
     <g id="text_3">
      <!-- 150 -->
      <g style="fill: #262626" transform="translate(176.067493 185.365789) scale(0.1 -0.1)">
       <use xlink:href="#DejaVuSans-31"/>
       <use xlink:href="#DejaVuSans-35" transform="translate(63.623047 0)"/>
       <use xlink:href="#DejaVuSans-30" transform="translate(127.246094 0)"/>
      </g>
     </g>
    </g>
    <g id="xtick_4">
     <g id="text_4">
      <!-- 200 -->
      <g style="fill: #262626" transform="translate(226.100568 185.365789) scale(0.1 -0.1)">
       <defs>
        <path id="DejaVuSans-32" d="M 1228 531 
L 3431 531 
L 3431 0 
L 469 0 
L 469 531 
Q 828 903 1448 1529 
Q 2069 2156 2228 2338 
Q 2531 2678 2651 2914 
Q 2772 3150 2772 3378 
Q 2772 3750 2511 3984 
Q 2250 4219 1831 4219 
Q 1534 4219 1204 4116 
Q 875 4013 500 3803 
L 500 4441 
Q 881 4594 1212 4672 
Q 1544 4750 1819 4750 
Q 2544 4750 2975 4387 
Q 3406 4025 3406 3419 
Q 3406 3131 3298 2873 
Q 3191 2616 2906 2266 
Q 2828 2175 2409 1742 
Q 1991 1309 1228 531 
z
" transform="scale(0.015625)"/>
       </defs>
       <use xlink:href="#DejaVuSans-32"/>
       <use xlink:href="#DejaVuSans-30" transform="translate(63.623047 0)"/>
       <use xlink:href="#DejaVuSans-30" transform="translate(127.246094 0)"/>
      </g>
     </g>
    </g>
    <g id="xtick_5">
     <g id="text_5">
      <!-- 250 -->
      <g style="fill: #262626" transform="translate(276.133642 185.365789) scale(0.1 -0.1)">
       <use xlink:href="#DejaVuSans-32"/>
       <use xlink:href="#DejaVuSans-35" transform="translate(63.623047 0)"/>
       <use xlink:href="#DejaVuSans-30" transform="translate(127.246094 0)"/>
      </g>
     </g>
    </g>
    <g id="text_6">
     <!-- draw -->
     <g style="fill: #262626" transform="translate(171.227107 199.043914) scale(0.1 -0.1)">
      <defs>
       <path id="DejaVuSans-64" d="M 2906 2969 
L 2906 4863 
L 3481 4863 
L 3481 0 
L 2906 0 
L 2906 525 
Q 2725 213 2448 61 
Q 2172 -91 1784 -91 
Q 1150 -91 751 415 
Q 353 922 353 1747 
Q 353 2572 751 3078 
Q 1150 3584 1784 3584 
Q 2172 3584 2448 3432 
Q 2725 3281 2906 2969 
z
M 947 1747 
Q 947 1113 1208 752 
Q 1469 391 1925 391 
Q 2381 391 2643 752 
Q 2906 1113 2906 1747 
Q 2906 2381 2643 2742 
Q 2381 3103 1925 3103 
Q 1469 3103 1208 2742 
Q 947 2381 947 1747 
z
" transform="scale(0.015625)"/>
       <path id="DejaVuSans-72" d="M 2631 2963 
Q 2534 3019 2420 3045 
Q 2306 3072 2169 3072 
Q 1681 3072 1420 2755 
Q 1159 2438 1159 1844 
L 1159 0 
L 581 0 
L 581 3500 
L 1159 3500 
L 1159 2956 
Q 1341 3275 1631 3429 
Q 1922 3584 2338 3584 
Q 2397 3584 2469 3576 
Q 2541 3569 2628 3553 
L 2631 2963 
z
" transform="scale(0.015625)"/>
       <path id="DejaVuSans-61" d="M 2194 1759 
Q 1497 1759 1228 1600 
Q 959 1441 959 1056 
Q 959 750 1161 570 
Q 1363 391 1709 391 
Q 2188 391 2477 730 
Q 2766 1069 2766 1631 
L 2766 1759 
L 2194 1759 
z
M 3341 1997 
L 3341 0 
L 2766 0 
L 2766 531 
Q 2569 213 2275 61 
Q 1981 -91 1556 -91 
Q 1019 -91 701 211 
Q 384 513 384 1019 
Q 384 1609 779 1909 
Q 1175 2209 1959 2209 
L 2766 2209 
L 2766 2266 
Q 2766 2663 2505 2880 
Q 2244 3097 1772 3097 
Q 1472 3097 1187 3025 
Q 903 2953 641 2809 
L 641 3341 
Q 956 3463 1253 3523 
Q 1550 3584 1831 3584 
Q 2591 3584 2966 3190 
Q 3341 2797 3341 1997 
z
" transform="scale(0.015625)"/>
       <path id="DejaVuSans-77" d="M 269 3500 
L 844 3500 
L 1563 769 
L 2278 3500 
L 2956 3500 
L 3675 769 
L 4391 3500 
L 4966 3500 
L 4050 0 
L 3372 0 
L 2619 2869 
L 1863 0 
L 1184 0 
L 269 3500 
z
" transform="scale(0.015625)"/>
      </defs>
      <use xlink:href="#DejaVuSans-64"/>
      <use xlink:href="#DejaVuSans-72" transform="translate(63.476562 0)"/>
      <use xlink:href="#DejaVuSans-61" transform="translate(104.589844 0)"/>
      <use xlink:href="#DejaVuSans-77" transform="translate(165.869141 0)"/>
     </g>
    </g>
   </g>
   <g id="matplotlib.axis_2">
    <g id="ytick_1">
     <g id="text_7">
      <!-- 0.15 -->
      <g style="fill: #262626" transform="translate(21.15625 146.405231) scale(0.1 -0.1)">
       <defs>
        <path id="DejaVuSans-2e" d="M 684 794 
L 1344 794 
L 1344 0 
L 684 0 
L 684 794 
z
" transform="scale(0.015625)"/>
       </defs>
       <use xlink:href="#DejaVuSans-30"/>
       <use xlink:href="#DejaVuSans-2e" transform="translate(63.623047 0)"/>
       <use xlink:href="#DejaVuSans-31" transform="translate(95.410156 0)"/>
       <use xlink:href="#DejaVuSans-35" transform="translate(159.033203 0)"/>
      </g>
     </g>
    </g>
    <g id="ytick_2">
     <g id="text_8">
      <!-- 0.20 -->
      <g style="fill: #262626" transform="translate(21.15625 109.502367) scale(0.1 -0.1)">
       <use xlink:href="#DejaVuSans-30"/>
       <use xlink:href="#DejaVuSans-2e" transform="translate(63.623047 0)"/>
       <use xlink:href="#DejaVuSans-32" transform="translate(95.410156 0)"/>
       <use xlink:href="#DejaVuSans-30" transform="translate(159.033203 0)"/>
      </g>
     </g>
    </g>
    <g id="ytick_3">
     <g id="text_9">
      <!-- 0.25 -->
      <g style="fill: #262626" transform="translate(21.15625 72.599503) scale(0.1 -0.1)">
       <use xlink:href="#DejaVuSans-30"/>
       <use xlink:href="#DejaVuSans-2e" transform="translate(63.623047 0)"/>
       <use xlink:href="#DejaVuSans-32" transform="translate(95.410156 0)"/>
       <use xlink:href="#DejaVuSans-35" transform="translate(159.033203 0)"/>
      </g>
     </g>
    </g>
    <g id="ytick_4">
     <g id="text_10">
      <!-- 0.30 -->
      <g style="fill: #262626" transform="translate(21.15625 35.69664) scale(0.1 -0.1)">
       <defs>
        <path id="DejaVuSans-33" d="M 2597 2516 
Q 3050 2419 3304 2112 
Q 3559 1806 3559 1356 
Q 3559 666 3084 287 
Q 2609 -91 1734 -91 
Q 1441 -91 1130 -33 
Q 819 25 488 141 
L 488 750 
Q 750 597 1062 519 
Q 1375 441 1716 441 
Q 2309 441 2620 675 
Q 2931 909 2931 1356 
Q 2931 1769 2642 2001 
Q 2353 2234 1838 2234 
L 1294 2234 
L 1294 2753 
L 1863 2753 
Q 2328 2753 2575 2939 
Q 2822 3125 2822 3475 
Q 2822 3834 2567 4026 
Q 2313 4219 1838 4219 
Q 1578 4219 1281 4162 
Q 984 4106 628 3988 
L 628 4550 
Q 988 4650 1302 4700 
Q 1616 4750 1894 4750 
Q 2613 4750 3031 4423 
Q 3450 4097 3450 3541 
Q 3450 3153 3228 2886 
Q 3006 2619 2597 2516 
z
" transform="scale(0.015625)"/>
       </defs>
       <use xlink:href="#DejaVuSans-30"/>
       <use xlink:href="#DejaVuSans-2e" transform="translate(63.623047 0)"/>
       <use xlink:href="#DejaVuSans-33" transform="translate(95.410156 0)"/>
       <use xlink:href="#DejaVuSans-30" transform="translate(159.033203 0)"/>
      </g>
     </g>
    </g>
    <g id="text_11">
     <!-- train_dt -->
     <g style="fill: #262626" transform="translate(14.798437 108.255551) rotate(-90) scale(0.1 -0.1)">
      <defs>
       <path id="DejaVuSans-74" d="M 1172 4494 
L 1172 3500 
L 2356 3500 
L 2356 3053 
L 1172 3053 
L 1172 1153 
Q 1172 725 1289 603 
Q 1406 481 1766 481 
L 2356 481 
L 2356 0 
L 1766 0 
Q 1100 0 847 248 
Q 594 497 594 1153 
L 594 3053 
L 172 3053 
L 172 3500 
L 594 3500 
L 594 4494 
L 1172 4494 
z
" transform="scale(0.015625)"/>
       <path id="DejaVuSans-69" d="M 603 3500 
L 1178 3500 
L 1178 0 
L 603 0 
L 603 3500 
z
M 603 4863 
L 1178 4863 
L 1178 4134 
L 603 4134 
L 603 4863 
z
" transform="scale(0.015625)"/>
       <path id="DejaVuSans-6e" d="M 3513 2113 
L 3513 0 
L 2938 0 
L 2938 2094 
Q 2938 2591 2744 2837 
Q 2550 3084 2163 3084 
Q 1697 3084 1428 2787 
Q 1159 2491 1159 1978 
L 1159 0 
L 581 0 
L 581 3500 
L 1159 3500 
L 1159 2956 
Q 1366 3272 1645 3428 
Q 1925 3584 2291 3584 
Q 2894 3584 3203 3211 
Q 3513 2838 3513 2113 
z
" transform="scale(0.015625)"/>
       <path id="DejaVuSans-5f" d="M 3263 -1063 
L 3263 -1509 
L -63 -1509 
L -63 -1063 
L 3263 -1063 
z
" transform="scale(0.015625)"/>
      </defs>
      <use xlink:href="#DejaVuSans-74"/>
      <use xlink:href="#DejaVuSans-72" transform="translate(39.208984 0)"/>
      <use xlink:href="#DejaVuSans-61" transform="translate(80.322266 0)"/>
      <use xlink:href="#DejaVuSans-69" transform="translate(141.601562 0)"/>
      <use xlink:href="#DejaVuSans-6e" transform="translate(169.384766 0)"/>
      <use xlink:href="#DejaVuSans-5f" transform="translate(232.763672 0)"/>
      <use xlink:href="#DejaVuSans-64" transform="translate(282.763672 0)"/>
      <use xlink:href="#DejaVuSans-74" transform="translate(346.240234 0)"/>
     </g>
    </g>
   </g>
   <g id="line2d_1">
    <path d="M 62.529879 46.983776 
L 63.530541 56.362564 
L 64.531202 160.447519 
L 65.531864 34.530946 
L 66.532525 37.715846 
L 67.533187 42.598131 
L 68.533848 63.854175 
L 69.53451 27.511477 
L 70.535171 163.332472 
L 71.535833 60.027445 
L 72.536494 22.956006 
L 73.537156 46.609064 
L 74.537817 61.985158 
L 75.538478 61.923614 
L 76.53914 161.436007 
L 77.539801 68.084101 
L 78.540463 43.188828 
L 79.541124 37.136205 
L 80.541786 26.167171 
L 81.542447 60.553551 
L 82.543109 161.606072 
L 83.54377 61.439056 
L 84.544432 45.524471 
L 85.545093 26.184665 
L 86.545755 53.191247 
L 87.546416 43.385283 
L 88.547078 57.063578 
L 89.547739 44.125385 
L 90.548401 37.409281 
L 91.549062 56.739096 
L 92.549724 42.243509 
L 93.550385 36.630917 
L 94.551047 160.340708 
L 95.551708 31.685078 
L 96.55237 39.511338 
L 97.553031 24.151342 
L 98.553693 43.441969 
L 99.554354 34.147612 
L 100.555016 160.362921 
L 101.555677 40.850766 
L 102.556339 23.268192 
L 103.557 40.686921 
L 104.557662 30.480132 
L 105.558323 14.63488 
L 106.558985 162.99029 
L 107.559646 47.641077 
L 108.560308 51.422948 
L 109.560969 48.967514 
L 110.561631 51.26002 
L 111.562292 33.444228 
L 112.562954 160.991474 
L 113.563615 40.978489 
L 114.564277 54.984415 
L 115.564938 43.488754 
L 116.5656 35.310654 
L 117.566261 43.71554 
L 118.566923 160.803264 
L 119.567584 61.678991 
L 120.568246 36.020066 
L 121.568907 49.515468 
L 122.569569 41.253901 
L 123.57023 40.287896 
L 124.570892 159.768552 
L 125.571553 31.586074 
L 126.572215 33.217153 
L 127.572876 24.029823 
L 128.573538 35.495877 
L 129.574199 33.735227 
L 130.574861 162.321526 
L 131.575522 55.596456 
L 132.576184 33.748632 
L 133.576845 34.39318 
L 134.577507 37.717804 
L 135.578168 35.213233 
L 136.57883 162.283202 
L 137.579491 28.861624 
L 138.580153 35.706787 
L 139.580814 18.926949 
L 140.581476 25.460579 
L 141.582137 25.173262 
L 142.582799 159.226764 
L 143.58346 17.72584 
L 144.584122 36.626828 
L 145.584783 51.122876 
L 146.585445 56.019061 
L 147.586106 43.974284 
L 148.586768 161.491535 
L 149.587429 44.826223 
L 150.588091 29.011501 
L 151.588752 31.610594 
L 152.589414 38.462257 
L 153.590075 24.910902 
L 154.590737 160.815021 
L 155.591398 25.806592 
L 156.592059 36.737529 
L 157.592721 49.511748 
L 158.593382 36.580058 
L 159.594044 40.462604 
L 160.594705 159.882921 
L 161.595367 26.605741 
L 162.596028 41.278162 
L 163.59669 33.668329 
L 164.597351 59.636474 
L 165.598013 42.955211 
L 166.598674 162.570879 
L 167.599336 32.097038 
L 168.599997 24.648636 
L 169.600659 40.104281 
L 170.60132 49.478503 
L 171.601982 25.399822 
L 172.602643 163.218672 
L 173.603305 43.44408 
L 174.603966 35.511609 
L 175.604628 29.84695 
L 176.605289 35.704988 
L 177.605951 55.584573 
L 178.606612 161.998968 
L 179.607274 45.739363 
L 180.607935 50.831603 
L 181.608597 33.965574 
L 182.609258 33.846886 
L 183.60992 60.35392 
L 184.610581 161.527617 
L 185.611243 34.004491 
L 186.611904 32.938258 
L 187.612566 24.988071 
L 188.613227 44.056582 
L 189.613889 23.366072 
L 190.61455 161.412117 
L 191.615212 43.132656 
L 192.615873 45.115583 
L 193.616535 63.298812 
L 194.617196 24.589148 
L 195.617858 31.946695 
L 196.618519 163.02902 
L 197.619181 50.266838 
L 199.620504 15.465154 
L 200.621165 54.77747 
L 201.621827 36.533083 
L 202.622488 162.495726 
L 203.62315 24.067774 
L 204.623811 33.679595 
L 205.624473 50.591957 
L 206.625134 31.415036 
L 207.625796 42.184105 
L 208.626457 159.500598 
L 209.627119 34.074095 
L 210.62778 38.633109 
L 211.628442 34.840173 
L 212.629103 47.347252 
L 213.629765 40.420949 
L 214.630426 162.271498 
L 215.631088 60.61581 
L 216.631749 39.949834 
L 217.632411 31.714465 
L 218.633072 27.889326 
L 219.633734 27.928613 
L 220.634395 160.547849 
L 221.635057 26.846556 
L 222.635718 41.909846 
L 223.63638 58.753411 
L 224.637041 51.684248 
L 225.637703 60.018413 
L 226.638364 161.055498 
L 227.639026 37.375094 
L 228.639687 84.893809 
L 229.640349 48.294693 
L 230.64101 46.49707 
L 231.641672 72.471063 
L 232.642333 160.727532 
L 233.642995 37.335053 
L 234.643656 46.483553 
L 235.644318 32.826698 
L 236.644979 26.712223 
L 237.64564 40.009004 
L 238.646302 160.841053 
L 239.646963 35.601851 
L 240.647625 20.699767 
L 241.648286 55.549383 
L 242.648948 41.777028 
L 243.649609 33.149494 
L 244.650271 161.078813 
L 245.650932 30.111435 
L 246.651594 44.944543 
L 247.652255 48.773297 
L 248.652917 45.992999 
L 249.653578 34.003678 
L 250.65424 161.765385 
L 251.654901 28.220856 
L 252.655563 37.556434 
L 253.656224 35.374324 
L 254.656886 39.341391 
L 255.657547 54.248437 
L 256.658209 161.138685 
L 257.65887 63.21144 
L 258.659532 27.969223 
L 259.660193 29.883582 
L 260.660855 51.919982 
L 261.661516 30.227497 
L 262.662178 161.222805 
L 263.662839 36.651822 
L 264.663501 35.138649 
L 265.664162 28.871825 
L 266.664824 26.849529 
L 267.665485 43.007682 
L 268.666147 161.287239 
L 269.666808 63.915404 
L 270.66747 133.961109 
L 271.668131 44.607142 
L 272.668793 71.914801 
L 273.669454 40.528183 
L 274.670116 163.190145 
L 275.670777 33.264834 
L 276.671439 47.378072 
L 277.6721 49.072609 
L 278.672762 34.202891 
L 279.673423 47.840143 
L 280.674085 161.129546 
L 281.674746 43.55689 
L 282.675408 38.139523 
L 283.676069 48.133612 
L 284.676731 46.603974 
L 285.677392 44.65661 
L 286.678054 162.456988 
L 287.678715 63.383941 
L 288.679377 26.60019 
L 289.680038 22.287593 
L 290.6807 43.937141 
L 291.681361 35.446708 
L 292.682023 159.856983 
L 293.682684 60.530846 
L 294.683346 21.901078 
L 295.684007 44.16806 
L 296.684669 30.887173 
L 297.68533 45.280684 
L 298.685992 162.246277 
L 299.686653 51.705004 
L 300.687315 25.235608 
L 301.687976 35.939228 
L 302.688638 31.747574 
L 303.689299 32.907019 
L 304.689961 162.671952 
L 304.689961 162.671952 
" clip-path="url(#p48e4682a95)" style="fill: none; stroke: #e8000b; stroke-width: 1.5; stroke-linecap: round"/>
   </g>
  </g>
 </g>
 <defs>
  <clipPath id="p48e4682a95">
   <rect x="50.421875" y="7.2" width="266.37609" height="163.567352"/>
  </clipPath>
 </defs>
</svg>
