<?xml version="1.0" encoding="utf-8" standalone="no"?>
<!DOCTYPE svg PUBLIC "-//W3C//DTD SVG 1.1//EN"
  "http://www.w3.org/Graphics/SVG/1.1/DTD/svg11.dtd">
<svg xmlns:xlink="http://www.w3.org/1999/xlink" width="314.45734pt" height="208.323602pt" viewBox="0 0 314.45734 208.323602" xmlns="http://www.w3.org/2000/svg" version="1.1">
 <metadata>
  <rdf:RDF xmlns:dc="http://purl.org/dc/elements/1.1/" xmlns:cc="http://creativecommons.org/ns#" xmlns:rdf="http://www.w3.org/1999/02/22-rdf-syntax-ns#">
   <cc:Work>
    <dc:type rdf:resource="http://purl.org/dc/dcmitype/StillImage"/>
    <dc:date>2025-11-25T18:31:42.450990</dc:date>
    <dc:format>image/svg+xml</dc:format>
    <dc:creator>
     <cc:Agent>
      <dc:title>Matplotlib v3.10.6, https://matplotlib.org/</dc:title>
     </cc:Agent>
    </dc:creator>
   </cc:Work>
  </rdf:RDF>
 </metadata>
 <defs>
  <style type="text/css">*{stroke-linejoin: round; stroke-linecap: butt}</style>
 </defs>
 <g id="figure_1">
  <g id="patch_1">
   <path d="M 0 208.323602 
L 314.45734 208.323602 
L 314.45734 0 
L 0 0 
L 0 208.323602 
z
" style="fill: none"/>
  </g>
  <g id="axes_1">
   <g id="patch_2">
    <path d="M 40.88125 170.767352 
L 307.25734 170.767352 
L 307.25734 7.2 
L 40.88125 7.2 
L 40.88125 170.767352 
z
" style="fill: none"/>
   </g>
   <g id="matplotlib.axis_1">
    <g id="xtick_1">
     <g id="text_1">
      <!-- 50 -->
      <g style="fill: #262626" transform="translate(69.641968 185.365789) scale(0.1 -0.1)">
       <defs>
        <path id="DejaVuSans-35" d="M 691 4666 
L 3169 4666 
L 3169 4134 
L 1269 4134 
L 1269 2991 
Q 1406 3038 1543 3061 
Q 1681 3084 1819 3084 
Q 2600 3084 3056 2656 
Q 3513 2228 3513 1497 
Q 3513 744 3044 326 
Q 2575 -91 1722 -91 
Q 1428 -91 1123 -41 
Q 819 9 494 109 
L 494 744 
Q 775 591 1075 516 
Q 1375 441 1709 441 
Q 2250 441 2565 725 
Q 2881 1009 2881 1497 
Q 2881 1984 2565 2268 
Q 2250 2553 1709 2553 
Q 1456 2553 1204 2497 
Q 953 2441 691 2322 
L 691 4666 
z
" transform="scale(0.015625)"/>
        <path id="DejaVuSans-30" d="M 2034 4250 
Q 1547 4250 1301 3770 
Q 1056 3291 1056 2328 
Q 1056 1369 1301 889 
Q 1547 409 2034 409 
Q 2525 409 2770 889 
Q 3016 1369 3016 2328 
Q 3016 3291 2770 3770 
Q 2525 4250 2034 4250 
z
M 2034 4750 
Q 2819 4750 3233 4129 
Q 3647 3509 3647 2328 
Q 3647 1150 3233 529 
Q 2819 -91 2034 -91 
Q 1250 -91 836 529 
Q 422 1150 422 2328 
Q 422 3509 836 4129 
Q 1250 4750 2034 4750 
z
" transform="scale(0.015625)"/>
       </defs>
       <use xlink:href="#DejaVuSans-35"/>
       <use xlink:href="#DejaVuSans-30" transform="translate(63.623047 0)"/>
      </g>
     </g>
    </g>
    <g id="xtick_2">
     <g id="text_2">
      <!-- 100 -->
      <g style="fill: #262626" transform="translate(116.493793 185.365789) scale(0.1 -0.1)">
       <defs>
        <path id="DejaVuSans-31" d="M 794 531 
L 1825 531 
L 1825 4091 
L 703 3866 
L 703 4441 
L 1819 4666 
L 2450 4666 
L 2450 531 
L 3481 531 
L 3481 0 
L 794 0 
L 794 531 
z
" transform="scale(0.015625)"/>
       </defs>
       <use xlink:href="#DejaVuSans-31"/>
       <use xlink:href="#DejaVuSans-30" transform="translate(63.623047 0)"/>
       <use xlink:href="#DejaVuSans-30" transform="translate(127.246094 0)"/>
      </g>
     </g>
    </g>
    <g id="xtick_3">
     <g id="text_3">
      <!-- 150 -->
      <g style="fill: #262626" transform="translate(166.526868 185.365789) scale(0.1 -0.1)">
       <use xlink:href="#DejaVuSans-31"/>
       <use xlink:href="#DejaVuSans-35" transform="translate(63.623047 0)"/>
       <use xlink:href="#DejaVuSans-30" transform="translate(127.246094 0)"/>
      </g>
     </g>
    </g>
    <g id="xtick_4">
     <g id="text_4">
      <!-- 200 -->
      <g style="fill: #262626" transform="translate(216.559943 185.365789) scale(0.1 -0.1)">
       <defs>
        <path id="DejaVuSans-32" d="M 1228 531 
L 3431 531 
L 3431 0 
L 469 0 
L 469 531 
Q 828 903 1448 1529 
Q 2069 2156 2228 2338 
Q 2531 2678 2651 2914 
Q 2772 3150 2772 3378 
Q 2772 3750 2511 3984 
Q 2250 4219 1831 4219 
Q 1534 4219 1204 4116 
Q 875 4013 500 3803 
L 500 4441 
Q 881 4594 1212 4672 
Q 1544 4750 1819 4750 
Q 2544 4750 2975 4387 
Q 3406 4025 3406 3419 
Q 3406 3131 3298 2873 
Q 3191 2616 2906 2266 
Q 2828 2175 2409 1742 
Q 1991 1309 1228 531 
z
" transform="scale(0.015625)"/>
       </defs>
       <use xlink:href="#DejaVuSans-32"/>
       <use xlink:href="#DejaVuSans-30" transform="translate(63.623047 0)"/>
       <use xlink:href="#DejaVuSans-30" transform="translate(127.246094 0)"/>
      </g>
     </g>
    </g>
    <g id="xtick_5">
     <g id="text_5">
      <!-- 250 -->
      <g style="fill: #262626" transform="translate(266.593017 185.365789) scale(0.1 -0.1)">
       <use xlink:href="#DejaVuSans-32"/>
       <use xlink:href="#DejaVuSans-35" transform="translate(63.623047 0)"/>
       <use xlink:href="#DejaVuSans-30" transform="translate(127.246094 0)"/>
      </g>
     </g>
    </g>
    <g id="text_6">
     <!-- draw -->
     <g style="fill: #262626" transform="translate(161.686482 199.043914) scale(0.1 -0.1)">
      <defs>
       <path id="DejaVuSans-64" d="M 2906 2969 
L 2906 4863 
L 3481 4863 
L 3481 0 
L 2906 0 
L 2906 525 
Q 2725 213 2448 61 
Q 2172 -91 1784 -91 
Q 1150 -91 751 415 
Q 353 922 353 1747 
Q 353 2572 751 3078 
Q 1150 3584 1784 3584 
Q 2172 3584 2448 3432 
Q 2725 3281 2906 2969 
z
M 947 1747 
Q 947 1113 1208 752 
Q 1469 391 1925 391 
Q 2381 391 2643 752 
Q 2906 1113 2906 1747 
Q 2906 2381 2643 2742 
Q 2381 3103 1925 3103 
Q 1469 3103 1208 2742 
Q 947 2381 947 1747 
z
" transform="scale(0.015625)"/>
       <path id="DejaVuSans-72" d="M 2631 2963 
Q 2534 3019 2420 3045 
Q 2306 3072 2169 3072 
Q 1681 3072 1420 2755 
Q 1159 2438 1159 1844 
L 1159 0 
L 581 0 
L 581 3500 
L 1159 3500 
L 1159 2956 
Q 1341 3275 1631 3429 
Q 1922 3584 2338 3584 
Q 2397 3584 2469 3576 
Q 2541 3569 2628 3553 
L 2631 2963 
z
" transform="scale(0.015625)"/>
       <path id="DejaVuSans-61" d="M 2194 1759 
Q 1497 1759 1228 1600 
Q 959 1441 959 1056 
Q 959 750 1161 570 
Q 1363 391 1709 391 
Q 2188 391 2477 730 
Q 2766 1069 2766 1631 
L 2766 1759 
L 2194 1759 
z
M 3341 1997 
L 3341 0 
L 2766 0 
L 2766 531 
Q 2569 213 2275 61 
Q 1981 -91 1556 -91 
Q 1019 -91 701 211 
Q 384 513 384 1019 
Q 384 1609 779 1909 
Q 1175 2209 1959 2209 
L 2766 2209 
L 2766 2266 
Q 2766 2663 2505 2880 
Q 2244 3097 1772 3097 
Q 1472 3097 1187 3025 
Q 903 2953 641 2809 
L 641 3341 
Q 956 3463 1253 3523 
Q 1550 3584 1831 3584 
Q 2591 3584 2966 3190 
Q 3341 2797 3341 1997 
z
" transform="scale(0.015625)"/>
       <path id="DejaVuSans-77" d="M 269 3500 
L 844 3500 
L 1563 769 
L 2278 3500 
L 2956 3500 
L 3675 769 
L 4391 3500 
L 4966 3500 
L 4050 0 
L 3372 0 
L 2619 2869 
L 1863 0 
L 1184 0 
L 269 3500 
z
" transform="scale(0.015625)"/>
      </defs>
      <use xlink:href="#DejaVuSans-64"/>
      <use xlink:href="#DejaVuSans-72" transform="translate(63.476562 0)"/>
      <use xlink:href="#DejaVuSans-61" transform="translate(104.589844 0)"/>
      <use xlink:href="#DejaVuSans-77" transform="translate(165.869141 0)"/>
     </g>
    </g>
   </g>
   <g id="matplotlib.axis_2">
    <g id="ytick_1">
     <g id="text_7">
      <!-- 12 -->
      <g style="fill: #262626" transform="translate(21.15625 145.922625) scale(0.1 -0.1)">
       <use xlink:href="#DejaVuSans-31"/>
       <use xlink:href="#DejaVuSans-32" transform="translate(63.623047 0)"/>
      </g>
     </g>
    </g>
    <g id="ytick_2">
     <g id="text_8">
      <!-- 14 -->
      <g style="fill: #262626" transform="translate(21.15625 110.532015) scale(0.1 -0.1)">
       <defs>
        <path id="DejaVuSans-34" d="M 2419 4116 
L 825 1625 
L 2419 1625 
L 2419 4116 
z
M 2253 4666 
L 3047 4666 
L 3047 1625 
L 3713 1625 
L 3713 1100 
L 3047 1100 
L 3047 0 
L 2419 0 
L 2419 1100 
L 313 1100 
L 313 1709 
L 2253 4666 
z
" transform="scale(0.015625)"/>
       </defs>
       <use xlink:href="#DejaVuSans-31"/>
       <use xlink:href="#DejaVuSans-34" transform="translate(63.623047 0)"/>
      </g>
     </g>
    </g>
    <g id="ytick_3">
     <g id="text_9">
      <!-- 16 -->
      <g style="fill: #262626" transform="translate(21.15625 75.141406) scale(0.1 -0.1)">
       <defs>
        <path id="DejaVuSans-36" d="M 2113 2584 
Q 1688 2584 1439 2293 
Q 1191 2003 1191 1497 
Q 1191 994 1439 701 
Q 1688 409 2113 409 
Q 2538 409 2786 701 
Q 3034 994 3034 1497 
Q 3034 2003 2786 2293 
Q 2538 2584 2113 2584 
z
M 3366 4563 
L 3366 3988 
Q 3128 4100 2886 4159 
Q 2644 4219 2406 4219 
Q 1781 4219 1451 3797 
Q 1122 3375 1075 2522 
Q 1259 2794 1537 2939 
Q 1816 3084 2150 3084 
Q 2853 3084 3261 2657 
Q 3669 2231 3669 1497 
Q 3669 778 3244 343 
Q 2819 -91 2113 -91 
Q 1303 -91 875 529 
Q 447 1150 447 2328 
Q 447 3434 972 4092 
Q 1497 4750 2381 4750 
Q 2619 4750 2861 4703 
Q 3103 4656 3366 4563 
z
" transform="scale(0.015625)"/>
       </defs>
       <use xlink:href="#DejaVuSans-31"/>
       <use xlink:href="#DejaVuSans-36" transform="translate(63.623047 0)"/>
      </g>
     </g>
    </g>
    <g id="ytick_4">
     <g id="text_10">
      <!-- 18 -->
      <g style="fill: #262626" transform="translate(21.15625 39.750797) scale(0.1 -0.1)">
       <defs>
        <path id="DejaVuSans-38" d="M 2034 2216 
Q 1584 2216 1326 1975 
Q 1069 1734 1069 1313 
Q 1069 891 1326 650 
Q 1584 409 2034 409 
Q 2484 409 2743 651 
Q 3003 894 3003 1313 
Q 3003 1734 2745 1975 
Q 2488 2216 2034 2216 
z
M 1403 2484 
Q 997 2584 770 2862 
Q 544 3141 544 3541 
Q 544 4100 942 4425 
Q 1341 4750 2034 4750 
Q 2731 4750 3128 4425 
Q 3525 4100 3525 3541 
Q 3525 3141 3298 2862 
Q 3072 2584 2669 2484 
Q 3125 2378 3379 2068 
Q 3634 1759 3634 1313 
Q 3634 634 3220 271 
Q 2806 -91 2034 -91 
Q 1263 -91 848 271 
Q 434 634 434 1313 
Q 434 1759 690 2068 
Q 947 2378 1403 2484 
z
M 1172 3481 
Q 1172 3119 1398 2916 
Q 1625 2713 2034 2713 
Q 2441 2713 2670 2916 
Q 2900 3119 2900 3481 
Q 2900 3844 2670 4047 
Q 2441 4250 2034 4250 
Q 1625 4250 1398 4047 
Q 1172 3844 1172 3481 
z
" transform="scale(0.015625)"/>
       </defs>
       <use xlink:href="#DejaVuSans-31"/>
       <use xlink:href="#DejaVuSans-38" transform="translate(63.623047 0)"/>
      </g>
     </g>
    </g>
    <g id="text_11">
     <!-- train_loss -->
     <g style="fill: #262626" transform="translate(14.798438 112.778988) rotate(-90) scale(0.1 -0.1)">
      <defs>
       <path id="DejaVuSans-74" d="M 1172 4494 
L 1172 3500 
L 2356 3500 
L 2356 3053 
L 1172 3053 
L 1172 1153 
Q 1172 725 1289 603 
Q 1406 481 1766 481 
L 2356 481 
L 2356 0 
L 1766 0 
Q 1100 0 847 248 
Q 594 497 594 1153 
L 594 3053 
L 172 3053 
L 172 3500 
L 594 3500 
L 594 4494 
L 1172 4494 
z
" transform="scale(0.015625)"/>
       <path id="DejaVuSans-69" d="M 603 3500 
L 1178 3500 
L 1178 0 
L 603 0 
L 603 3500 
z
M 603 4863 
L 1178 4863 
L 1178 4134 
L 603 4134 
L 603 4863 
z
" transform="scale(0.015625)"/>
       <path id="DejaVuSans-6e" d="M 3513 2113 
L 3513 0 
L 2938 0 
L 2938 2094 
Q 2938 2591 2744 2837 
Q 2550 3084 2163 3084 
Q 1697 3084 1428 2787 
Q 1159 2491 1159 1978 
L 1159 0 
L 581 0 
L 581 3500 
L 1159 3500 
L 1159 2956 
Q 1366 3272 1645 3428 
Q 1925 3584 2291 3584 
Q 2894 3584 3203 3211 
Q 3513 2838 3513 2113 
z
" transform="scale(0.015625)"/>
       <path id="DejaVuSans-5f" d="M 3263 -1063 
L 3263 -1509 
L -63 -1509 
L -63 -1063 
L 3263 -1063 
z
" transform="scale(0.015625)"/>
       <path id="DejaVuSans-6c" d="M 603 4863 
L 1178 4863 
L 1178 0 
L 603 0 
L 603 4863 
z
" transform="scale(0.015625)"/>
       <path id="DejaVuSans-6f" d="M 1959 3097 
Q 1497 3097 1228 2736 
Q 959 2375 959 1747 
Q 959 1119 1226 758 
Q 1494 397 1959 397 
Q 2419 397 2687 759 
Q 2956 1122 2956 1747 
Q 2956 2369 2687 2733 
Q 2419 3097 1959 3097 
z
M 1959 3584 
Q 2709 3584 3137 3096 
Q 3566 2609 3566 1747 
Q 3566 888 3137 398 
Q 2709 -91 1959 -91 
Q 1206 -91 779 398 
Q 353 888 353 1747 
Q 353 2609 779 3096 
Q 1206 3584 1959 3584 
z
" transform="scale(0.015625)"/>
       <path id="DejaVuSans-73" d="M 2834 3397 
L 2834 2853 
Q 2591 2978 2328 3040 
Q 2066 3103 1784 3103 
Q 1356 3103 1142 2972 
Q 928 2841 928 2578 
Q 928 2378 1081 2264 
Q 1234 2150 1697 2047 
L 1894 2003 
Q 2506 1872 2764 1633 
Q 3022 1394 3022 966 
Q 3022 478 2636 193 
Q 2250 -91 1575 -91 
Q 1294 -91 989 -36 
Q 684 19 347 128 
L 347 722 
Q 666 556 975 473 
Q 1284 391 1588 391 
Q 1994 391 2212 530 
Q 2431 669 2431 922 
Q 2431 1156 2273 1281 
Q 2116 1406 1581 1522 
L 1381 1569 
Q 847 1681 609 1914 
Q 372 2147 372 2553 
Q 372 3047 722 3315 
Q 1072 3584 1716 3584 
Q 2034 3584 2315 3537 
Q 2597 3491 2834 3397 
z
" transform="scale(0.015625)"/>
      </defs>
      <use xlink:href="#DejaVuSans-74"/>
      <use xlink:href="#DejaVuSans-72" transform="translate(39.208984 0)"/>
      <use xlink:href="#DejaVuSans-61" transform="translate(80.322266 0)"/>
      <use xlink:href="#DejaVuSans-69" transform="translate(141.601562 0)"/>
      <use xlink:href="#DejaVuSans-6e" transform="translate(169.384766 0)"/>
      <use xlink:href="#DejaVuSans-5f" transform="translate(232.763672 0)"/>
      <use xlink:href="#DejaVuSans-6c" transform="translate(282.763672 0)"/>
      <use xlink:href="#DejaVuSans-6f" transform="translate(310.546875 0)"/>
      <use xlink:href="#DejaVuSans-73" transform="translate(371.728516 0)"/>
      <use xlink:href="#DejaVuSans-73" transform="translate(423.828125 0)"/>
     </g>
    </g>
   </g>
   <g id="line2d_1">
    <path d="M 52.989254 108.889358 
L 53.989916 114.900297 
L 54.990577 106.239828 
L 55.991239 107.928413 
L 56.9919 107.133811 
L 57.992562 99.534038 
L 58.993223 97.277911 
L 59.993885 102.402529 
L 60.994546 86.133833 
L 61.995208 101.99652 
L 62.995869 101.524274 
L 63.996531 100.819736 
L 64.997192 93.779372 
L 65.997853 94.586648 
L 66.998515 78.186171 
L 67.999176 96.132297 
L 68.999838 91.529539 
L 70.000499 97.199862 
L 71.001161 84.064451 
L 72.001822 80.286688 
L 73.002484 67.23552 
L 74.003145 84.217782 
L 75.003807 77.731864 
L 76.004468 89.149157 
L 77.00513 76.57658 
L 79.006453 61.161298 
L 80.007114 75.18595 
L 81.007776 69.366532 
L 82.008437 82.483295 
L 83.009099 74.773528 
L 84.00976 63.628032 
L 85.010422 61.501206 
L 86.011083 69.057777 
L 87.011745 64.358913 
L 88.012406 75.367058 
L 89.013068 74.296895 
L 90.013729 60.638359 
L 91.014391 68.397132 
L 92.015052 67.099942 
L 93.015714 64.1667 
L 94.016375 72.180481 
L 95.017037 76.889537 
L 96.017698 63.593944 
L 97.01836 82.442642 
L 98.019021 72.222956 
L 99.019683 70.98483 
L 100.020344 75.660761 
L 101.021006 82.598336 
L 102.021667 72.01775 
L 103.022329 98.708503 
L 104.02299 81.636834 
L 105.023652 81.152151 
L 106.024313 80.809848 
L 107.024975 87.178531 
L 108.025636 80.463578 
L 109.026298 106.925651 
L 110.026959 89.101282 
L 111.027621 90.788719 
L 112.028282 89.642498 
L 113.028944 96.633434 
L 114.029605 92.062824 
L 115.030267 117.80971 
L 116.030928 101.883285 
L 117.03159 100.77186 
L 118.032251 98.06362 
L 119.032913 99.194738 
L 120.033574 92.308988 
L 121.034236 112.985765 
L 122.034897 103.170316 
L 123.035559 103.378138 
L 124.03622 105.513234 
L 125.036882 108.612194 
L 126.037543 106.369095 
L 127.038205 128.500241 
L 128.038866 120.190564 
L 129.039528 121.7984 
L 130.040189 119.586841 
L 131.040851 117.687329 
L 132.041512 113.80487 
L 133.042174 122.69677 
L 134.042835 114.879995 
L 135.043497 116.098326 
L 136.044158 111.583321 
L 137.04482 111.299846 
L 138.045481 113.3293 
L 139.046143 117.017521 
L 140.046804 115.921116 
L 141.047466 121.759418 
L 142.048127 121.168773 
L 143.048789 124.414871 
L 144.04945 128.092443 
L 145.050112 131.153922 
L 146.050773 129.437898 
L 147.051434 134.187186 
L 148.052096 132.819709 
L 149.052757 134.245406 
L 150.053419 133.962606 
L 151.05408 134.294632 
L 152.054742 129.911291 
L 153.055403 131.305347 
L 154.056065 130.679483 
L 155.056726 131.599201 
L 156.057388 130.582634 
L 157.058049 131.739875 
L 158.058711 127.334072 
L 159.059372 127.711005 
L 160.060034 130.280697 
L 161.060695 132.16676 
L 162.061357 132.43287 
L 163.062018 134.946417 
L 164.06268 132.399018 
L 165.063341 132.946258 
L 166.064003 137.52912 
L 167.064664 139.810037 
L 168.065326 141.330711 
L 169.065987 143.787032 
L 170.066649 143.192422 
L 171.06731 143.845928 
L 172.067972 148.57208 
L 173.068633 149.926445 
L 174.069295 152.349387 
L 176.070618 153.747442 
L 177.071279 154.217511 
L 178.071941 157.885734 
L 179.072602 157.701925 
L 180.073264 160.418721 
L 181.073925 158.756766 
L 182.074587 160.110101 
L 183.075248 160.351303 
L 184.07591 162.183095 
L 185.076571 160.473128 
L 186.077233 163.332472 
L 187.077894 159.519794 
L 188.078556 161.060802 
L 189.079217 161.29463 
L 190.079879 161.133064 
L 191.08054 158.426224 
L 192.081202 161.284876 
L 193.081863 156.434554 
L 194.082525 157.717906 
L 195.083186 158.230198 
L 196.083848 156.180341 
L 197.084509 152.916085 
L 198.085171 155.104558 
L 199.085832 149.879547 
L 200.086494 149.728292 
L 201.087155 149.703181 
L 203.088478 140.255012 
L 204.08914 139.820551 
L 205.089801 133.976309 
L 206.090463 130.305605 
L 207.091124 128.425246 
L 208.091786 120.092298 
L 209.092447 114.187591 
L 210.093109 110.782644 
L 211.09377 106.198516 
L 212.094432 99.25333 
L 213.095093 96.562033 
L 214.095755 86.622718 
L 216.097078 76.319734 
L 217.097739 75.162881 
L 218.098401 66.333623 
L 219.099062 63.763678 
L 220.099724 54.164625 
L 221.100385 50.969913 
L 222.101047 45.82739 
L 223.101708 50.103657 
L 224.10237 40.149541 
L 225.103031 38.955866 
L 226.103693 31.618947 
L 227.104354 31.975021 
L 228.105015 28.089559 
L 229.105677 38.425771 
L 230.106338 29.176615 
L 231.107 30.632267 
L 232.107661 27.195627 
L 233.108323 31.950957 
L 234.108984 30.003517 
L 235.109646 45.762014 
L 236.110307 36.965124 
L 237.110969 41.977063 
L 238.11163 41.430498 
L 239.112292 48.865868 
L 240.112953 46.935541 
L 241.113615 65.627921 
L 242.114276 55.221271 
L 243.114938 61.976691 
L 244.115599 61.901426 
L 245.116261 69.202265 
L 246.116922 67.34295 
L 247.117584 86.917854 
L 248.118245 75.373066 
L 249.118907 83.038181 
L 250.119568 83.306131 
L 251.12023 90.697929 
L 252.120891 89.859686 
L 253.121553 107.691058 
L 254.122214 96.840463 
L 255.122876 103.244332 
L 256.123537 103.273122 
L 257.124199 108.428908 
L 258.12486 108.806853 
L 259.125522 120.102322 
L 260.126183 110.462818 
L 261.126845 111.922824 
L 262.127506 110.057265 
L 263.128168 111.163592 
L 264.128829 113.78629 
L 265.129491 113.698149 
L 266.130152 109.269868 
L 267.130814 103.790121 
L 269.132137 98.484581 
L 270.132798 104.666823 
L 271.13346 92.664151 
L 272.134121 95.637674 
L 273.134783 84.357022 
L 274.135444 82.318134 
L 275.136106 76.540939 
L 276.136767 86.256265 
L 277.137429 65.306408 
L 278.13809 75.557887 
L 279.138752 62.08105 
L 280.139413 61.736316 
L 281.140075 55.502215 
L 282.140736 68.440165 
L 283.141398 41.872873 
L 284.142059 59.116419 
L 285.142721 45.418496 
L 286.143382 47.158737 
L 287.144044 41.620685 
L 288.144705 54.822231 
L 289.145367 26.18117 
L 290.146028 47.649343 
L 291.14669 34.293082 
L 292.147351 36.742265 
L 293.148013 32.17233 
L 294.148674 43.891494 
L 295.149336 14.63488 
L 295.149336 14.63488 
" clip-path="url(#pca357f0c60)" style="fill: none; stroke: #1ac938; stroke-width: 1.5; stroke-linecap: round"/>
   </g>
  </g>
 </g>
 <defs>
  <clipPath id="pca357f0c60">
   <rect x="40.88125" y="7.2" width="266.37609" height="163.567352"/>
  </clipPath>
 </defs>
</svg>
