<?xml version="1.0" encoding="utf-8" standalone="no"?>
<!DOCTYPE svg PUBLIC "-//W3C//DTD SVG 1.1//EN"
  "http://www.w3.org/Graphics/SVG/1.1/DTD/svg11.dtd">
<svg xmlns:xlink="http://www.w3.org/1999/xlink" width="323.997965pt" height="208.323602pt" viewBox="0 0 323.997965 208.323602" xmlns="http://www.w3.org/2000/svg" version="1.1">
 <metadata>
  <rdf:RDF xmlns:dc="http://purl.org/dc/elements/1.1/" xmlns:cc="http://creativecommons.org/ns#" xmlns:rdf="http://www.w3.org/1999/02/22-rdf-syntax-ns#">
   <cc:Work>
    <dc:type rdf:resource="http://purl.org/dc/dcmitype/StillImage"/>
    <dc:date>2025-11-25T18:31:42.827466</dc:date>
    <dc:format>image/svg+xml</dc:format>
    <dc:creator>
     <cc:Agent>
      <dc:title>Matplotlib v3.10.6, https://matplotlib.org/</dc:title>
     </cc:Agent>
    </dc:creator>
   </cc:Work>
  </rdf:RDF>
 </metadata>
 <defs>
  <style type="text/css">*{stroke-linejoin: round; stroke-linecap: butt}</style>
 </defs>
 <g id="figure_1">
  <g id="patch_1">
   <path d="M 0 208.323602 
L 323.997965 208.323602 
L 323.997965 0 
L 0 0 
L 0 208.323602 
z
" style="fill: none"/>
  </g>
  <g id="axes_1">
   <g id="patch_2">
    <path d="M 50.421875 170.767352 
L 316.797965 170.767352 
L 316.797965 7.2 
L 50.421875 7.2 
L 50.421875 170.767352 
z
" style="fill: none"/>
   </g>
   <g id="matplotlib.axis_1">
    <g id="xtick_1">
     <g id="text_1">
      <!-- 50 -->
      <g style="fill: #262626" transform="translate(79.182593 185.365789) scale(0.1 -0.1)">
       <defs>
        <path id="DejaVuSans-35" d="M 691 4666 
L 3169 4666 
L 3169 4134 
L 1269 4134 
L 1269 2991 
Q 1406 3038 1543 3061 
Q 1681 3084 1819 3084 
Q 2600 3084 3056 2656 
Q 3513 2228 3513 1497 
Q 3513 744 3044 326 
Q 2575 -91 1722 -91 
Q 1428 -91 1123 -41 
Q 819 9 494 109 
L 494 744 
Q 775 591 1075 516 
Q 1375 441 1709 441 
Q 2250 441 2565 725 
Q 2881 1009 2881 1497 
Q 2881 1984 2565 2268 
Q 2250 2553 1709 2553 
Q 1456 2553 1204 2497 
Q 953 2441 691 2322 
L 691 4666 
z
" transform="scale(0.015625)"/>
        <path id="DejaVuSans-30" d="M 2034 4250 
Q 1547 4250 1301 3770 
Q 1056 3291 1056 2328 
Q 1056 1369 1301 889 
Q 1547 409 2034 409 
Q 2525 409 2770 889 
Q 3016 1369 3016 2328 
Q 3016 3291 2770 3770 
Q 2525 4250 2034 4250 
z
M 2034 4750 
Q 2819 4750 3233 4129 
Q 3647 3509 3647 2328 
Q 3647 1150 3233 529 
Q 2819 -91 2034 -91 
Q 1250 -91 836 529 
Q 422 1150 422 2328 
Q 422 3509 836 4129 
Q 1250 4750 2034 4750 
z
" transform="scale(0.015625)"/>
       </defs>
       <use xlink:href="#DejaVuSans-35"/>
       <use xlink:href="#DejaVuSans-30" transform="translate(63.623047 0)"/>
      </g>
     </g>
    </g>
    <g id="xtick_2">
     <g id="text_2">
      <!-- 100 -->
      <g style="fill: #262626" transform="translate(126.034418 185.365789) scale(0.1 -0.1)">
       <defs>
        <path id="DejaVuSans-31" d="M 794 531 
L 1825 531 
L 1825 4091 
L 703 3866 
L 703 4441 
L 1819 4666 
L 2450 4666 
L 2450 531 
L 3481 531 
L 3481 0 
L 794 0 
L 794 531 
z
" transform="scale(0.015625)"/>
       </defs>
       <use xlink:href="#DejaVuSans-31"/>
       <use xlink:href="#DejaVuSans-30" transform="translate(63.623047 0)"/>
       <use xlink:href="#DejaVuSans-30" transform="translate(127.246094 0)"/>
      </g>
     </g>
    </g>
    <g id="xtick_3">
     <g id="text_3">
      <!-- 150 -->
      <g style="fill: #262626" transform="translate(176.067493 185.365789) scale(0.1 -0.1)">
       <use xlink:href="#DejaVuSans-31"/>
       <use xlink:href="#DejaVuSans-35" transform="translate(63.623047 0)"/>
       <use xlink:href="#DejaVuSans-30" transform="translate(127.246094 0)"/>
      </g>
     </g>
    </g>
    <g id="xtick_4">
     <g id="text_4">
      <!-- 200 -->
      <g style="fill: #262626" transform="translate(226.100568 185.365789) scale(0.1 -0.1)">
       <defs>
        <path id="DejaVuSans-32" d="M 1228 531 
L 3431 531 
L 3431 0 
L 469 0 
L 469 531 
Q 828 903 1448 1529 
Q 2069 2156 2228 2338 
Q 2531 2678 2651 2914 
Q 2772 3150 2772 3378 
Q 2772 3750 2511 3984 
Q 2250 4219 1831 4219 
Q 1534 4219 1204 4116 
Q 875 4013 500 3803 
L 500 4441 
Q 881 4594 1212 4672 
Q 1544 4750 1819 4750 
Q 2544 4750 2975 4387 
Q 3406 4025 3406 3419 
Q 3406 3131 3298 2873 
Q 3191 2616 2906 2266 
Q 2828 2175 2409 1742 
Q 1991 1309 1228 531 
z
" transform="scale(0.015625)"/>
       </defs>
       <use xlink:href="#DejaVuSans-32"/>
       <use xlink:href="#DejaVuSans-30" transform="translate(63.623047 0)"/>
       <use xlink:href="#DejaVuSans-30" transform="translate(127.246094 0)"/>
      </g>
     </g>
    </g>
    <g id="xtick_5">
     <g id="text_5">
      <!-- 250 -->
      <g style="fill: #262626" transform="translate(276.133642 185.365789) scale(0.1 -0.1)">
       <use xlink:href="#DejaVuSans-32"/>
       <use xlink:href="#DejaVuSans-35" transform="translate(63.623047 0)"/>
       <use xlink:href="#DejaVuSans-30" transform="translate(127.246094 0)"/>
      </g>
     </g>
    </g>
    <g id="text_6">
     <!-- draw -->
     <g style="fill: #262626" transform="translate(171.227107 199.043914) scale(0.1 -0.1)">
      <defs>
       <path id="DejaVuSans-64" d="M 2906 2969 
L 2906 4863 
L 3481 4863 
L 3481 0 
L 2906 0 
L 2906 525 
Q 2725 213 2448 61 
Q 2172 -91 1784 -91 
Q 1150 -91 751 415 
Q 353 922 353 1747 
Q 353 2572 751 3078 
Q 1150 3584 1784 3584 
Q 2172 3584 2448 3432 
Q 2725 3281 2906 2969 
z
M 947 1747 
Q 947 1113 1208 752 
Q 1469 391 1925 391 
Q 2381 391 2643 752 
Q 2906 1113 2906 1747 
Q 2906 2381 2643 2742 
Q 2381 3103 1925 3103 
Q 1469 3103 1208 2742 
Q 947 2381 947 1747 
z
" transform="scale(0.015625)"/>
       <path id="DejaVuSans-72" d="M 2631 2963 
Q 2534 3019 2420 3045 
Q 2306 3072 2169 3072 
Q 1681 3072 1420 2755 
Q 1159 2438 1159 1844 
L 1159 0 
L 581 0 
L 581 3500 
L 1159 3500 
L 1159 2956 
Q 1341 3275 1631 3429 
Q 1922 3584 2338 3584 
Q 2397 3584 2469 3576 
Q 2541 3569 2628 3553 
L 2631 2963 
z
" transform="scale(0.015625)"/>
       <path id="DejaVuSans-61" d="M 2194 1759 
Q 1497 1759 1228 1600 
Q 959 1441 959 1056 
Q 959 750 1161 570 
Q 1363 391 1709 391 
Q 2188 391 2477 730 
Q 2766 1069 2766 1631 
L 2766 1759 
L 2194 1759 
z
M 3341 1997 
L 3341 0 
L 2766 0 
L 2766 531 
Q 2569 213 2275 61 
Q 1981 -91 1556 -91 
Q 1019 -91 701 211 
Q 384 513 384 1019 
Q 384 1609 779 1909 
Q 1175 2209 1959 2209 
L 2766 2209 
L 2766 2266 
Q 2766 2663 2505 2880 
Q 2244 3097 1772 3097 
Q 1472 3097 1187 3025 
Q 903 2953 641 2809 
L 641 3341 
Q 956 3463 1253 3523 
Q 1550 3584 1831 3584 
Q 2591 3584 2966 3190 
Q 3341 2797 3341 1997 
z
" transform="scale(0.015625)"/>
       <path id="DejaVuSans-77" d="M 269 3500 
L 844 3500 
L 1563 769 
L 2278 3500 
L 2956 3500 
L 3675 769 
L 4391 3500 
L 4966 3500 
L 4050 0 
L 3372 0 
L 2619 2869 
L 1863 0 
L 1184 0 
L 269 3500 
z
" transform="scale(0.015625)"/>
      </defs>
      <use xlink:href="#DejaVuSans-64"/>
      <use xlink:href="#DejaVuSans-72" transform="translate(63.476562 0)"/>
      <use xlink:href="#DejaVuSans-61" transform="translate(104.589844 0)"/>
      <use xlink:href="#DejaVuSans-77" transform="translate(165.869141 0)"/>
     </g>
    </g>
   </g>
   <g id="matplotlib.axis_2">
    <g id="ytick_1">
     <g id="text_7">
      <!-- 0.20 -->
      <g style="fill: #262626" transform="translate(21.15625 157.512808) scale(0.1 -0.1)">
       <defs>
        <path id="DejaVuSans-2e" d="M 684 794 
L 1344 794 
L 1344 0 
L 684 0 
L 684 794 
z
" transform="scale(0.015625)"/>
       </defs>
       <use xlink:href="#DejaVuSans-30"/>
       <use xlink:href="#DejaVuSans-2e" transform="translate(63.623047 0)"/>
       <use xlink:href="#DejaVuSans-32" transform="translate(95.410156 0)"/>
       <use xlink:href="#DejaVuSans-30" transform="translate(159.033203 0)"/>
      </g>
     </g>
    </g>
    <g id="ytick_2">
     <g id="text_8">
      <!-- 0.25 -->
      <g style="fill: #262626" transform="translate(21.15625 135.705584) scale(0.1 -0.1)">
       <use xlink:href="#DejaVuSans-30"/>
       <use xlink:href="#DejaVuSans-2e" transform="translate(63.623047 0)"/>
       <use xlink:href="#DejaVuSans-32" transform="translate(95.410156 0)"/>
       <use xlink:href="#DejaVuSans-35" transform="translate(159.033203 0)"/>
      </g>
     </g>
    </g>
    <g id="ytick_3">
     <g id="text_9">
      <!-- 0.30 -->
      <g style="fill: #262626" transform="translate(21.15625 113.89836) scale(0.1 -0.1)">
       <defs>
        <path id="DejaVuSans-33" d="M 2597 2516 
Q 3050 2419 3304 2112 
Q 3559 1806 3559 1356 
Q 3559 666 3084 287 
Q 2609 -91 1734 -91 
Q 1441 -91 1130 -33 
Q 819 25 488 141 
L 488 750 
Q 750 597 1062 519 
Q 1375 441 1716 441 
Q 2309 441 2620 675 
Q 2931 909 2931 1356 
Q 2931 1769 2642 2001 
Q 2353 2234 1838 2234 
L 1294 2234 
L 1294 2753 
L 1863 2753 
Q 2328 2753 2575 2939 
Q 2822 3125 2822 3475 
Q 2822 3834 2567 4026 
Q 2313 4219 1838 4219 
Q 1578 4219 1281 4162 
Q 984 4106 628 3988 
L 628 4550 
Q 988 4650 1302 4700 
Q 1616 4750 1894 4750 
Q 2613 4750 3031 4423 
Q 3450 4097 3450 3541 
Q 3450 3153 3228 2886 
Q 3006 2619 2597 2516 
z
" transform="scale(0.015625)"/>
       </defs>
       <use xlink:href="#DejaVuSans-30"/>
       <use xlink:href="#DejaVuSans-2e" transform="translate(63.623047 0)"/>
       <use xlink:href="#DejaVuSans-33" transform="translate(95.410156 0)"/>
       <use xlink:href="#DejaVuSans-30" transform="translate(159.033203 0)"/>
      </g>
     </g>
    </g>
    <g id="ytick_4">
     <g id="text_10">
      <!-- 0.35 -->
      <g style="fill: #262626" transform="translate(21.15625 92.091136) scale(0.1 -0.1)">
       <use xlink:href="#DejaVuSans-30"/>
       <use xlink:href="#DejaVuSans-2e" transform="translate(63.623047 0)"/>
       <use xlink:href="#DejaVuSans-33" transform="translate(95.410156 0)"/>
       <use xlink:href="#DejaVuSans-35" transform="translate(159.033203 0)"/>
      </g>
     </g>
    </g>
    <g id="ytick_5">
     <g id="text_11">
      <!-- 0.40 -->
      <g style="fill: #262626" transform="translate(21.15625 70.283912) scale(0.1 -0.1)">
       <defs>
        <path id="DejaVuSans-34" d="M 2419 4116 
L 825 1625 
L 2419 1625 
L 2419 4116 
z
M 2253 4666 
L 3047 4666 
L 3047 1625 
L 3713 1625 
L 3713 1100 
L 3047 1100 
L 3047 0 
L 2419 0 
L 2419 1100 
L 313 1100 
L 313 1709 
L 2253 4666 
z
" transform="scale(0.015625)"/>
       </defs>
       <use xlink:href="#DejaVuSans-30"/>
       <use xlink:href="#DejaVuSans-2e" transform="translate(63.623047 0)"/>
       <use xlink:href="#DejaVuSans-34" transform="translate(95.410156 0)"/>
       <use xlink:href="#DejaVuSans-30" transform="translate(159.033203 0)"/>
      </g>
     </g>
    </g>
    <g id="ytick_6">
     <g id="text_12">
      <!-- 0.45 -->
      <g style="fill: #262626" transform="translate(21.15625 48.476688) scale(0.1 -0.1)">
       <use xlink:href="#DejaVuSans-30"/>
       <use xlink:href="#DejaVuSans-2e" transform="translate(63.623047 0)"/>
       <use xlink:href="#DejaVuSans-34" transform="translate(95.410156 0)"/>
       <use xlink:href="#DejaVuSans-35" transform="translate(159.033203 0)"/>
      </g>
     </g>
    </g>
    <g id="ytick_7">
     <g id="text_13">
      <!-- 0.50 -->
      <g style="fill: #262626" transform="translate(21.15625 26.669464) scale(0.1 -0.1)">
       <use xlink:href="#DejaVuSans-30"/>
       <use xlink:href="#DejaVuSans-2e" transform="translate(63.623047 0)"/>
       <use xlink:href="#DejaVuSans-35" transform="translate(95.410156 0)"/>
       <use xlink:href="#DejaVuSans-30" transform="translate(159.033203 0)"/>
      </g>
     </g>
    </g>
    <g id="text_14">
     <!-- train_dtf -->
     <g style="fill: #262626" transform="translate(14.798437 110.015707) rotate(-90) scale(0.1 -0.1)">
      <defs>
       <path id="DejaVuSans-74" d="M 1172 4494 
L 1172 3500 
L 2356 3500 
L 2356 3053 
L 1172 3053 
L 1172 1153 
Q 1172 725 1289 603 
Q 1406 481 1766 481 
L 2356 481 
L 2356 0 
L 1766 0 
Q 1100 0 847 248 
Q 594 497 594 1153 
L 594 3053 
L 172 3053 
L 172 3500 
L 594 3500 
L 594 4494 
L 1172 4494 
z
" transform="scale(0.015625)"/>
       <path id="DejaVuSans-69" d="M 603 3500 
L 1178 3500 
L 1178 0 
L 603 0 
L 603 3500 
z
M 603 4863 
L 1178 4863 
L 1178 4134 
L 603 4134 
L 603 4863 
z
" transform="scale(0.015625)"/>
       <path id="DejaVuSans-6e" d="M 3513 2113 
L 3513 0 
L 2938 0 
L 2938 2094 
Q 2938 2591 2744 2837 
Q 2550 3084 2163 3084 
Q 1697 3084 1428 2787 
Q 1159 2491 1159 1978 
L 1159 0 
L 581 0 
L 581 3500 
L 1159 3500 
L 1159 2956 
Q 1366 3272 1645 3428 
Q 1925 3584 2291 3584 
Q 2894 3584 3203 3211 
Q 3513 2838 3513 2113 
z
" transform="scale(0.015625)"/>
       <path id="DejaVuSans-5f" d="M 3263 -1063 
L 3263 -1509 
L -63 -1509 
L -63 -1063 
L 3263 -1063 
z
" transform="scale(0.015625)"/>
       <path id="DejaVuSans-66" d="M 2375 4863 
L 2375 4384 
L 1825 4384 
Q 1516 4384 1395 4259 
Q 1275 4134 1275 3809 
L 1275 3500 
L 2222 3500 
L 2222 3053 
L 1275 3053 
L 1275 0 
L 697 0 
L 697 3053 
L 147 3053 
L 147 3500 
L 697 3500 
L 697 3744 
Q 697 4328 969 4595 
Q 1241 4863 1831 4863 
L 2375 4863 
z
" transform="scale(0.015625)"/>
      </defs>
      <use xlink:href="#DejaVuSans-74"/>
      <use xlink:href="#DejaVuSans-72" transform="translate(39.208984 0)"/>
      <use xlink:href="#DejaVuSans-61" transform="translate(80.322266 0)"/>
      <use xlink:href="#DejaVuSans-69" transform="translate(141.601562 0)"/>
      <use xlink:href="#DejaVuSans-6e" transform="translate(169.384766 0)"/>
      <use xlink:href="#DejaVuSans-5f" transform="translate(232.763672 0)"/>
      <use xlink:href="#DejaVuSans-64" transform="translate(282.763672 0)"/>
      <use xlink:href="#DejaVuSans-74" transform="translate(346.240234 0)"/>
      <use xlink:href="#DejaVuSans-66" transform="translate(385.449219 0)"/>
     </g>
    </g>
   </g>
   <g id="line2d_1">
    <path d="M 62.529879 78.816769 
L 63.530541 106.904258 
L 64.531202 158.248256 
L 65.531864 78.491967 
L 66.532525 80.861193 
L 67.533187 87.065229 
L 68.533848 83.339017 
L 69.53451 77.540805 
L 70.535171 163.066616 
L 71.535833 85.444895 
L 72.536494 77.401781 
L 73.537156 77.911384 
L 74.537817 89.539763 
L 75.538478 80.001033 
L 76.53914 162.085635 
L 77.539801 85.666382 
L 78.540463 82.844228 
L 79.541124 85.475028 
L 80.541786 92.665676 
L 81.542447 83.958332 
L 82.543109 162.387922 
L 83.54377 76.695016 
L 85.545093 100.072241 
L 87.546416 81.787203 
L 88.547078 98.049295 
L 89.547739 77.029052 
L 90.548401 84.02548 
L 91.549062 104.602302 
L 92.549724 88.324842 
L 93.550385 79.867677 
L 94.551047 162.038509 
L 95.551708 73.379532 
L 96.55237 106.754139 
L 97.553031 85.790733 
L 98.553693 80.376921 
L 99.554354 77.780872 
L 100.555016 162.300301 
L 101.555677 80.128862 
L 102.556339 87.515606 
L 103.557 93.568694 
L 104.557662 85.108828 
L 105.558323 90.088386 
L 106.558985 162.018999 
L 107.559646 85.397432 
L 108.560308 93.237634 
L 109.560969 84.315575 
L 110.561631 96.385793 
L 111.562292 79.154528 
L 112.562954 161.655232 
L 113.563615 91.141452 
L 114.564277 89.873074 
L 115.564938 93.591153 
L 116.5656 27.994897 
L 118.566923 161.151992 
L 119.567584 103.122259 
L 120.568246 86.796004 
L 121.568907 86.765408 
L 122.569569 81.118354 
L 123.57023 80.028015 
L 124.570892 160.753915 
L 125.571553 93.686888 
L 126.572215 97.705873 
L 127.572876 90.751927 
L 128.573538 78.354481 
L 129.574199 84.844505 
L 130.574861 162.191158 
L 131.575522 85.903304 
L 132.576184 89.267972 
L 133.576845 110.933933 
L 134.577507 108.720738 
L 135.578168 82.649399 
L 136.57883 162.576326 
L 137.579491 87.746877 
L 138.580153 88.08509 
L 139.580814 102.706287 
L 140.581476 79.47896 
L 141.582137 100.070474 
L 142.582799 162.628426 
L 143.58346 27.468897 
L 144.584122 79.64591 
L 145.584783 91.768863 
L 146.585445 82.783416 
L 147.586106 81.796655 
L 148.586768 163.332472 
L 149.587429 76.785936 
L 150.588091 82.189947 
L 151.588752 72.299533 
L 152.589414 85.250338 
L 153.590075 80.504405 
L 154.590737 161.893001 
L 155.591398 91.625278 
L 156.592059 100.273457 
L 157.592721 100.844579 
L 158.593382 85.146948 
L 159.594044 77.639559 
L 160.594705 163.249401 
L 161.595367 97.977806 
L 162.596028 97.14694 
L 163.59669 79.459952 
L 164.597351 85.697149 
L 165.598013 100.666998 
L 166.598674 163.266604 
L 167.599336 75.449732 
L 168.599997 94.399913 
L 169.600659 85.14929 
L 170.60132 28.408877 
L 171.601982 86.330818 
L 172.602643 159.747285 
L 173.603305 87.321026 
L 174.603966 81.434404 
L 175.604628 83.270283 
L 176.605289 79.377598 
L 177.605951 85.205881 
L 178.606612 162.465981 
L 179.607274 82.185446 
L 180.607935 92.404722 
L 181.608597 91.369354 
L 182.609258 87.23262 
L 183.60992 91.967974 
L 184.610581 163.293434 
L 185.611243 78.374717 
L 187.612566 97.231383 
L 188.613227 91.189129 
L 189.613889 80.017992 
L 190.61455 162.691082 
L 191.615212 86.813049 
L 192.615873 79.211871 
L 193.616535 77.744229 
L 194.617196 81.014156 
L 195.617858 82.892639 
L 196.618519 162.812859 
L 197.619181 81.967826 
L 198.619842 28.774685 
L 199.620504 93.156502 
L 200.621165 80.248515 
L 201.621827 80.985758 
L 202.622488 162.326092 
L 203.62315 77.632507 
L 204.623811 86.59705 
L 205.624473 91.095684 
L 206.625134 84.661693 
L 207.625796 81.875313 
L 208.626457 160.99843 
L 209.627119 81.365946 
L 210.62778 76.490166 
L 211.628442 95.592234 
L 212.629103 83.624354 
L 213.629765 105.129753 
L 214.630426 162.124346 
L 215.631088 87.965488 
L 216.631749 84.800634 
L 217.632411 86.362437 
L 218.633072 95.437134 
L 219.633734 105.871016 
L 220.634395 161.800814 
L 221.635057 98.650537 
L 222.635718 85.108851 
L 223.63638 92.099837 
L 224.637041 90.502234 
L 225.637703 24.381568 
L 226.638364 158.356757 
L 227.639026 79.418726 
L 228.639687 80.877711 
L 229.640349 101.768192 
L 230.64101 104.824999 
L 231.641672 84.43464 
L 232.642333 162.289118 
L 233.642995 88.685813 
L 234.643656 98.875363 
L 235.644318 81.418142 
L 236.644979 80.232865 
L 237.64564 78.847761 
L 238.646302 162.62253 
L 239.646963 79.609342 
L 240.647625 93.361338 
L 241.648286 94.719718 
L 242.648948 89.972208 
L 243.649609 93.248357 
L 244.650271 161.048684 
L 245.650932 85.905152 
L 246.651594 79.075868 
L 247.652255 103.08159 
L 248.652917 78.915144 
L 249.653578 78.148569 
L 250.65424 161.137903 
L 251.654901 90.49097 
L 252.655563 84.660484 
L 253.656224 14.63488 
L 254.656886 83.784846 
L 255.657547 103.704471 
L 256.658209 161.790081 
L 257.65887 85.859446 
L 258.659532 84.618679 
L 259.660193 84.503352 
L 260.660855 82.397343 
L 261.661516 90.397949 
L 262.662178 161.175385 
L 263.662839 89.952519 
L 264.663501 78.180144 
L 265.664162 85.146259 
L 266.664824 76.944021 
L 267.665485 104.253387 
L 268.666147 160.767341 
L 269.666808 94.204618 
L 270.66747 82.754521 
L 271.668131 78.035854 
L 272.668793 98.843111 
L 273.669454 94.791703 
L 274.670116 162.518048 
L 275.670777 87.01574 
L 276.671439 80.701009 
L 277.6721 102.518752 
L 278.672762 86.01889 
L 279.673423 99.299526 
L 280.674085 97.557704 
L 281.674746 98.950345 
L 282.675408 81.962291 
L 283.676069 74.124179 
L 284.676731 88.699456 
L 285.677392 97.230769 
L 286.678054 162.988467 
L 287.678715 87.945517 
L 288.679377 103.434476 
L 289.680038 101.583492 
L 290.6807 85.462505 
L 291.681361 91.908671 
L 292.682023 159.63886 
L 293.682684 100.369183 
L 294.683346 92.880872 
L 296.684669 92.192998 
L 297.68533 93.057094 
L 298.685992 162.070878 
L 299.686653 84.987703 
L 300.687315 98.80319 
L 301.687976 77.060035 
L 302.688638 81.958965 
L 303.689299 86.151171 
L 304.689961 161.871645 
L 304.689961 161.871645 
" clip-path="url(#p5629159df8)" style="fill: none; stroke: #8b2be2; stroke-width: 1.5; stroke-linecap: round"/>
   </g>
  </g>
 </g>
 <defs>
  <clipPath id="p5629159df8">
   <rect x="50.421875" y="7.2" width="266.37609" height="163.567352"/>
  </clipPath>
 </defs>
</svg>
