<?xml version="1.0" encoding="utf-8" standalone="no"?>
<!DOCTYPE svg PUBLIC "-//W3C//DTD SVG 1.1//EN"
  "http://www.w3.org/Graphics/SVG/1.1/DTD/svg11.dtd">
<svg xmlns:xlink="http://www.w3.org/1999/xlink" width="323.997965pt" height="208.323602pt" viewBox="0 0 323.997965 208.323602" xmlns="http://www.w3.org/2000/svg" version="1.1">
 <metadata>
  <rdf:RDF xmlns:dc="http://purl.org/dc/elements/1.1/" xmlns:cc="http://creativecommons.org/ns#" xmlns:rdf="http://www.w3.org/1999/02/22-rdf-syntax-ns#">
   <cc:Work>
    <dc:type rdf:resource="http://purl.org/dc/dcmitype/StillImage"/>
    <dc:date>2025-11-25T18:31:42.997608</dc:date>
    <dc:format>image/svg+xml</dc:format>
    <dc:creator>
     <cc:Agent>
      <dc:title>Matplotlib v3.10.6, https://matplotlib.org/</dc:title>
     </cc:Agent>
    </dc:creator>
   </cc:Work>
  </rdf:RDF>
 </metadata>
 <defs>
  <style type="text/css">*{stroke-linejoin: round; stroke-linecap: butt}</style>
 </defs>
 <g id="figure_1">
  <g id="patch_1">
   <path d="M 0 208.323602 
L 323.997965 208.323602 
L 323.997965 0 
L 0 0 
L 0 208.323602 
z
" style="fill: none"/>
  </g>
  <g id="axes_1">
   <g id="patch_2">
    <path d="M 50.421875 170.767352 
L 316.797965 170.767352 
L 316.797965 7.2 
L 50.421875 7.2 
L 50.421875 170.767352 
z
" style="fill: none"/>
   </g>
   <g id="matplotlib.axis_1">
    <g id="xtick_1">
     <g id="text_1">
      <!-- 50 -->
      <g style="fill: #262626" transform="translate(79.182593 185.365789) scale(0.1 -0.1)">
       <defs>
        <path id="DejaVuSans-35" d="M 691 4666 
L 3169 4666 
L 3169 4134 
L 1269 4134 
L 1269 2991 
Q 1406 3038 1543 3061 
Q 1681 3084 1819 3084 
Q 2600 3084 3056 2656 
Q 3513 2228 3513 1497 
Q 3513 744 3044 326 
Q 2575 -91 1722 -91 
Q 1428 -91 1123 -41 
Q 819 9 494 109 
L 494 744 
Q 775 591 1075 516 
Q 1375 441 1709 441 
Q 2250 441 2565 725 
Q 2881 1009 2881 1497 
Q 2881 1984 2565 2268 
Q 2250 2553 1709 2553 
Q 1456 2553 1204 2497 
Q 953 2441 691 2322 
L 691 4666 
z
" transform="scale(0.015625)"/>
        <path id="DejaVuSans-30" d="M 2034 4250 
Q 1547 4250 1301 3770 
Q 1056 3291 1056 2328 
Q 1056 1369 1301 889 
Q 1547 409 2034 409 
Q 2525 409 2770 889 
Q 3016 1369 3016 2328 
Q 3016 3291 2770 3770 
Q 2525 4250 2034 4250 
z
M 2034 4750 
Q 2819 4750 3233 4129 
Q 3647 3509 3647 2328 
Q 3647 1150 3233 529 
Q 2819 -91 2034 -91 
Q 1250 -91 836 529 
Q 422 1150 422 2328 
Q 422 3509 836 4129 
Q 1250 4750 2034 4750 
z
" transform="scale(0.015625)"/>
       </defs>
       <use xlink:href="#DejaVuSans-35"/>
       <use xlink:href="#DejaVuSans-30" transform="translate(63.623047 0)"/>
      </g>
     </g>
    </g>
    <g id="xtick_2">
     <g id="text_2">
      <!-- 100 -->
      <g style="fill: #262626" transform="translate(126.034418 185.365789) scale(0.1 -0.1)">
       <defs>
        <path id="DejaVuSans-31" d="M 794 531 
L 1825 531 
L 1825 4091 
L 703 3866 
L 703 4441 
L 1819 4666 
L 2450 4666 
L 2450 531 
L 3481 531 
L 3481 0 
L 794 0 
L 794 531 
z
" transform="scale(0.015625)"/>
       </defs>
       <use xlink:href="#DejaVuSans-31"/>
       <use xlink:href="#DejaVuSans-30" transform="translate(63.623047 0)"/>
       <use xlink:href="#DejaVuSans-30" transform="translate(127.246094 0)"/>
      </g>
     </g>
    </g>
    <g id="xtick_3">
     <g id="text_3">
      <!-- 150 -->
      <g style="fill: #262626" transform="translate(176.067493 185.365789) scale(0.1 -0.1)">
       <use xlink:href="#DejaVuSans-31"/>
       <use xlink:href="#DejaVuSans-35" transform="translate(63.623047 0)"/>
       <use xlink:href="#DejaVuSans-30" transform="translate(127.246094 0)"/>
      </g>
     </g>
    </g>
    <g id="xtick_4">
     <g id="text_4">
      <!-- 200 -->
      <g style="fill: #262626" transform="translate(226.100568 185.365789) scale(0.1 -0.1)">
       <defs>
        <path id="DejaVuSans-32" d="M 1228 531 
L 3431 531 
L 3431 0 
L 469 0 
L 469 531 
Q 828 903 1448 1529 
Q 2069 2156 2228 2338 
Q 2531 2678 2651 2914 
Q 2772 3150 2772 3378 
Q 2772 3750 2511 3984 
Q 2250 4219 1831 4219 
Q 1534 4219 1204 4116 
Q 875 4013 500 3803 
L 500 4441 
Q 881 4594 1212 4672 
Q 1544 4750 1819 4750 
Q 2544 4750 2975 4387 
Q 3406 4025 3406 3419 
Q 3406 3131 3298 2873 
Q 3191 2616 2906 2266 
Q 2828 2175 2409 1742 
Q 1991 1309 1228 531 
z
" transform="scale(0.015625)"/>
       </defs>
       <use xlink:href="#DejaVuSans-32"/>
       <use xlink:href="#DejaVuSans-30" transform="translate(63.623047 0)"/>
       <use xlink:href="#DejaVuSans-30" transform="translate(127.246094 0)"/>
      </g>
     </g>
    </g>
    <g id="xtick_5">
     <g id="text_5">
      <!-- 250 -->
      <g style="fill: #262626" transform="translate(276.133642 185.365789) scale(0.1 -0.1)">
       <use xlink:href="#DejaVuSans-32"/>
       <use xlink:href="#DejaVuSans-35" transform="translate(63.623047 0)"/>
       <use xlink:href="#DejaVuSans-30" transform="translate(127.246094 0)"/>
      </g>
     </g>
    </g>
    <g id="text_6">
     <!-- draw -->
     <g style="fill: #262626" transform="translate(171.227107 199.043914) scale(0.1 -0.1)">
      <defs>
       <path id="DejaVuSans-64" d="M 2906 2969 
L 2906 4863 
L 3481 4863 
L 3481 0 
L 2906 0 
L 2906 525 
Q 2725 213 2448 61 
Q 2172 -91 1784 -91 
Q 1150 -91 751 415 
Q 353 922 353 1747 
Q 353 2572 751 3078 
Q 1150 3584 1784 3584 
Q 2172 3584 2448 3432 
Q 2725 3281 2906 2969 
z
M 947 1747 
Q 947 1113 1208 752 
Q 1469 391 1925 391 
Q 2381 391 2643 752 
Q 2906 1113 2906 1747 
Q 2906 2381 2643 2742 
Q 2381 3103 1925 3103 
Q 1469 3103 1208 2742 
Q 947 2381 947 1747 
z
" transform="scale(0.015625)"/>
       <path id="DejaVuSans-72" d="M 2631 2963 
Q 2534 3019 2420 3045 
Q 2306 3072 2169 3072 
Q 1681 3072 1420 2755 
Q 1159 2438 1159 1844 
L 1159 0 
L 581 0 
L 581 3500 
L 1159 3500 
L 1159 2956 
Q 1341 3275 1631 3429 
Q 1922 3584 2338 3584 
Q 2397 3584 2469 3576 
Q 2541 3569 2628 3553 
L 2631 2963 
z
" transform="scale(0.015625)"/>
       <path id="DejaVuSans-61" d="M 2194 1759 
Q 1497 1759 1228 1600 
Q 959 1441 959 1056 
Q 959 750 1161 570 
Q 1363 391 1709 391 
Q 2188 391 2477 730 
Q 2766 1069 2766 1631 
L 2766 1759 
L 2194 1759 
z
M 3341 1997 
L 3341 0 
L 2766 0 
L 2766 531 
Q 2569 213 2275 61 
Q 1981 -91 1556 -91 
Q 1019 -91 701 211 
Q 384 513 384 1019 
Q 384 1609 779 1909 
Q 1175 2209 1959 2209 
L 2766 2209 
L 2766 2266 
Q 2766 2663 2505 2880 
Q 2244 3097 1772 3097 
Q 1472 3097 1187 3025 
Q 903 2953 641 2809 
L 641 3341 
Q 956 3463 1253 3523 
Q 1550 3584 1831 3584 
Q 2591 3584 2966 3190 
Q 3341 2797 3341 1997 
z
" transform="scale(0.015625)"/>
       <path id="DejaVuSans-77" d="M 269 3500 
L 844 3500 
L 1563 769 
L 2278 3500 
L 2956 3500 
L 3675 769 
L 4391 3500 
L 4966 3500 
L 4050 0 
L 3372 0 
L 2619 2869 
L 1863 0 
L 1184 0 
L 269 3500 
z
" transform="scale(0.015625)"/>
      </defs>
      <use xlink:href="#DejaVuSans-64"/>
      <use xlink:href="#DejaVuSans-72" transform="translate(63.476562 0)"/>
      <use xlink:href="#DejaVuSans-61" transform="translate(104.589844 0)"/>
      <use xlink:href="#DejaVuSans-77" transform="translate(165.869141 0)"/>
     </g>
    </g>
   </g>
   <g id="matplotlib.axis_2">
    <g id="ytick_1">
     <g id="text_7">
      <!-- 0.30 -->
      <g style="fill: #262626" transform="translate(21.15625 147.470969) scale(0.1 -0.1)">
       <defs>
        <path id="DejaVuSans-2e" d="M 684 794 
L 1344 794 
L 1344 0 
L 684 0 
L 684 794 
z
" transform="scale(0.015625)"/>
        <path id="DejaVuSans-33" d="M 2597 2516 
Q 3050 2419 3304 2112 
Q 3559 1806 3559 1356 
Q 3559 666 3084 287 
Q 2609 -91 1734 -91 
Q 1441 -91 1130 -33 
Q 819 25 488 141 
L 488 750 
Q 750 597 1062 519 
Q 1375 441 1716 441 
Q 2309 441 2620 675 
Q 2931 909 2931 1356 
Q 2931 1769 2642 2001 
Q 2353 2234 1838 2234 
L 1294 2234 
L 1294 2753 
L 1863 2753 
Q 2328 2753 2575 2939 
Q 2822 3125 2822 3475 
Q 2822 3834 2567 4026 
Q 2313 4219 1838 4219 
Q 1578 4219 1281 4162 
Q 984 4106 628 3988 
L 628 4550 
Q 988 4650 1302 4700 
Q 1616 4750 1894 4750 
Q 2613 4750 3031 4423 
Q 3450 4097 3450 3541 
Q 3450 3153 3228 2886 
Q 3006 2619 2597 2516 
z
" transform="scale(0.015625)"/>
       </defs>
       <use xlink:href="#DejaVuSans-30"/>
       <use xlink:href="#DejaVuSans-2e" transform="translate(63.623047 0)"/>
       <use xlink:href="#DejaVuSans-33" transform="translate(95.410156 0)"/>
       <use xlink:href="#DejaVuSans-30" transform="translate(159.033203 0)"/>
      </g>
     </g>
    </g>
    <g id="ytick_2">
     <g id="text_8">
      <!-- 0.35 -->
      <g style="fill: #262626" transform="translate(21.15625 112.15552) scale(0.1 -0.1)">
       <use xlink:href="#DejaVuSans-30"/>
       <use xlink:href="#DejaVuSans-2e" transform="translate(63.623047 0)"/>
       <use xlink:href="#DejaVuSans-33" transform="translate(95.410156 0)"/>
       <use xlink:href="#DejaVuSans-35" transform="translate(159.033203 0)"/>
      </g>
     </g>
    </g>
    <g id="ytick_3">
     <g id="text_9">
      <!-- 0.40 -->
      <g style="fill: #262626" transform="translate(21.15625 76.840072) scale(0.1 -0.1)">
       <defs>
        <path id="DejaVuSans-34" d="M 2419 4116 
L 825 1625 
L 2419 1625 
L 2419 4116 
z
M 2253 4666 
L 3047 4666 
L 3047 1625 
L 3713 1625 
L 3713 1100 
L 3047 1100 
L 3047 0 
L 2419 0 
L 2419 1100 
L 313 1100 
L 313 1709 
L 2253 4666 
z
" transform="scale(0.015625)"/>
       </defs>
       <use xlink:href="#DejaVuSans-30"/>
       <use xlink:href="#DejaVuSans-2e" transform="translate(63.623047 0)"/>
       <use xlink:href="#DejaVuSans-34" transform="translate(95.410156 0)"/>
       <use xlink:href="#DejaVuSans-30" transform="translate(159.033203 0)"/>
      </g>
     </g>
    </g>
    <g id="ytick_4">
     <g id="text_10">
      <!-- 0.45 -->
      <g style="fill: #262626" transform="translate(21.15625 41.524623) scale(0.1 -0.1)">
       <use xlink:href="#DejaVuSans-30"/>
       <use xlink:href="#DejaVuSans-2e" transform="translate(63.623047 0)"/>
       <use xlink:href="#DejaVuSans-34" transform="translate(95.410156 0)"/>
       <use xlink:href="#DejaVuSans-35" transform="translate(159.033203 0)"/>
      </g>
     </g>
    </g>
    <g id="text_11">
     <!-- train_dtb -->
     <g style="fill: #262626" transform="translate(14.798437 111.42977) rotate(-90) scale(0.1 -0.1)">
      <defs>
       <path id="DejaVuSans-74" d="M 1172 4494 
L 1172 3500 
L 2356 3500 
L 2356 3053 
L 1172 3053 
L 1172 1153 
Q 1172 725 1289 603 
Q 1406 481 1766 481 
L 2356 481 
L 2356 0 
L 1766 0 
Q 1100 0 847 248 
Q 594 497 594 1153 
L 594 3053 
L 172 3053 
L 172 3500 
L 594 3500 
L 594 4494 
L 1172 4494 
z
" transform="scale(0.015625)"/>
       <path id="DejaVuSans-69" d="M 603 3500 
L 1178 3500 
L 1178 0 
L 603 0 
L 603 3500 
z
M 603 4863 
L 1178 4863 
L 1178 4134 
L 603 4134 
L 603 4863 
z
" transform="scale(0.015625)"/>
       <path id="DejaVuSans-6e" d="M 3513 2113 
L 3513 0 
L 2938 0 
L 2938 2094 
Q 2938 2591 2744 2837 
Q 2550 3084 2163 3084 
Q 1697 3084 1428 2787 
Q 1159 2491 1159 1978 
L 1159 0 
L 581 0 
L 581 3500 
L 1159 3500 
L 1159 2956 
Q 1366 3272 1645 3428 
Q 1925 3584 2291 3584 
Q 2894 3584 3203 3211 
Q 3513 2838 3513 2113 
z
" transform="scale(0.015625)"/>
       <path id="DejaVuSans-5f" d="M 3263 -1063 
L 3263 -1509 
L -63 -1509 
L -63 -1063 
L 3263 -1063 
z
" transform="scale(0.015625)"/>
       <path id="DejaVuSans-62" d="M 3116 1747 
Q 3116 2381 2855 2742 
Q 2594 3103 2138 3103 
Q 1681 3103 1420 2742 
Q 1159 2381 1159 1747 
Q 1159 1113 1420 752 
Q 1681 391 2138 391 
Q 2594 391 2855 752 
Q 3116 1113 3116 1747 
z
M 1159 2969 
Q 1341 3281 1617 3432 
Q 1894 3584 2278 3584 
Q 2916 3584 3314 3078 
Q 3713 2572 3713 1747 
Q 3713 922 3314 415 
Q 2916 -91 2278 -91 
Q 1894 -91 1617 61 
Q 1341 213 1159 525 
L 1159 0 
L 581 0 
L 581 4863 
L 1159 4863 
L 1159 2969 
z
" transform="scale(0.015625)"/>
      </defs>
      <use xlink:href="#DejaVuSans-74"/>
      <use xlink:href="#DejaVuSans-72" transform="translate(39.208984 0)"/>
      <use xlink:href="#DejaVuSans-61" transform="translate(80.322266 0)"/>
      <use xlink:href="#DejaVuSans-69" transform="translate(141.601562 0)"/>
      <use xlink:href="#DejaVuSans-6e" transform="translate(169.384766 0)"/>
      <use xlink:href="#DejaVuSans-5f" transform="translate(232.763672 0)"/>
      <use xlink:href="#DejaVuSans-64" transform="translate(282.763672 0)"/>
      <use xlink:href="#DejaVuSans-74" transform="translate(346.240234 0)"/>
      <use xlink:href="#DejaVuSans-62" transform="translate(385.449219 0)"/>
     </g>
    </g>
   </g>
   <g id="line2d_1">
    <path d="M 62.529879 156.010275 
L 63.530541 39.292663 
L 64.531202 158.345449 
L 65.531864 156.777661 
L 66.532525 155.953734 
L 67.533187 153.784019 
L 68.533848 159.524415 
L 69.53451 160.444523 
L 70.535171 163.332472 
L 71.535833 161.474277 
L 72.536494 159.936825 
L 74.537817 155.191331 
L 75.538478 160.070058 
L 76.53914 157.411169 
L 77.539801 160.589191 
L 78.540463 155.732606 
L 79.541124 155.353245 
L 80.541786 153.636152 
L 81.542447 159.995247 
L 82.543109 163.135878 
L 83.54377 156.047227 
L 84.544432 153.097678 
L 85.545093 141.854407 
L 86.545755 155.928111 
L 87.546416 157.243488 
L 88.547078 159.182593 
L 89.547739 76.498936 
L 90.548401 160.473041 
L 91.549062 32.747008 
L 92.549724 160.147905 
L 93.550385 160.91904 
L 94.551047 157.09637 
L 95.551708 151.614203 
L 96.55237 152.589654 
L 97.553031 158.800026 
L 98.553693 154.243993 
L 99.554354 154.283055 
L 100.555016 157.407659 
L 101.555677 155.034201 
L 102.556339 154.561332 
L 103.557 145.940812 
L 104.557662 153.628798 
L 105.558323 145.603971 
L 106.558985 156.830768 
L 107.559646 153.801893 
L 108.560308 137.417299 
L 109.560969 150.739201 
L 110.561631 154.247263 
L 111.562292 153.810717 
L 112.562954 157.753868 
L 113.563615 152.730126 
L 114.564277 142.438877 
L 115.564938 137.557313 
L 116.5656 155.899544 
L 117.566261 148.494637 
L 118.566923 98.378675 
L 119.567584 135.411196 
L 120.568246 154.594003 
L 122.569569 154.33046 
L 123.57023 150.830705 
L 124.570892 157.432319 
L 125.571553 144.56346 
L 126.572215 156.307417 
L 127.572876 153.066599 
L 128.573538 158.300211 
L 129.574199 154.58358 
L 130.574861 156.720058 
L 131.575522 156.986682 
L 132.576184 158.136402 
L 133.576845 147.703831 
L 134.577507 144.76322 
L 135.578168 158.362136 
L 136.57883 162.066906 
L 137.579491 148.726163 
L 138.580153 147.430891 
L 139.580814 124.635922 
L 140.581476 158.15601 
L 141.582137 142.688199 
L 142.582799 161.747694 
L 143.58346 159.186013 
L 144.584122 158.842972 
L 145.584783 158.754038 
L 146.585445 73.445233 
L 147.586106 158.608491 
L 148.586768 162.027074 
L 149.587429 159.688878 
L 150.588091 154.202485 
L 151.588752 154.793182 
L 152.589414 149.036099 
L 153.590075 154.65743 
L 154.590737 157.810111 
L 155.591398 158.30423 
L 156.592059 152.754959 
L 157.592721 135.669534 
L 158.593382 158.948354 
L 159.594044 158.678633 
L 160.594705 151.089912 
L 161.595367 138.902696 
L 162.596028 146.601134 
L 163.59669 155.185049 
L 164.597351 154.994503 
L 165.598013 152.223575 
L 166.598674 161.908666 
L 167.599336 155.339057 
L 168.599997 154.248878 
L 169.600659 155.625585 
L 170.60132 156.634521 
L 171.601982 92.055656 
L 172.602643 155.876611 
L 173.603305 60.275356 
L 174.603966 155.115771 
L 175.604628 158.574901 
L 176.605289 159.416686 
L 177.605951 158.904303 
L 178.606612 162.143904 
L 179.607274 159.503258 
L 180.607935 145.929498 
L 181.608597 157.939326 
L 182.609258 158.718402 
L 183.60992 142.37769 
L 184.610581 162.729116 
L 185.611243 159.681016 
L 186.611904 155.891004 
L 187.612566 150.033593 
L 188.613227 154.203115 
L 189.613889 154.284337 
L 190.61455 157.629864 
L 191.615212 154.129267 
L 192.615873 149.497582 
L 193.616535 151.463295 
L 194.617196 154.675489 
L 195.617858 158.925172 
L 196.618519 162.329763 
L 197.619181 159.707786 
L 198.619842 158.943718 
L 199.620504 149.91246 
L 200.621165 64.492692 
L 201.621827 159.976806 
L 202.622488 162.821703 
L 203.62315 160.204805 
L 204.623811 149.614618 
L 205.624473 156.759793 
L 206.625134 155.607477 
L 207.625796 155.252415 
L 208.626457 157.847609 
L 209.627119 155.404556 
L 210.62778 155.331995 
L 211.628442 158.212889 
L 212.629103 158.846539 
L 213.629765 134.016022 
L 214.630426 162.621443 
L 216.631749 154.480125 
L 217.632411 155.593523 
L 218.633072 154.145708 
L 219.633734 131.035793 
L 220.634395 157.773926 
L 221.635057 133.842733 
L 222.635718 158.349529 
L 223.63638 141.551256 
L 224.637041 155.884546 
L 225.637703 159.717561 
L 226.638364 114.073257 
L 227.639026 159.725118 
L 228.639687 66.341908 
L 229.640349 134.549679 
L 230.64101 124.098563 
L 231.641672 158.629653 
L 232.642333 162.466227 
L 233.642995 159.572978 
L 234.643656 151.976508 
L 235.644318 158.468723 
L 236.644979 159.372753 
L 237.64564 159.335864 
L 238.646302 162.54389 
L 239.646963 159.921352 
L 240.647625 132.123446 
L 241.648286 152.10556 
L 242.648948 154.78124 
L 243.649609 153.641202 
L 244.650271 157.486507 
L 245.650932 153.439936 
L 246.651594 154.255242 
L 247.652255 115.447933 
L 248.652917 155.086471 
L 249.653578 154.9078 
L 250.65424 156.84738 
L 251.654901 150.580348 
L 252.655563 154.161912 
L 253.656224 155.448736 
L 254.656886 153.08048 
L 255.657547 14.63488 
L 256.658209 157.76293 
L 257.65887 135.188205 
L 258.659532 153.801508 
L 259.660193 153.895277 
L 260.660855 151.04508 
L 262.662178 156.654529 
L 263.662839 142.319525 
L 264.663501 154.291161 
L 265.664162 153.403138 
L 266.664824 151.160707 
L 267.665485 131.896219 
L 268.666147 157.324091 
L 269.666808 151.816633 
L 270.66747 153.339049 
L 271.668131 158.831477 
L 272.668793 157.971215 
L 273.669454 158.944083 
L 274.670116 162.330368 
L 275.670777 155.276073 
L 276.671439 158.687629 
L 277.6721 150.953045 
L 278.672762 159.515985 
L 279.673423 149.243248 
L 280.674085 160.634165 
L 281.674746 149.098055 
L 282.675408 160.222662 
L 283.676069 74.582231 
L 284.676731 154.398694 
L 285.677392 152.191763 
L 286.678054 161.965874 
L 287.678715 157.777875 
L 288.679377 133.351997 
L 289.680038 146.792028 
L 290.6807 158.473451 
L 291.681361 140.766589 
L 292.682023 160.97787 
L 293.682684 158.356414 
L 294.683346 144.641467 
L 295.684007 147.699121 
L 296.684669 139.762748 
L 297.68533 151.313237 
L 298.685992 157.724852 
L 299.686653 155.252312 
L 300.687315 126.558238 
L 301.687976 154.771347 
L 302.688638 157.173628 
L 303.689299 156.962455 
L 304.689961 159.142128 
L 304.689961 159.142128 
" clip-path="url(#p609c1f08c3)" style="fill: none; stroke: #9f4800; stroke-width: 1.5; stroke-linecap: round"/>
   </g>
  </g>
 </g>
 <defs>
  <clipPath id="p609c1f08c3">
   <rect x="50.421875" y="7.2" width="266.37609" height="163.567352"/>
  </clipPath>
 </defs>
</svg>
